<?xml version="1.0" encoding="utf-8" standalone="no"?>
<!DOCTYPE svg PUBLIC "-//W3C//DTD SVG 1.1//EN"
  "http://www.w3.org/Graphics/SVG/1.1/DTD/svg11.dtd">
<svg xmlns:xlink="http://www.w3.org/1999/xlink" width="708.876094pt" height="276.571966pt" viewBox="0 0 708.876094 276.571966" xmlns="http://www.w3.org/2000/svg" version="1.1">
 <metadata>
  <rdf:RDF xmlns:dc="http://purl.org/dc/elements/1.1/" xmlns:cc="http://creativecommons.org/ns#" xmlns:rdf="http://www.w3.org/1999/02/22-rdf-syntax-ns#">
   <cc:Work>
    <dc:type rdf:resource="http://purl.org/dc/dcmitype/StillImage"/>
    <dc:date>2026-05-21T12:49:55.191482</dc:date>
    <dc:format>image/svg+xml</dc:format>
    <dc:creator>
     <cc:Agent>
      <dc:title>Matplotlib v3.10.8, https://matplotlib.org/</dc:title>
     </cc:Agent>
    </dc:creator>
   </cc:Work>
  </rdf:RDF>
 </metadata>
 <defs>
  <style type="text/css">*{stroke-linejoin: round; stroke-linecap: butt}</style>
 </defs>
 <g id="figure_1">
  <g id="patch_1">
   <path d="M 0 276.571966 
L 708.876094 276.571966 
L 708.876094 0 
L 0 0 
z
" style="fill: #ffffff"/>
  </g>
  <g id="axes_1">
   <g id="patch_2">
    <path d="M 50.312344 188.988489 
L 701.676094 188.988489 
L 701.676094 21.935625 
L 50.312344 21.935625 
z
" style="fill: #ffffff"/>
   </g>
   <g id="matplotlib.axis_1">
    <g id="xtick_1">
     <g id="line2d_1">
      <path d="M 98.818155 188.988489 
L 98.818155 21.935625 
" clip-path="url(#p637226fe1e)" style="fill: none; stroke: #cccccc; stroke-linecap: round"/>
     </g>
     <g id="text_1">
      <!-- APPNP -->
      <g style="fill: #262626" transform="translate(70.9018 230.426403) rotate(-45) scale(0.11 -0.11)">
       <defs>
        <path id="ArialMT-41" d="M -9 0 
L 1750 4581 
L 2403 4581 
L 4278 0 
L 3588 0 
L 3053 1388 
L 1138 1388 
L 634 0 
L -9 0 
z
M 1313 1881 
L 2866 1881 
L 2388 3150 
Q 2169 3728 2063 4100 
Q 1975 3659 1816 3225 
L 1313 1881 
z
" transform="scale(0.015625)"/>
        <path id="ArialMT-50" d="M 494 0 
L 494 4581 
L 2222 4581 
Q 2678 4581 2919 4538 
Q 3256 4481 3484 4323 
Q 3713 4166 3852 3881 
Q 3991 3597 3991 3256 
Q 3991 2672 3619 2267 
Q 3247 1863 2275 1863 
L 1100 1863 
L 1100 0 
L 494 0 
z
M 1100 2403 
L 2284 2403 
Q 2872 2403 3119 2622 
Q 3366 2841 3366 3238 
Q 3366 3525 3220 3729 
Q 3075 3934 2838 4000 
Q 2684 4041 2272 4041 
L 1100 4041 
L 1100 2403 
z
" transform="scale(0.015625)"/>
        <path id="ArialMT-4e" d="M 488 0 
L 488 4581 
L 1109 4581 
L 3516 984 
L 3516 4581 
L 4097 4581 
L 4097 0 
L 3475 0 
L 1069 3600 
L 1069 0 
L 488 0 
z
" transform="scale(0.015625)"/>
       </defs>
       <use xlink:href="#ArialMT-41"/>
       <use xlink:href="#ArialMT-50" transform="translate(66.699219 0)"/>
       <use xlink:href="#ArialMT-50" transform="translate(133.398438 0)"/>
       <use xlink:href="#ArialMT-4e" transform="translate(200.097656 0)"/>
       <use xlink:href="#ArialMT-50" transform="translate(272.314453 0)"/>
      </g>
     </g>
    </g>
    <g id="xtick_2">
     <g id="line2d_2">
      <path d="M 149.213803 188.988489 
L 149.213803 21.935625 
" clip-path="url(#p637226fe1e)" style="fill: none; stroke: #cccccc; stroke-linecap: round"/>
     </g>
     <g id="text_2">
      <!-- GAT -->
      <g style="fill: #262626" transform="translate(132.252521 219.47133) rotate(-45) scale(0.11 -0.11)">
       <defs>
        <path id="ArialMT-47" d="M 2638 1797 
L 2638 2334 
L 4578 2338 
L 4578 638 
Q 4131 281 3656 101 
Q 3181 -78 2681 -78 
Q 2006 -78 1454 211 
Q 903 500 622 1047 
Q 341 1594 341 2269 
Q 341 2938 620 3517 
Q 900 4097 1425 4378 
Q 1950 4659 2634 4659 
Q 3131 4659 3532 4498 
Q 3934 4338 4162 4050 
Q 4391 3763 4509 3300 
L 3963 3150 
Q 3859 3500 3706 3700 
Q 3553 3900 3268 4020 
Q 2984 4141 2638 4141 
Q 2222 4141 1919 4014 
Q 1616 3888 1430 3681 
Q 1244 3475 1141 3228 
Q 966 2803 966 2306 
Q 966 1694 1177 1281 
Q 1388 869 1791 669 
Q 2194 469 2647 469 
Q 3041 469 3416 620 
Q 3791 772 3984 944 
L 3984 1797 
L 2638 1797 
z
" transform="scale(0.015625)"/>
        <path id="ArialMT-54" d="M 1659 0 
L 1659 4041 
L 150 4041 
L 150 4581 
L 3781 4581 
L 3781 4041 
L 2266 4041 
L 2266 0 
L 1659 0 
z
" transform="scale(0.015625)"/>
       </defs>
       <use xlink:href="#ArialMT-47"/>
       <use xlink:href="#ArialMT-41" transform="translate(77.783203 0)"/>
       <use xlink:href="#ArialMT-54" transform="translate(137.107422 0)"/>
      </g>
     </g>
    </g>
    <g id="xtick_3">
     <g id="line2d_3">
      <path d="M 199.609451 188.988489 
L 199.609451 21.935625 
" clip-path="url(#p637226fe1e)" style="fill: none; stroke: #cccccc; stroke-linecap: round"/>
     </g>
     <g id="text_3">
      <!-- GATv2 -->
      <g style="fill: #262626" transform="translate(174.433687 227.685812) rotate(-45) scale(0.11 -0.11)">
       <defs>
        <path id="ArialMT-76" d="M 1344 0 
L 81 3319 
L 675 3319 
L 1388 1331 
Q 1503 1009 1600 663 
Q 1675 925 1809 1294 
L 2547 3319 
L 3125 3319 
L 1869 0 
L 1344 0 
z
" transform="scale(0.015625)"/>
        <path id="ArialMT-32" d="M 3222 541 
L 3222 0 
L 194 0 
Q 188 203 259 391 
Q 375 700 629 1000 
Q 884 1300 1366 1694 
Q 2113 2306 2375 2664 
Q 2638 3022 2638 3341 
Q 2638 3675 2398 3904 
Q 2159 4134 1775 4134 
Q 1369 4134 1125 3890 
Q 881 3647 878 3216 
L 300 3275 
Q 359 3922 746 4261 
Q 1134 4600 1788 4600 
Q 2447 4600 2831 4234 
Q 3216 3869 3216 3328 
Q 3216 3053 3103 2787 
Q 2991 2522 2730 2228 
Q 2469 1934 1863 1422 
Q 1356 997 1212 845 
Q 1069 694 975 541 
L 3222 541 
z
" transform="scale(0.015625)"/>
       </defs>
       <use xlink:href="#ArialMT-47"/>
       <use xlink:href="#ArialMT-41" transform="translate(77.783203 0)"/>
       <use xlink:href="#ArialMT-54" transform="translate(137.107422 0)"/>
       <use xlink:href="#ArialMT-76" transform="translate(198.191406 0)"/>
       <use xlink:href="#ArialMT-32" transform="translate(248.191406 0)"/>
      </g>
     </g>
    </g>
    <g id="xtick_4">
     <g id="line2d_4">
      <path d="M 250.005099 188.988489 
L 250.005099 21.935625 
" clip-path="url(#p637226fe1e)" style="fill: none; stroke: #cccccc; stroke-linecap: round"/>
     </g>
     <g id="text_4">
      <!-- GCN -->
      <g style="fill: #262626" transform="translate(231.174624 221.340523) rotate(-45) scale(0.11 -0.11)">
       <defs>
        <path id="ArialMT-43" d="M 3763 1606 
L 4369 1453 
Q 4178 706 3683 314 
Q 3188 -78 2472 -78 
Q 1731 -78 1267 223 
Q 803 525 561 1097 
Q 319 1669 319 2325 
Q 319 3041 592 3573 
Q 866 4106 1370 4382 
Q 1875 4659 2481 4659 
Q 3169 4659 3637 4309 
Q 4106 3959 4291 3325 
L 3694 3184 
Q 3534 3684 3231 3912 
Q 2928 4141 2469 4141 
Q 1941 4141 1586 3887 
Q 1231 3634 1087 3207 
Q 944 2781 944 2328 
Q 944 1744 1114 1308 
Q 1284 872 1643 656 
Q 2003 441 2422 441 
Q 2931 441 3284 734 
Q 3638 1028 3763 1606 
z
" transform="scale(0.015625)"/>
       </defs>
       <use xlink:href="#ArialMT-47"/>
       <use xlink:href="#ArialMT-43" transform="translate(77.783203 0)"/>
       <use xlink:href="#ArialMT-4e" transform="translate(150 0)"/>
      </g>
     </g>
    </g>
    <g id="xtick_5">
     <g id="line2d_5">
      <path d="M 300.400747 188.988489 
L 300.400747 21.935625 
" clip-path="url(#p637226fe1e)" style="fill: none; stroke: #cccccc; stroke-linecap: round"/>
     </g>
     <g id="text_5">
      <!-- GIN -->
      <g style="fill: #262626" transform="translate(285.026699 217.884096) rotate(-45) scale(0.11 -0.11)">
       <defs>
        <path id="ArialMT-49" d="M 597 0 
L 597 4581 
L 1203 4581 
L 1203 0 
L 597 0 
z
" transform="scale(0.015625)"/>
       </defs>
       <use xlink:href="#ArialMT-47"/>
       <use xlink:href="#ArialMT-49" transform="translate(77.783203 0)"/>
       <use xlink:href="#ArialMT-4e" transform="translate(105.566406 0)"/>
      </g>
     </g>
    </g>
    <g id="xtick_6">
     <g id="line2d_6">
      <path d="M 350.796395 188.988489 
L 350.796395 21.935625 
" clip-path="url(#p637226fe1e)" style="fill: none; stroke: #cccccc; stroke-linecap: round"/>
     </g>
     <g id="text_6">
      <!-- GraphSAGE -->
      <g style="fill: #262626" transform="translate(306.019631 247.381608) rotate(-45) scale(0.11 -0.11)">
       <defs>
        <path id="ArialMT-72" d="M 416 0 
L 416 3319 
L 922 3319 
L 922 2816 
Q 1116 3169 1280 3281 
Q 1444 3394 1641 3394 
Q 1925 3394 2219 3213 
L 2025 2691 
Q 1819 2813 1613 2813 
Q 1428 2813 1281 2702 
Q 1134 2591 1072 2394 
Q 978 2094 978 1738 
L 978 0 
L 416 0 
z
" transform="scale(0.015625)"/>
        <path id="ArialMT-61" d="M 2588 409 
Q 2275 144 1986 34 
Q 1697 -75 1366 -75 
Q 819 -75 525 192 
Q 231 459 231 875 
Q 231 1119 342 1320 
Q 453 1522 633 1644 
Q 813 1766 1038 1828 
Q 1203 1872 1538 1913 
Q 2219 1994 2541 2106 
Q 2544 2222 2544 2253 
Q 2544 2597 2384 2738 
Q 2169 2928 1744 2928 
Q 1347 2928 1158 2789 
Q 969 2650 878 2297 
L 328 2372 
Q 403 2725 575 2942 
Q 747 3159 1072 3276 
Q 1397 3394 1825 3394 
Q 2250 3394 2515 3294 
Q 2781 3194 2906 3042 
Q 3031 2891 3081 2659 
Q 3109 2516 3109 2141 
L 3109 1391 
Q 3109 606 3145 398 
Q 3181 191 3288 0 
L 2700 0 
Q 2613 175 2588 409 
z
M 2541 1666 
Q 2234 1541 1622 1453 
Q 1275 1403 1131 1340 
Q 988 1278 909 1158 
Q 831 1038 831 891 
Q 831 666 1001 516 
Q 1172 366 1500 366 
Q 1825 366 2078 508 
Q 2331 650 2450 897 
Q 2541 1088 2541 1459 
L 2541 1666 
z
" transform="scale(0.015625)"/>
        <path id="ArialMT-70" d="M 422 -1272 
L 422 3319 
L 934 3319 
L 934 2888 
Q 1116 3141 1344 3267 
Q 1572 3394 1897 3394 
Q 2322 3394 2647 3175 
Q 2972 2956 3137 2557 
Q 3303 2159 3303 1684 
Q 3303 1175 3120 767 
Q 2938 359 2589 142 
Q 2241 -75 1856 -75 
Q 1575 -75 1351 44 
Q 1128 163 984 344 
L 984 -1272 
L 422 -1272 
z
M 931 1641 
Q 931 1000 1190 694 
Q 1450 388 1819 388 
Q 2194 388 2461 705 
Q 2728 1022 2728 1688 
Q 2728 2322 2467 2637 
Q 2206 2953 1844 2953 
Q 1484 2953 1207 2617 
Q 931 2281 931 1641 
z
" transform="scale(0.015625)"/>
        <path id="ArialMT-68" d="M 422 0 
L 422 4581 
L 984 4581 
L 984 2938 
Q 1378 3394 1978 3394 
Q 2347 3394 2619 3248 
Q 2891 3103 3008 2847 
Q 3125 2591 3125 2103 
L 3125 0 
L 2563 0 
L 2563 2103 
Q 2563 2525 2380 2717 
Q 2197 2909 1863 2909 
Q 1613 2909 1392 2779 
Q 1172 2650 1078 2428 
Q 984 2206 984 1816 
L 984 0 
L 422 0 
z
" transform="scale(0.015625)"/>
        <path id="ArialMT-53" d="M 288 1472 
L 859 1522 
Q 900 1178 1048 958 
Q 1197 738 1509 602 
Q 1822 466 2213 466 
Q 2559 466 2825 569 
Q 3091 672 3220 851 
Q 3350 1031 3350 1244 
Q 3350 1459 3225 1620 
Q 3100 1781 2813 1891 
Q 2628 1963 1997 2114 
Q 1366 2266 1113 2400 
Q 784 2572 623 2826 
Q 463 3081 463 3397 
Q 463 3744 659 4045 
Q 856 4347 1234 4503 
Q 1613 4659 2075 4659 
Q 2584 4659 2973 4495 
Q 3363 4331 3572 4012 
Q 3781 3694 3797 3291 
L 3216 3247 
Q 3169 3681 2898 3903 
Q 2628 4125 2100 4125 
Q 1550 4125 1298 3923 
Q 1047 3722 1047 3438 
Q 1047 3191 1225 3031 
Q 1400 2872 2139 2705 
Q 2878 2538 3153 2413 
Q 3553 2228 3743 1945 
Q 3934 1663 3934 1294 
Q 3934 928 3725 604 
Q 3516 281 3123 101 
Q 2731 -78 2241 -78 
Q 1619 -78 1198 103 
Q 778 284 539 648 
Q 300 1013 288 1472 
z
" transform="scale(0.015625)"/>
        <path id="ArialMT-45" d="M 506 0 
L 506 4581 
L 3819 4581 
L 3819 4041 
L 1113 4041 
L 1113 2638 
L 3647 2638 
L 3647 2100 
L 1113 2100 
L 1113 541 
L 3925 541 
L 3925 0 
L 506 0 
z
" transform="scale(0.015625)"/>
       </defs>
       <use xlink:href="#ArialMT-47"/>
       <use xlink:href="#ArialMT-72" transform="translate(77.783203 0)"/>
       <use xlink:href="#ArialMT-61" transform="translate(111.083984 0)"/>
       <use xlink:href="#ArialMT-70" transform="translate(166.699219 0)"/>
       <use xlink:href="#ArialMT-68" transform="translate(222.314453 0)"/>
       <use xlink:href="#ArialMT-53" transform="translate(277.929688 0)"/>
       <use xlink:href="#ArialMT-41" transform="translate(344.628906 0)"/>
       <use xlink:href="#ArialMT-47" transform="translate(411.328125 0)"/>
       <use xlink:href="#ArialMT-45" transform="translate(489.111328 0)"/>
      </g>
     </g>
    </g>
    <g id="xtick_7">
     <g id="line2d_7">
      <path d="M 401.192043 188.988489 
L 401.192043 21.935625 
" clip-path="url(#p637226fe1e)" style="fill: none; stroke: #cccccc; stroke-linecap: round"/>
     </g>
     <g id="text_7">
      <!-- GraphTransformer -->
      <g style="fill: #262626" transform="translate(335.970833 267.826054) rotate(-45) scale(0.11 -0.11)">
       <defs>
        <path id="ArialMT-6e" d="M 422 0 
L 422 3319 
L 928 3319 
L 928 2847 
Q 1294 3394 1984 3394 
Q 2284 3394 2536 3286 
Q 2788 3178 2913 3003 
Q 3038 2828 3088 2588 
Q 3119 2431 3119 2041 
L 3119 0 
L 2556 0 
L 2556 2019 
Q 2556 2363 2490 2533 
Q 2425 2703 2258 2804 
Q 2091 2906 1866 2906 
Q 1506 2906 1245 2678 
Q 984 2450 984 1813 
L 984 0 
L 422 0 
z
" transform="scale(0.015625)"/>
        <path id="ArialMT-73" d="M 197 991 
L 753 1078 
Q 800 744 1014 566 
Q 1228 388 1613 388 
Q 2000 388 2187 545 
Q 2375 703 2375 916 
Q 2375 1106 2209 1216 
Q 2094 1291 1634 1406 
Q 1016 1563 777 1677 
Q 538 1791 414 1992 
Q 291 2194 291 2438 
Q 291 2659 392 2848 
Q 494 3038 669 3163 
Q 800 3259 1026 3326 
Q 1253 3394 1513 3394 
Q 1903 3394 2198 3281 
Q 2494 3169 2634 2976 
Q 2775 2784 2828 2463 
L 2278 2388 
Q 2241 2644 2061 2787 
Q 1881 2931 1553 2931 
Q 1166 2931 1000 2803 
Q 834 2675 834 2503 
Q 834 2394 903 2306 
Q 972 2216 1119 2156 
Q 1203 2125 1616 2013 
Q 2213 1853 2448 1751 
Q 2684 1650 2818 1456 
Q 2953 1263 2953 975 
Q 2953 694 2789 445 
Q 2625 197 2315 61 
Q 2006 -75 1616 -75 
Q 969 -75 630 194 
Q 291 463 197 991 
z
" transform="scale(0.015625)"/>
        <path id="ArialMT-66" d="M 556 0 
L 556 2881 
L 59 2881 
L 59 3319 
L 556 3319 
L 556 3672 
Q 556 4006 616 4169 
Q 697 4388 901 4523 
Q 1106 4659 1475 4659 
Q 1713 4659 2000 4603 
L 1916 4113 
Q 1741 4144 1584 4144 
Q 1328 4144 1222 4034 
Q 1116 3925 1116 3625 
L 1116 3319 
L 1763 3319 
L 1763 2881 
L 1116 2881 
L 1116 0 
L 556 0 
z
" transform="scale(0.015625)"/>
        <path id="ArialMT-6f" d="M 213 1659 
Q 213 2581 725 3025 
Q 1153 3394 1769 3394 
Q 2453 3394 2887 2945 
Q 3322 2497 3322 1706 
Q 3322 1066 3130 698 
Q 2938 331 2570 128 
Q 2203 -75 1769 -75 
Q 1072 -75 642 372 
Q 213 819 213 1659 
z
M 791 1659 
Q 791 1022 1069 705 
Q 1347 388 1769 388 
Q 2188 388 2466 706 
Q 2744 1025 2744 1678 
Q 2744 2294 2464 2611 
Q 2184 2928 1769 2928 
Q 1347 2928 1069 2612 
Q 791 2297 791 1659 
z
" transform="scale(0.015625)"/>
        <path id="ArialMT-6d" d="M 422 0 
L 422 3319 
L 925 3319 
L 925 2853 
Q 1081 3097 1340 3245 
Q 1600 3394 1931 3394 
Q 2300 3394 2536 3241 
Q 2772 3088 2869 2813 
Q 3263 3394 3894 3394 
Q 4388 3394 4653 3120 
Q 4919 2847 4919 2278 
L 4919 0 
L 4359 0 
L 4359 2091 
Q 4359 2428 4304 2576 
Q 4250 2725 4106 2815 
Q 3963 2906 3769 2906 
Q 3419 2906 3187 2673 
Q 2956 2441 2956 1928 
L 2956 0 
L 2394 0 
L 2394 2156 
Q 2394 2531 2256 2718 
Q 2119 2906 1806 2906 
Q 1569 2906 1367 2781 
Q 1166 2656 1075 2415 
Q 984 2175 984 1722 
L 984 0 
L 422 0 
z
" transform="scale(0.015625)"/>
        <path id="ArialMT-65" d="M 2694 1069 
L 3275 997 
Q 3138 488 2766 206 
Q 2394 -75 1816 -75 
Q 1088 -75 661 373 
Q 234 822 234 1631 
Q 234 2469 665 2931 
Q 1097 3394 1784 3394 
Q 2450 3394 2872 2941 
Q 3294 2488 3294 1666 
Q 3294 1616 3291 1516 
L 816 1516 
Q 847 969 1125 678 
Q 1403 388 1819 388 
Q 2128 388 2347 550 
Q 2566 713 2694 1069 
z
M 847 1978 
L 2700 1978 
Q 2663 2397 2488 2606 
Q 2219 2931 1791 2931 
Q 1403 2931 1139 2672 
Q 875 2413 847 1978 
z
" transform="scale(0.015625)"/>
       </defs>
       <use xlink:href="#ArialMT-47"/>
       <use xlink:href="#ArialMT-72" transform="translate(77.783203 0)"/>
       <use xlink:href="#ArialMT-61" transform="translate(111.083984 0)"/>
       <use xlink:href="#ArialMT-70" transform="translate(166.699219 0)"/>
       <use xlink:href="#ArialMT-68" transform="translate(222.314453 0)"/>
       <use xlink:href="#ArialMT-54" transform="translate(277.929688 0)"/>
       <use xlink:href="#ArialMT-72" transform="translate(335.263672 0)"/>
       <use xlink:href="#ArialMT-61" transform="translate(368.564453 0)"/>
       <use xlink:href="#ArialMT-6e" transform="translate(424.179688 0)"/>
       <use xlink:href="#ArialMT-73" transform="translate(479.794922 0)"/>
       <use xlink:href="#ArialMT-66" transform="translate(529.794922 0)"/>
       <use xlink:href="#ArialMT-6f" transform="translate(557.578125 0)"/>
       <use xlink:href="#ArialMT-72" transform="translate(613.193359 0)"/>
       <use xlink:href="#ArialMT-6d" transform="translate(646.494141 0)"/>
       <use xlink:href="#ArialMT-65" transform="translate(729.794922 0)"/>
       <use xlink:href="#ArialMT-72" transform="translate(785.410156 0)"/>
      </g>
     </g>
    </g>
    <g id="xtick_8">
     <g id="line2d_8">
      <path d="M 451.587691 188.988489 
L 451.587691 21.935625 
" clip-path="url(#p637226fe1e)" style="fill: none; stroke: #cccccc; stroke-linecap: round"/>
     </g>
     <g id="text_8">
      <!-- SGC -->
      <g style="fill: #262626" transform="translate(433.186231 220.911508) rotate(-45) scale(0.11 -0.11)">
       <use xlink:href="#ArialMT-53"/>
       <use xlink:href="#ArialMT-47" transform="translate(66.699219 0)"/>
       <use xlink:href="#ArialMT-43" transform="translate(144.482422 0)"/>
      </g>
     </g>
    </g>
    <g id="xtick_9">
     <g id="line2d_9">
      <path d="M 501.983339 188.988489 
L 501.983339 21.935625 
" clip-path="url(#p637226fe1e)" style="fill: none; stroke: #cccccc; stroke-linecap: round"/>
     </g>
     <g id="text_9">
      <!-- bert-tiny -->
      <g style="fill: #262626" transform="translate(472.251266 232.15097) rotate(-45) scale(0.11 -0.11)">
       <defs>
        <path id="ArialMT-62" d="M 941 0 
L 419 0 
L 419 4581 
L 981 4581 
L 981 2947 
Q 1338 3394 1891 3394 
Q 2197 3394 2470 3270 
Q 2744 3147 2920 2923 
Q 3097 2700 3197 2384 
Q 3297 2069 3297 1709 
Q 3297 856 2875 390 
Q 2453 -75 1863 -75 
Q 1275 -75 941 416 
L 941 0 
z
M 934 1684 
Q 934 1088 1097 822 
Q 1363 388 1816 388 
Q 2184 388 2453 708 
Q 2722 1028 2722 1663 
Q 2722 2313 2464 2622 
Q 2206 2931 1841 2931 
Q 1472 2931 1203 2611 
Q 934 2291 934 1684 
z
" transform="scale(0.015625)"/>
        <path id="ArialMT-74" d="M 1650 503 
L 1731 6 
Q 1494 -44 1306 -44 
Q 1000 -44 831 53 
Q 663 150 594 308 
Q 525 466 525 972 
L 525 2881 
L 113 2881 
L 113 3319 
L 525 3319 
L 525 4141 
L 1084 4478 
L 1084 3319 
L 1650 3319 
L 1650 2881 
L 1084 2881 
L 1084 941 
Q 1084 700 1114 631 
Q 1144 563 1211 522 
Q 1278 481 1403 481 
Q 1497 481 1650 503 
z
" transform="scale(0.015625)"/>
        <path id="ArialMT-2d" d="M 203 1375 
L 203 1941 
L 1931 1941 
L 1931 1375 
L 203 1375 
z
" transform="scale(0.015625)"/>
        <path id="ArialMT-69" d="M 425 3934 
L 425 4581 
L 988 4581 
L 988 3934 
L 425 3934 
z
M 425 0 
L 425 3319 
L 988 3319 
L 988 0 
L 425 0 
z
" transform="scale(0.015625)"/>
        <path id="ArialMT-79" d="M 397 -1278 
L 334 -750 
Q 519 -800 656 -800 
Q 844 -800 956 -737 
Q 1069 -675 1141 -563 
Q 1194 -478 1313 -144 
Q 1328 -97 1363 -6 
L 103 3319 
L 709 3319 
L 1400 1397 
Q 1534 1031 1641 628 
Q 1738 1016 1872 1384 
L 2581 3319 
L 3144 3319 
L 1881 -56 
Q 1678 -603 1566 -809 
Q 1416 -1088 1222 -1217 
Q 1028 -1347 759 -1347 
Q 597 -1347 397 -1278 
z
" transform="scale(0.015625)"/>
       </defs>
       <use xlink:href="#ArialMT-62"/>
       <use xlink:href="#ArialMT-65" transform="translate(55.615234 0)"/>
       <use xlink:href="#ArialMT-72" transform="translate(111.230469 0)"/>
       <use xlink:href="#ArialMT-74" transform="translate(144.53125 0)"/>
       <use xlink:href="#ArialMT-2d" transform="translate(172.314453 0)"/>
       <use xlink:href="#ArialMT-74" transform="translate(205.615234 0)"/>
       <use xlink:href="#ArialMT-69" transform="translate(233.398438 0)"/>
       <use xlink:href="#ArialMT-6e" transform="translate(255.615234 0)"/>
       <use xlink:href="#ArialMT-79" transform="translate(311.230469 0)"/>
      </g>
     </g>
    </g>
    <g id="xtick_10">
     <g id="line2d_10">
      <path d="M 552.378987 188.988489 
L 552.378987 21.935625 
" clip-path="url(#p637226fe1e)" style="fill: none; stroke: #cccccc; stroke-linecap: round"/>
     </g>
     <g id="text_10">
      <!-- efficientnet-b0 -->
      <g style="fill: #262626" transform="translate(502.112533 252.776501) rotate(-45) scale(0.11 -0.11)">
       <defs>
        <path id="ArialMT-63" d="M 2588 1216 
L 3141 1144 
Q 3050 572 2676 248 
Q 2303 -75 1759 -75 
Q 1078 -75 664 370 
Q 250 816 250 1647 
Q 250 2184 428 2587 
Q 606 2991 970 3192 
Q 1334 3394 1763 3394 
Q 2303 3394 2647 3120 
Q 2991 2847 3088 2344 
L 2541 2259 
Q 2463 2594 2264 2762 
Q 2066 2931 1784 2931 
Q 1359 2931 1093 2626 
Q 828 2322 828 1663 
Q 828 994 1084 691 
Q 1341 388 1753 388 
Q 2084 388 2306 591 
Q 2528 794 2588 1216 
z
" transform="scale(0.015625)"/>
        <path id="ArialMT-30" d="M 266 2259 
Q 266 3072 433 3567 
Q 600 4063 929 4331 
Q 1259 4600 1759 4600 
Q 2128 4600 2406 4451 
Q 2684 4303 2865 4023 
Q 3047 3744 3150 3342 
Q 3253 2941 3253 2259 
Q 3253 1453 3087 958 
Q 2922 463 2592 192 
Q 2263 -78 1759 -78 
Q 1097 -78 719 397 
Q 266 969 266 2259 
z
M 844 2259 
Q 844 1131 1108 757 
Q 1372 384 1759 384 
Q 2147 384 2411 759 
Q 2675 1134 2675 2259 
Q 2675 3391 2411 3762 
Q 2147 4134 1753 4134 
Q 1366 4134 1134 3806 
Q 844 3388 844 2259 
z
" transform="scale(0.015625)"/>
       </defs>
       <use xlink:href="#ArialMT-65"/>
       <use xlink:href="#ArialMT-66" transform="translate(55.615234 0)"/>
       <use xlink:href="#ArialMT-66" transform="translate(81.648438 0)"/>
       <use xlink:href="#ArialMT-69" transform="translate(109.431641 0)"/>
       <use xlink:href="#ArialMT-63" transform="translate(131.648438 0)"/>
       <use xlink:href="#ArialMT-69" transform="translate(181.648438 0)"/>
       <use xlink:href="#ArialMT-65" transform="translate(203.865234 0)"/>
       <use xlink:href="#ArialMT-6e" transform="translate(259.480469 0)"/>
       <use xlink:href="#ArialMT-74" transform="translate(315.095703 0)"/>
       <use xlink:href="#ArialMT-6e" transform="translate(342.878906 0)"/>
       <use xlink:href="#ArialMT-65" transform="translate(398.494141 0)"/>
       <use xlink:href="#ArialMT-74" transform="translate(454.109375 0)"/>
       <use xlink:href="#ArialMT-2d" transform="translate(481.892578 0)"/>
       <use xlink:href="#ArialMT-62" transform="translate(515.193359 0)"/>
       <use xlink:href="#ArialMT-30" transform="translate(570.808594 0)"/>
      </g>
     </g>
    </g>
    <g id="xtick_11">
     <g id="line2d_11">
      <path d="M 602.774635 188.988489 
L 602.774635 21.935625 
" clip-path="url(#p637226fe1e)" style="fill: none; stroke: #cccccc; stroke-linecap: round"/>
     </g>
     <g id="text_11">
      <!-- mobilenetv2 -->
      <g style="fill: #262626" transform="translate(559.290993 245.99369) rotate(-45) scale(0.11 -0.11)">
       <defs>
        <path id="ArialMT-6c" d="M 409 0 
L 409 4581 
L 972 4581 
L 972 0 
L 409 0 
z
" transform="scale(0.015625)"/>
       </defs>
       <use xlink:href="#ArialMT-6d"/>
       <use xlink:href="#ArialMT-6f" transform="translate(83.300781 0)"/>
       <use xlink:href="#ArialMT-62" transform="translate(138.916016 0)"/>
       <use xlink:href="#ArialMT-69" transform="translate(194.53125 0)"/>
       <use xlink:href="#ArialMT-6c" transform="translate(216.748047 0)"/>
       <use xlink:href="#ArialMT-65" transform="translate(238.964844 0)"/>
       <use xlink:href="#ArialMT-6e" transform="translate(294.580078 0)"/>
       <use xlink:href="#ArialMT-65" transform="translate(350.195312 0)"/>
       <use xlink:href="#ArialMT-74" transform="translate(405.810547 0)"/>
       <use xlink:href="#ArialMT-76" transform="translate(433.59375 0)"/>
       <use xlink:href="#ArialMT-32" transform="translate(483.59375 0)"/>
      </g>
     </g>
    </g>
    <g id="xtick_12">
     <g id="line2d_12">
      <path d="M 653.170283 188.988489 
L 653.170283 21.935625 
" clip-path="url(#p637226fe1e)" style="fill: none; stroke: #cccccc; stroke-linecap: round"/>
     </g>
     <g id="text_12">
      <!-- vit-tiny -->
      <g style="fill: #262626" transform="translate(629.061587 226.527593) rotate(-45) scale(0.11 -0.11)">
       <use xlink:href="#ArialMT-76"/>
       <use xlink:href="#ArialMT-69" transform="translate(50 0)"/>
       <use xlink:href="#ArialMT-74" transform="translate(72.216797 0)"/>
       <use xlink:href="#ArialMT-2d" transform="translate(100 0)"/>
       <use xlink:href="#ArialMT-74" transform="translate(133.300781 0)"/>
       <use xlink:href="#ArialMT-69" transform="translate(161.083984 0)"/>
       <use xlink:href="#ArialMT-6e" transform="translate(183.300781 0)"/>
       <use xlink:href="#ArialMT-79" transform="translate(238.916016 0)"/>
      </g>
     </g>
    </g>
   </g>
   <g id="matplotlib.axis_2">
    <g id="ytick_1">
     <g id="line2d_13">
      <path d="M 50.312344 188.988489 
L 701.676094 188.988489 
" clip-path="url(#p637226fe1e)" style="fill: none; stroke: #cccccc; stroke-linecap: round"/>
     </g>
     <g id="text_13">
      <!-- 0 -->
      <g style="fill: #262626" transform="translate(34.695312 192.925286) scale(0.11 -0.11)">
       <use xlink:href="#ArialMT-30"/>
      </g>
     </g>
    </g>
    <g id="ytick_2">
     <g id="line2d_14">
      <path d="M 50.312344 160.650114 
L 701.676094 160.650114 
" clip-path="url(#p637226fe1e)" style="fill: none; stroke: #cccccc; stroke-linecap: round"/>
     </g>
     <g id="text_14">
      <!-- 20 -->
      <g style="fill: #262626" transform="translate(28.578281 164.586911) scale(0.11 -0.11)">
       <use xlink:href="#ArialMT-32"/>
       <use xlink:href="#ArialMT-30" transform="translate(55.615234 0)"/>
      </g>
     </g>
    </g>
    <g id="ytick_3">
     <g id="line2d_15">
      <path d="M 50.312344 132.311739 
L 701.676094 132.311739 
" clip-path="url(#p637226fe1e)" style="fill: none; stroke: #cccccc; stroke-linecap: round"/>
     </g>
     <g id="text_15">
      <!-- 40 -->
      <g style="fill: #262626" transform="translate(28.578281 136.248536) scale(0.11 -0.11)">
       <defs>
        <path id="ArialMT-34" d="M 2069 0 
L 2069 1097 
L 81 1097 
L 81 1613 
L 2172 4581 
L 2631 4581 
L 2631 1613 
L 3250 1613 
L 3250 1097 
L 2631 1097 
L 2631 0 
L 2069 0 
z
M 2069 1613 
L 2069 3678 
L 634 1613 
L 2069 1613 
z
" transform="scale(0.015625)"/>
       </defs>
       <use xlink:href="#ArialMT-34"/>
       <use xlink:href="#ArialMT-30" transform="translate(55.615234 0)"/>
      </g>
     </g>
    </g>
    <g id="ytick_4">
     <g id="line2d_16">
      <path d="M 50.312344 103.973364 
L 701.676094 103.973364 
" clip-path="url(#p637226fe1e)" style="fill: none; stroke: #cccccc; stroke-linecap: round"/>
     </g>
     <g id="text_16">
      <!-- 60 -->
      <g style="fill: #262626" transform="translate(28.578281 107.910161) scale(0.11 -0.11)">
       <defs>
        <path id="ArialMT-36" d="M 3184 3459 
L 2625 3416 
Q 2550 3747 2413 3897 
Q 2184 4138 1850 4138 
Q 1581 4138 1378 3988 
Q 1113 3794 959 3422 
Q 806 3050 800 2363 
Q 1003 2672 1297 2822 
Q 1591 2972 1913 2972 
Q 2475 2972 2870 2558 
Q 3266 2144 3266 1488 
Q 3266 1056 3080 686 
Q 2894 316 2569 119 
Q 2244 -78 1831 -78 
Q 1128 -78 684 439 
Q 241 956 241 2144 
Q 241 3472 731 4075 
Q 1159 4600 1884 4600 
Q 2425 4600 2770 4297 
Q 3116 3994 3184 3459 
z
M 888 1484 
Q 888 1194 1011 928 
Q 1134 663 1356 523 
Q 1578 384 1822 384 
Q 2178 384 2434 671 
Q 2691 959 2691 1453 
Q 2691 1928 2437 2201 
Q 2184 2475 1800 2475 
Q 1419 2475 1153 2201 
Q 888 1928 888 1484 
z
" transform="scale(0.015625)"/>
       </defs>
       <use xlink:href="#ArialMT-36"/>
       <use xlink:href="#ArialMT-30" transform="translate(55.615234 0)"/>
      </g>
     </g>
    </g>
    <g id="ytick_5">
     <g id="line2d_17">
      <path d="M 50.312344 75.634989 
L 701.676094 75.634989 
" clip-path="url(#p637226fe1e)" style="fill: none; stroke: #cccccc; stroke-linecap: round"/>
     </g>
     <g id="text_17">
      <!-- 80 -->
      <g style="fill: #262626" transform="translate(28.578281 79.571786) scale(0.11 -0.11)">
       <defs>
        <path id="ArialMT-38" d="M 1131 2484 
Q 781 2613 612 2850 
Q 444 3088 444 3419 
Q 444 3919 803 4259 
Q 1163 4600 1759 4600 
Q 2359 4600 2725 4251 
Q 3091 3903 3091 3403 
Q 3091 3084 2923 2848 
Q 2756 2613 2416 2484 
Q 2838 2347 3058 2040 
Q 3278 1734 3278 1309 
Q 3278 722 2862 322 
Q 2447 -78 1769 -78 
Q 1091 -78 675 323 
Q 259 725 259 1325 
Q 259 1772 486 2073 
Q 713 2375 1131 2484 
z
M 1019 3438 
Q 1019 3113 1228 2906 
Q 1438 2700 1772 2700 
Q 2097 2700 2305 2904 
Q 2513 3109 2513 3406 
Q 2513 3716 2298 3927 
Q 2084 4138 1766 4138 
Q 1444 4138 1231 3931 
Q 1019 3725 1019 3438 
z
M 838 1322 
Q 838 1081 952 856 
Q 1066 631 1291 507 
Q 1516 384 1775 384 
Q 2178 384 2440 643 
Q 2703 903 2703 1303 
Q 2703 1709 2433 1975 
Q 2163 2241 1756 2241 
Q 1359 2241 1098 1978 
Q 838 1716 838 1322 
z
" transform="scale(0.015625)"/>
       </defs>
       <use xlink:href="#ArialMT-38"/>
       <use xlink:href="#ArialMT-30" transform="translate(55.615234 0)"/>
      </g>
     </g>
    </g>
    <g id="ytick_6">
     <g id="line2d_18">
      <path d="M 50.312344 47.296614 
L 701.676094 47.296614 
" clip-path="url(#p637226fe1e)" style="fill: none; stroke: #cccccc; stroke-linecap: round"/>
     </g>
     <g id="text_18">
      <!-- 100 -->
      <g style="fill: #262626" transform="translate(22.46125 51.233411) scale(0.11 -0.11)">
       <defs>
        <path id="ArialMT-31" d="M 2384 0 
L 1822 0 
L 1822 3584 
Q 1619 3391 1289 3197 
Q 959 3003 697 2906 
L 697 3450 
Q 1169 3672 1522 3987 
Q 1875 4303 2022 4600 
L 2384 4600 
L 2384 0 
z
" transform="scale(0.015625)"/>
       </defs>
       <use xlink:href="#ArialMT-31"/>
       <use xlink:href="#ArialMT-30" transform="translate(55.615234 0)"/>
       <use xlink:href="#ArialMT-30" transform="translate(111.230469 0)"/>
      </g>
     </g>
    </g>
    <g id="text_19">
     <!-- Latency (ms) -->
     <g style="fill: #262626" transform="translate(15.935625 140.135494) rotate(-90) scale(0.12 -0.12)">
      <defs>
       <path id="ArialMT-4c" d="M 469 0 
L 469 4581 
L 1075 4581 
L 1075 541 
L 3331 541 
L 3331 0 
L 469 0 
z
" transform="scale(0.015625)"/>
       <path id="ArialMT-20" transform="scale(0.015625)"/>
       <path id="ArialMT-28" d="M 1497 -1347 
Q 1031 -759 709 28 
Q 388 816 388 1659 
Q 388 2403 628 3084 
Q 909 3875 1497 4659 
L 1900 4659 
Q 1522 4009 1400 3731 
Q 1209 3300 1100 2831 
Q 966 2247 966 1656 
Q 966 153 1900 -1347 
L 1497 -1347 
z
" transform="scale(0.015625)"/>
       <path id="ArialMT-29" d="M 791 -1347 
L 388 -1347 
Q 1322 153 1322 1656 
Q 1322 2244 1188 2822 
Q 1081 3291 891 3722 
Q 769 4003 388 4659 
L 791 4659 
Q 1378 3875 1659 3084 
Q 1900 2403 1900 1659 
Q 1900 816 1576 28 
Q 1253 -759 791 -1347 
z
" transform="scale(0.015625)"/>
      </defs>
      <use xlink:href="#ArialMT-4c"/>
      <use xlink:href="#ArialMT-61" transform="translate(55.615234 0)"/>
      <use xlink:href="#ArialMT-74" transform="translate(111.230469 0)"/>
      <use xlink:href="#ArialMT-65" transform="translate(139.013672 0)"/>
      <use xlink:href="#ArialMT-6e" transform="translate(194.628906 0)"/>
      <use xlink:href="#ArialMT-63" transform="translate(250.244141 0)"/>
      <use xlink:href="#ArialMT-79" transform="translate(300.244141 0)"/>
      <use xlink:href="#ArialMT-20" transform="translate(350.244141 0)"/>
      <use xlink:href="#ArialMT-28" transform="translate(378.027344 0)"/>
      <use xlink:href="#ArialMT-6d" transform="translate(411.328125 0)"/>
      <use xlink:href="#ArialMT-73" transform="translate(494.628906 0)"/>
      <use xlink:href="#ArialMT-29" transform="translate(544.628906 0)"/>
     </g>
    </g>
   </g>
   <g id="patch_3">
    <path d="M 79.919787 188.988489 
L 92.518699 188.988489 
L 92.518699 172.453944 
L 79.919787 172.453944 
z
" clip-path="url(#p637226fe1e)" style="fill: #0072b2; stroke: #ffffff; stroke-linejoin: miter"/>
   </g>
   <g id="patch_4">
    <path d="M 130.315435 188.988489 
L 142.914347 188.988489 
L 142.914347 174.109945 
L 130.315435 174.109945 
z
" clip-path="url(#p637226fe1e)" style="fill: #0072b2; stroke: #ffffff; stroke-linejoin: miter"/>
   </g>
   <g id="patch_5">
    <path d="M 180.711083 188.988489 
L 193.309995 188.988489 
L 193.309995 170.278407 
L 180.711083 170.278407 
z
" clip-path="url(#p637226fe1e)" style="fill: #0072b2; stroke: #ffffff; stroke-linejoin: miter"/>
   </g>
   <g id="patch_6">
    <path d="M 231.106731 188.988489 
L 243.705643 188.988489 
L 243.705643 177.809708 
L 231.106731 177.809708 
z
" clip-path="url(#p637226fe1e)" style="fill: #0072b2; stroke: #ffffff; stroke-linejoin: miter"/>
   </g>
   <g id="patch_7">
    <path d="M 281.502379 188.988489 
L 294.101291 188.988489 
L 294.101291 130.03442 
L 281.502379 130.03442 
z
" clip-path="url(#p637226fe1e)" style="fill: #0072b2; stroke: #ffffff; stroke-linejoin: miter"/>
   </g>
   <g id="patch_8">
    <path d="M 331.898027 188.988489 
L 344.496939 188.988489 
L 344.496939 129.291435 
L 331.898027 129.291435 
z
" clip-path="url(#p637226fe1e)" style="fill: #0072b2; stroke: #ffffff; stroke-linejoin: miter"/>
   </g>
   <g id="patch_9">
    <path d="M 382.293675 188.988489 
L 394.892587 188.988489 
L 394.892587 174.195196 
L 382.293675 174.195196 
z
" clip-path="url(#p637226fe1e)" style="fill: #0072b2; stroke: #ffffff; stroke-linejoin: miter"/>
   </g>
   <g id="patch_10">
    <path d="M 432.689323 188.988489 
L 445.288235 188.988489 
L 445.288235 77.60342 
L 432.689323 77.60342 
z
" clip-path="url(#p637226fe1e)" style="fill: #0072b2; stroke: #ffffff; stroke-linejoin: miter"/>
   </g>
   <g id="patch_11">
    <path d="M 483.084971 188.988489 
L 495.683883 188.988489 
L 495.683883 180.643971 
L 483.084971 180.643971 
z
" clip-path="url(#p637226fe1e)" style="fill: #0072b2; stroke: #ffffff; stroke-linejoin: miter"/>
   </g>
   <g id="patch_12">
    <path d="M 533.480619 188.988489 
L 546.079531 188.988489 
L 546.079531 183.277834 
L 533.480619 183.277834 
z
" clip-path="url(#p637226fe1e)" style="fill: #0072b2; stroke: #ffffff; stroke-linejoin: miter"/>
   </g>
   <g id="patch_13">
    <path d="M 583.876267 188.988489 
L 596.475179 188.988489 
L 596.475179 186.292281 
L 583.876267 186.292281 
z
" clip-path="url(#p637226fe1e)" style="fill: #0072b2; stroke: #ffffff; stroke-linejoin: miter"/>
   </g>
   <g id="patch_14">
    <path d="M 634.271915 188.988489 
L 646.870827 188.988489 
L 646.870827 176.049565 
L 634.271915 176.049565 
z
" clip-path="url(#p637226fe1e)" style="fill: #0072b2; stroke: #ffffff; stroke-linejoin: miter"/>
   </g>
   <g id="patch_15">
    <path d="M 92.518699 188.988489 
L 105.117611 188.988489 
L 105.117611 178.026213 
L 92.518699 178.026213 
z
" clip-path="url(#p637226fe1e)" style="fill: #e69f00; stroke: #ffffff; stroke-linejoin: miter"/>
   </g>
   <g id="patch_16">
    <path d="M 142.914347 188.988489 
L 155.513259 188.988489 
L 155.513259 176.919694 
L 142.914347 176.919694 
z
" clip-path="url(#p637226fe1e)" style="fill: #e69f00; stroke: #ffffff; stroke-linejoin: miter"/>
   </g>
   <g id="patch_17">
    <path d="M 193.309995 188.988489 
L 205.908907 188.988489 
L 205.908907 176.742863 
L 193.309995 176.742863 
z
" clip-path="url(#p637226fe1e)" style="fill: #e69f00; stroke: #ffffff; stroke-linejoin: miter"/>
   </g>
   <g id="patch_18">
    <path d="M 243.705643 188.988489 
L 256.304555 188.988489 
L 256.304555 178.642857 
L 243.705643 178.642857 
z
" clip-path="url(#p637226fe1e)" style="fill: #e69f00; stroke: #ffffff; stroke-linejoin: miter"/>
   </g>
   <g id="patch_19">
    <path d="M 294.101291 188.988489 
L 306.700203 188.988489 
L 306.700203 137.56421 
L 294.101291 137.56421 
z
" clip-path="url(#p637226fe1e)" style="fill: #e69f00; stroke: #ffffff; stroke-linejoin: miter"/>
   </g>
   <g id="patch_20">
    <path d="M 344.496939 188.988489 
L 357.095851 188.988489 
L 357.095851 118.526631 
L 344.496939 118.526631 
z
" clip-path="url(#p637226fe1e)" style="fill: #e69f00; stroke: #ffffff; stroke-linejoin: miter"/>
   </g>
   <g id="patch_21">
    <path d="M 394.892587 188.988489 
L 407.491499 188.988489 
L 407.491499 180.407771 
L 394.892587 180.407771 
z
" clip-path="url(#p637226fe1e)" style="fill: #e69f00; stroke: #ffffff; stroke-linejoin: miter"/>
   </g>
   <g id="patch_22">
    <path d="M 445.288235 188.988489 
L 457.887147 188.988489 
L 457.887147 30.800327 
L 445.288235 30.800327 
z
" clip-path="url(#p637226fe1e)" style="fill: #e69f00; stroke: #ffffff; stroke-linejoin: miter"/>
   </g>
   <g id="patch_23">
    <path d="M 495.683883 188.988489 
L 508.282795 188.988489 
L 508.282795 188.988489 
L 495.683883 188.988489 
z
" clip-path="url(#p637226fe1e)" style="fill: #e69f00; stroke: #ffffff; stroke-linejoin: miter"/>
   </g>
   <g id="patch_24">
    <path d="M 546.079531 188.988489 
L 558.678443 188.988489 
L 558.678443 184.620648 
L 546.079531 184.620648 
z
" clip-path="url(#p637226fe1e)" style="fill: #e69f00; stroke: #ffffff; stroke-linejoin: miter"/>
   </g>
   <g id="patch_25">
    <path d="M 596.475179 188.988489 
L 609.074091 188.988489 
L 609.074091 186.099958 
L 596.475179 186.099958 
z
" clip-path="url(#p637226fe1e)" style="fill: #e69f00; stroke: #ffffff; stroke-linejoin: miter"/>
   </g>
   <g id="patch_26">
    <path d="M 646.870827 188.988489 
L 659.469739 188.988489 
L 659.469739 180.247328 
L 646.870827 180.247328 
z
" clip-path="url(#p637226fe1e)" style="fill: #e69f00; stroke: #ffffff; stroke-linejoin: miter"/>
   </g>
   <g id="patch_27">
    <path d="M 105.117611 188.988489 
L 117.716523 188.988489 
L 117.716523 172.18865 
L 105.117611 172.18865 
z
" clip-path="url(#p637226fe1e)" style="fill: #009e73; stroke: #ffffff; stroke-linejoin: miter"/>
   </g>
   <g id="patch_28">
    <path d="M 155.513259 188.988489 
L 168.112171 188.988489 
L 168.112171 173.934719 
L 155.513259 173.934719 
z
" clip-path="url(#p637226fe1e)" style="fill: #009e73; stroke: #ffffff; stroke-linejoin: miter"/>
   </g>
   <g id="patch_29">
    <path d="M 205.908907 188.988489 
L 218.507819 188.988489 
L 218.507819 169.674091 
L 205.908907 169.674091 
z
" clip-path="url(#p637226fe1e)" style="fill: #009e73; stroke: #ffffff; stroke-linejoin: miter"/>
   </g>
   <g id="patch_30">
    <path d="M 256.304555 188.988489 
L 268.903467 188.988489 
L 268.903467 188.988489 
L 256.304555 188.988489 
z
" clip-path="url(#p637226fe1e)" style="fill: #009e73; stroke: #ffffff; stroke-linejoin: miter"/>
   </g>
   <g id="patch_31">
    <path d="M 306.700203 188.988489 
L 319.299115 188.988489 
L 319.299115 129.224981 
L 306.700203 129.224981 
z
" clip-path="url(#p637226fe1e)" style="fill: #009e73; stroke: #ffffff; stroke-linejoin: miter"/>
   </g>
   <g id="patch_32">
    <path d="M 357.095851 188.988489 
L 369.694763 188.988489 
L 369.694763 129.35274 
L 357.095851 129.35274 
z
" clip-path="url(#p637226fe1e)" style="fill: #009e73; stroke: #ffffff; stroke-linejoin: miter"/>
   </g>
   <g id="patch_33">
    <path d="M 407.491499 188.988489 
L 420.090411 188.988489 
L 420.090411 173.549317 
L 407.491499 173.549317 
z
" clip-path="url(#p637226fe1e)" style="fill: #009e73; stroke: #ffffff; stroke-linejoin: miter"/>
   </g>
   <g id="patch_34">
    <path d="M 457.887147 188.988489 
L 470.486059 188.988489 
L 470.486059 77.089645 
L 457.887147 77.089645 
z
" clip-path="url(#p637226fe1e)" style="fill: #009e73; stroke: #ffffff; stroke-linejoin: miter"/>
   </g>
   <g id="patch_35">
    <path d="M 508.282795 188.988489 
L 520.881707 188.988489 
L 520.881707 180.250493 
L 508.282795 180.250493 
z
" clip-path="url(#p637226fe1e)" style="fill: #009e73; stroke: #ffffff; stroke-linejoin: miter"/>
   </g>
   <g id="patch_36">
    <path d="M 558.678443 188.988489 
L 571.277355 188.988489 
L 571.277355 169.387779 
L 558.678443 169.387779 
z
" clip-path="url(#p637226fe1e)" style="fill: #009e73; stroke: #ffffff; stroke-linejoin: miter"/>
   </g>
   <g id="patch_37">
    <path d="M 609.074091 188.988489 
L 621.673003 188.988489 
L 621.673003 177.109042 
L 609.074091 177.109042 
z
" clip-path="url(#p637226fe1e)" style="fill: #009e73; stroke: #ffffff; stroke-linejoin: miter"/>
   </g>
   <g id="patch_38">
    <path d="M 659.469739 188.988489 
L 672.068651 188.988489 
L 672.068651 38.443139 
L 659.469739 38.443139 
z
" clip-path="url(#p637226fe1e)" style="fill: #009e73; stroke: #ffffff; stroke-linejoin: miter"/>
   </g>
   <g id="LineCollection_1">
    <path d="M 86.219243 172.932296 
L 86.219243 171.975593 
" clip-path="url(#p637226fe1e)" style="fill: none; stroke: #1a1a1a; stroke-width: 1.5"/>
    <path d="M 136.614891 174.577292 
L 136.614891 173.642598 
" clip-path="url(#p637226fe1e)" style="fill: none; stroke: #1a1a1a; stroke-width: 1.5"/>
    <path d="M 187.010539 171.087279 
L 187.010539 169.469536 
" clip-path="url(#p637226fe1e)" style="fill: none; stroke: #1a1a1a; stroke-width: 1.5"/>
    <path d="M 237.406187 178.367785 
L 237.406187 177.251631 
" clip-path="url(#p637226fe1e)" style="fill: none; stroke: #1a1a1a; stroke-width: 1.5"/>
    <path d="M 287.801835 130.875786 
L 287.801835 129.193054 
" clip-path="url(#p637226fe1e)" style="fill: none; stroke: #1a1a1a; stroke-width: 1.5"/>
    <path d="M 338.197483 130.023274 
L 338.197483 128.559596 
" clip-path="url(#p637226fe1e)" style="fill: none; stroke: #1a1a1a; stroke-width: 1.5"/>
    <path d="M 388.593131 174.818593 
L 388.593131 173.571799 
" clip-path="url(#p637226fe1e)" style="fill: none; stroke: #1a1a1a; stroke-width: 1.5"/>
    <path d="M 438.988779 78.26975 
L 438.988779 76.93709 
" clip-path="url(#p637226fe1e)" style="fill: none; stroke: #1a1a1a; stroke-width: 1.5"/>
    <path d="M 489.384427 180.959849 
L 489.384427 180.328092 
" clip-path="url(#p637226fe1e)" style="fill: none; stroke: #1a1a1a; stroke-width: 1.5"/>
    <path d="M 539.780075 183.367289 
L 539.780075 183.188379 
" clip-path="url(#p637226fe1e)" style="fill: none; stroke: #1a1a1a; stroke-width: 1.5"/>
    <path d="M 590.175723 186.375077 
L 590.175723 186.209486 
" clip-path="url(#p637226fe1e)" style="fill: none; stroke: #1a1a1a; stroke-width: 1.5"/>
    <path d="M 640.571371 176.071763 
L 640.571371 176.027366 
" clip-path="url(#p637226fe1e)" style="fill: none; stroke: #1a1a1a; stroke-width: 1.5"/>
   </g>
   <g id="LineCollection_2">
    <path d="M 98.818155 178.335527 
L 98.818155 177.7169 
" clip-path="url(#p637226fe1e)" style="fill: none; stroke: #1a1a1a; stroke-width: 1.5"/>
    <path d="M 149.213803 177.208557 
L 149.213803 176.630832 
" clip-path="url(#p637226fe1e)" style="fill: none; stroke: #1a1a1a; stroke-width: 1.5"/>
    <path d="M 199.609451 176.933155 
L 199.609451 176.552571 
" clip-path="url(#p637226fe1e)" style="fill: none; stroke: #1a1a1a; stroke-width: 1.5"/>
    <path d="M 250.005099 178.834849 
L 250.005099 178.450864 
" clip-path="url(#p637226fe1e)" style="fill: none; stroke: #1a1a1a; stroke-width: 1.5"/>
    <path d="M 300.400747 137.945219 
L 300.400747 137.1832 
" clip-path="url(#p637226fe1e)" style="fill: none; stroke: #1a1a1a; stroke-width: 1.5"/>
    <path d="M 350.796395 118.851294 
L 350.796395 118.201968 
" clip-path="url(#p637226fe1e)" style="fill: none; stroke: #1a1a1a; stroke-width: 1.5"/>
    <path d="M 401.192043 180.84744 
L 401.192043 179.968101 
" clip-path="url(#p637226fe1e)" style="fill: none; stroke: #1a1a1a; stroke-width: 1.5"/>
    <path d="M 451.587691 31.71013 
L 451.587691 29.890523 
" clip-path="url(#p637226fe1e)" style="fill: none; stroke: #1a1a1a; stroke-width: 1.5"/>
    <path d="M 501.983339 188.988489 
L 501.983339 188.988489 
" clip-path="url(#p637226fe1e)" style="fill: none; stroke: #1a1a1a; stroke-width: 1.5"/>
    <path d="M 552.378987 184.751429 
L 552.378987 184.489866 
" clip-path="url(#p637226fe1e)" style="fill: none; stroke: #1a1a1a; stroke-width: 1.5"/>
    <path d="M 602.774635 186.147708 
L 602.774635 186.052208 
" clip-path="url(#p637226fe1e)" style="fill: none; stroke: #1a1a1a; stroke-width: 1.5"/>
    <path d="M 653.170283 180.429213 
L 653.170283 180.065443 
" clip-path="url(#p637226fe1e)" style="fill: none; stroke: #1a1a1a; stroke-width: 1.5"/>
   </g>
   <g id="LineCollection_3">
    <path d="M 111.417067 172.467594 
L 111.417067 171.909706 
" clip-path="url(#p637226fe1e)" style="fill: none; stroke: #1a1a1a; stroke-width: 1.5"/>
    <path d="M 161.812715 174.442165 
L 161.812715 173.427273 
" clip-path="url(#p637226fe1e)" style="fill: none; stroke: #1a1a1a; stroke-width: 1.5"/>
    <path d="M 212.208363 170.934724 
L 212.208363 168.413459 
" clip-path="url(#p637226fe1e)" style="fill: none; stroke: #1a1a1a; stroke-width: 1.5"/>
    <path d="M 262.604011 188.988489 
L 262.604011 188.988489 
" clip-path="url(#p637226fe1e)" style="fill: none; stroke: #1a1a1a; stroke-width: 1.5"/>
    <path d="M 312.999659 130.792424 
L 312.999659 127.657539 
" clip-path="url(#p637226fe1e)" style="fill: none; stroke: #1a1a1a; stroke-width: 1.5"/>
    <path d="M 363.395307 130.716005 
L 363.395307 127.989476 
" clip-path="url(#p637226fe1e)" style="fill: none; stroke: #1a1a1a; stroke-width: 1.5"/>
    <path d="M 413.790955 174.377695 
L 413.790955 172.720939 
" clip-path="url(#p637226fe1e)" style="fill: none; stroke: #1a1a1a; stroke-width: 1.5"/>
    <path d="M 464.186603 77.791114 
L 464.186603 76.388176 
" clip-path="url(#p637226fe1e)" style="fill: none; stroke: #1a1a1a; stroke-width: 1.5"/>
    <path d="M 514.582251 180.515315 
L 514.582251 179.98567 
" clip-path="url(#p637226fe1e)" style="fill: none; stroke: #1a1a1a; stroke-width: 1.5"/>
    <path d="M 564.977899 169.888235 
L 564.977899 168.887324 
" clip-path="url(#p637226fe1e)" style="fill: none; stroke: #1a1a1a; stroke-width: 1.5"/>
    <path d="M 615.373547 177.524624 
L 615.373547 176.69346 
" clip-path="url(#p637226fe1e)" style="fill: none; stroke: #1a1a1a; stroke-width: 1.5"/>
    <path d="M 665.769195 44.20485 
L 665.769195 32.681428 
" clip-path="url(#p637226fe1e)" style="fill: none; stroke: #1a1a1a; stroke-width: 1.5"/>
   </g>
   <g id="patch_39">
    <path d="M 50.312344 188.988489 
L 50.312344 21.935625 
" style="fill: none; stroke: #cccccc; stroke-width: 1.25; stroke-linejoin: miter; stroke-linecap: square"/>
   </g>
   <g id="patch_40">
    <path d="M 701.676094 188.988489 
L 701.676094 21.935625 
" style="fill: none; stroke: #cccccc; stroke-width: 1.25; stroke-linejoin: miter; stroke-linecap: square"/>
   </g>
   <g id="patch_41">
    <path d="M 50.312344 188.988489 
L 701.676094 188.988489 
" style="fill: none; stroke: #cccccc; stroke-width: 1.25; stroke-linejoin: miter; stroke-linecap: square"/>
   </g>
   <g id="patch_42">
    <path d="M 50.312344 21.935625 
L 701.676094 21.935625 
" style="fill: none; stroke: #cccccc; stroke-width: 1.25; stroke-linejoin: miter; stroke-linecap: square"/>
   </g>
   <g id="text_20">
    <!-- Figure 1: Latency Comparison - NPU vs GPU vs CPU (FP32) -->
    <g style="fill: #262626" transform="translate(213.286406 15.935625) scale(0.12 -0.12)">
     <defs>
      <path id="ArialMT-46" d="M 525 0 
L 525 4581 
L 3616 4581 
L 3616 4041 
L 1131 4041 
L 1131 2622 
L 3281 2622 
L 3281 2081 
L 1131 2081 
L 1131 0 
L 525 0 
z
" transform="scale(0.015625)"/>
      <path id="ArialMT-67" d="M 319 -275 
L 866 -356 
Q 900 -609 1056 -725 
Q 1266 -881 1628 -881 
Q 2019 -881 2231 -725 
Q 2444 -569 2519 -288 
Q 2563 -116 2559 434 
Q 2191 0 1641 0 
Q 956 0 581 494 
Q 206 988 206 1678 
Q 206 2153 378 2554 
Q 550 2956 876 3175 
Q 1203 3394 1644 3394 
Q 2231 3394 2613 2919 
L 2613 3319 
L 3131 3319 
L 3131 450 
Q 3131 -325 2973 -648 
Q 2816 -972 2473 -1159 
Q 2131 -1347 1631 -1347 
Q 1038 -1347 672 -1080 
Q 306 -813 319 -275 
z
M 784 1719 
Q 784 1066 1043 766 
Q 1303 466 1694 466 
Q 2081 466 2343 764 
Q 2606 1063 2606 1700 
Q 2606 2309 2336 2618 
Q 2066 2928 1684 2928 
Q 1309 2928 1046 2623 
Q 784 2319 784 1719 
z
" transform="scale(0.015625)"/>
      <path id="ArialMT-75" d="M 2597 0 
L 2597 488 
Q 2209 -75 1544 -75 
Q 1250 -75 995 37 
Q 741 150 617 320 
Q 494 491 444 738 
Q 409 903 409 1263 
L 409 3319 
L 972 3319 
L 972 1478 
Q 972 1038 1006 884 
Q 1059 663 1231 536 
Q 1403 409 1656 409 
Q 1909 409 2131 539 
Q 2353 669 2445 892 
Q 2538 1116 2538 1541 
L 2538 3319 
L 3100 3319 
L 3100 0 
L 2597 0 
z
" transform="scale(0.015625)"/>
      <path id="ArialMT-3a" d="M 578 2678 
L 578 3319 
L 1219 3319 
L 1219 2678 
L 578 2678 
z
M 578 0 
L 578 641 
L 1219 641 
L 1219 0 
L 578 0 
z
" transform="scale(0.015625)"/>
      <path id="ArialMT-55" d="M 3500 4581 
L 4106 4581 
L 4106 1934 
Q 4106 1244 3950 837 
Q 3794 431 3386 176 
Q 2978 -78 2316 -78 
Q 1672 -78 1262 144 
Q 853 366 678 786 
Q 503 1206 503 1934 
L 503 4581 
L 1109 4581 
L 1109 1938 
Q 1109 1341 1220 1058 
Q 1331 775 1601 622 
Q 1872 469 2263 469 
Q 2931 469 3215 772 
Q 3500 1075 3500 1938 
L 3500 4581 
z
" transform="scale(0.015625)"/>
      <path id="ArialMT-33" d="M 269 1209 
L 831 1284 
Q 928 806 1161 595 
Q 1394 384 1728 384 
Q 2125 384 2398 659 
Q 2672 934 2672 1341 
Q 2672 1728 2419 1979 
Q 2166 2231 1775 2231 
Q 1616 2231 1378 2169 
L 1441 2663 
Q 1497 2656 1531 2656 
Q 1891 2656 2178 2843 
Q 2466 3031 2466 3422 
Q 2466 3731 2256 3934 
Q 2047 4138 1716 4138 
Q 1388 4138 1169 3931 
Q 950 3725 888 3313 
L 325 3413 
Q 428 3978 793 4289 
Q 1159 4600 1703 4600 
Q 2078 4600 2393 4439 
Q 2709 4278 2876 4000 
Q 3044 3722 3044 3409 
Q 3044 3113 2884 2869 
Q 2725 2625 2413 2481 
Q 2819 2388 3044 2092 
Q 3269 1797 3269 1353 
Q 3269 753 2831 336 
Q 2394 -81 1725 -81 
Q 1122 -81 723 278 
Q 325 638 269 1209 
z
" transform="scale(0.015625)"/>
     </defs>
     <use xlink:href="#ArialMT-46"/>
     <use xlink:href="#ArialMT-69" transform="translate(61.083984 0)"/>
     <use xlink:href="#ArialMT-67" transform="translate(83.300781 0)"/>
     <use xlink:href="#ArialMT-75" transform="translate(138.916016 0)"/>
     <use xlink:href="#ArialMT-72" transform="translate(194.53125 0)"/>
     <use xlink:href="#ArialMT-65" transform="translate(227.832031 0)"/>
     <use xlink:href="#ArialMT-20" transform="translate(283.447266 0)"/>
     <use xlink:href="#ArialMT-31" transform="translate(311.230469 0)"/>
     <use xlink:href="#ArialMT-3a" transform="translate(366.845703 0)"/>
     <use xlink:href="#ArialMT-20" transform="translate(394.628906 0)"/>
     <use xlink:href="#ArialMT-4c" transform="translate(422.412109 0)"/>
     <use xlink:href="#ArialMT-61" transform="translate(478.027344 0)"/>
     <use xlink:href="#ArialMT-74" transform="translate(533.642578 0)"/>
     <use xlink:href="#ArialMT-65" transform="translate(561.425781 0)"/>
     <use xlink:href="#ArialMT-6e" transform="translate(617.041016 0)"/>
     <use xlink:href="#ArialMT-63" transform="translate(672.65625 0)"/>
     <use xlink:href="#ArialMT-79" transform="translate(722.65625 0)"/>
     <use xlink:href="#ArialMT-20" transform="translate(772.65625 0)"/>
     <use xlink:href="#ArialMT-43" transform="translate(800.439453 0)"/>
     <use xlink:href="#ArialMT-6f" transform="translate(872.65625 0)"/>
     <use xlink:href="#ArialMT-6d" transform="translate(928.271484 0)"/>
     <use xlink:href="#ArialMT-70" transform="translate(1011.572266 0)"/>
     <use xlink:href="#ArialMT-61" transform="translate(1067.1875 0)"/>
     <use xlink:href="#ArialMT-72" transform="translate(1122.802734 0)"/>
     <use xlink:href="#ArialMT-69" transform="translate(1156.103516 0)"/>
     <use xlink:href="#ArialMT-73" transform="translate(1178.320312 0)"/>
     <use xlink:href="#ArialMT-6f" transform="translate(1228.320312 0)"/>
     <use xlink:href="#ArialMT-6e" transform="translate(1283.935547 0)"/>
     <use xlink:href="#ArialMT-20" transform="translate(1339.550781 0)"/>
     <use xlink:href="#ArialMT-2d" transform="translate(1367.333984 0)"/>
     <use xlink:href="#ArialMT-20" transform="translate(1400.634766 0)"/>
     <use xlink:href="#ArialMT-4e" transform="translate(1428.417969 0)"/>
     <use xlink:href="#ArialMT-50" transform="translate(1500.634766 0)"/>
     <use xlink:href="#ArialMT-55" transform="translate(1567.333984 0)"/>
     <use xlink:href="#ArialMT-20" transform="translate(1639.550781 0)"/>
     <use xlink:href="#ArialMT-76" transform="translate(1667.333984 0)"/>
     <use xlink:href="#ArialMT-73" transform="translate(1717.333984 0)"/>
     <use xlink:href="#ArialMT-20" transform="translate(1767.333984 0)"/>
     <use xlink:href="#ArialMT-47" transform="translate(1795.117188 0)"/>
     <use xlink:href="#ArialMT-50" transform="translate(1872.900391 0)"/>
     <use xlink:href="#ArialMT-55" transform="translate(1939.599609 0)"/>
     <use xlink:href="#ArialMT-20" transform="translate(2011.816406 0)"/>
     <use xlink:href="#ArialMT-76" transform="translate(2039.599609 0)"/>
     <use xlink:href="#ArialMT-73" transform="translate(2089.599609 0)"/>
     <use xlink:href="#ArialMT-20" transform="translate(2139.599609 0)"/>
     <use xlink:href="#ArialMT-43" transform="translate(2167.382812 0)"/>
     <use xlink:href="#ArialMT-50" transform="translate(2239.599609 0)"/>
     <use xlink:href="#ArialMT-55" transform="translate(2306.298828 0)"/>
     <use xlink:href="#ArialMT-20" transform="translate(2378.515625 0)"/>
     <use xlink:href="#ArialMT-28" transform="translate(2406.298828 0)"/>
     <use xlink:href="#ArialMT-46" transform="translate(2439.599609 0)"/>
     <use xlink:href="#ArialMT-50" transform="translate(2500.683594 0)"/>
     <use xlink:href="#ArialMT-33" transform="translate(2567.382812 0)"/>
     <use xlink:href="#ArialMT-32" transform="translate(2622.998047 0)"/>
     <use xlink:href="#ArialMT-29" transform="translate(2678.613281 0)"/>
    </g>
   </g>
   <g id="legend_1">
    <g id="patch_43">
     <path d="M 58.012344 77.415156 
L 117.049687 77.415156 
Q 119.249687 77.415156 119.249687 75.215156 
L 119.249687 29.635625 
Q 119.249687 27.435625 117.049687 27.435625 
L 58.012344 27.435625 
Q 55.812344 27.435625 55.812344 29.635625 
L 55.812344 75.215156 
Q 55.812344 77.415156 58.012344 77.415156 
z
" style="fill: #ffffff; opacity: 0.8; stroke: #cccccc; stroke-linejoin: miter"/>
    </g>
    <g id="patch_44">
     <path d="M 60.212344 39.709219 
L 82.212344 39.709219 
L 82.212344 32.009219 
L 60.212344 32.009219 
z
" style="fill: #0072b2; stroke: #ffffff; stroke-linejoin: miter"/>
    </g>
    <g id="text_21">
     <!-- NPU -->
     <g style="fill: #262626" transform="translate(91.012344 39.709219) scale(0.11 -0.11)">
      <use xlink:href="#ArialMT-4e"/>
      <use xlink:href="#ArialMT-50" transform="translate(72.216797 0)"/>
      <use xlink:href="#ArialMT-55" transform="translate(138.916016 0)"/>
     </g>
    </g>
    <g id="patch_45">
     <path d="M 60.212344 55.269063 
L 82.212344 55.269063 
L 82.212344 47.569063 
L 60.212344 47.569063 
z
" style="fill: #e69f00; stroke: #ffffff; stroke-linejoin: miter"/>
    </g>
    <g id="text_22">
     <!-- GPU -->
     <g style="fill: #262626" transform="translate(91.012344 55.269063) scale(0.11 -0.11)">
      <use xlink:href="#ArialMT-47"/>
      <use xlink:href="#ArialMT-50" transform="translate(77.783203 0)"/>
      <use xlink:href="#ArialMT-55" transform="translate(144.482422 0)"/>
     </g>
    </g>
    <g id="patch_46">
     <path d="M 60.212344 70.828906 
L 82.212344 70.828906 
L 82.212344 63.128906 
L 60.212344 63.128906 
z
" style="fill: #009e73; stroke: #ffffff; stroke-linejoin: miter"/>
    </g>
    <g id="text_23">
     <!-- CPU -->
     <g style="fill: #262626" transform="translate(91.012344 70.828906) scale(0.11 -0.11)">
      <use xlink:href="#ArialMT-43"/>
      <use xlink:href="#ArialMT-50" transform="translate(72.216797 0)"/>
      <use xlink:href="#ArialMT-55" transform="translate(138.916016 0)"/>
     </g>
    </g>
   </g>
  </g>
 </g>
 <defs>
  <clipPath id="p637226fe1e">
   <rect x="50.312344" y="21.935625" width="651.36375" height="167.052864"/>
  </clipPath>
 </defs>
</svg>
