<?xml version="1.0" encoding="utf-8" standalone="no"?>
<!DOCTYPE svg PUBLIC "-//W3C//DTD SVG 1.1//EN"
  "http://www.w3.org/Graphics/SVG/1.1/DTD/svg11.dtd">
<svg xmlns:xlink="http://www.w3.org/1999/xlink" width="252pt" height="198pt" viewBox="0 0 252 198" xmlns="http://www.w3.org/2000/svg" version="1.1">
 <metadata>
  <rdf:RDF xmlns:dc="http://purl.org/dc/elements/1.1/" xmlns:cc="http://creativecommons.org/ns#" xmlns:rdf="http://www.w3.org/1999/02/22-rdf-syntax-ns#">
   <cc:Work>
    <dc:type rdf:resource="http://purl.org/dc/dcmitype/StillImage"/>
    <dc:format>image/svg+xml</dc:format>
    <dc:creator>
     <cc:Agent>
      <dc:title>generate_ieee_paper_figures.py</dc:title>
     </cc:Agent>
    </dc:creator>
   </cc:Work>
  </rdf:RDF>
 </metadata>
 <defs>
  <style type="text/css">*{stroke-linejoin: round; stroke-linecap: butt}</style>
 </defs>
 <g id="figure_1">
  <g id="patch_1">
   <path d="M 0 198
L 252 198
L 252 0
L 0 0
z
" style="fill: #ffffff"/>
  </g>
  <g id="axes_1">
   <g id="patch_2">
    <path d="M 47.88 158.4
L 246.96 158.4
L 246.96 5.94
L 47.88 5.94
z
" style="fill: #ffffff"/>
   </g>
   <g id="matplotlib.axis_1">
    <g id="xtick_1">
     <g id="line2d_1">
      <defs>
       <path id="m5322cc1f83" d="M 0 0
L 0 2.5
" style="stroke: #000000; stroke-width: 0.7"/>
      </defs>
      <g>
       <use xlink:href="#m5322cc1f83" x="54.127216" y="158.4" style="stroke: #000000; stroke-width: 0.7"/>
      </g>
     </g>
     <g id="text_1">
      <text style="font-size: 8px; font-family: 'Arial', 'DejaVu Sans', sans-serif; text-anchor: middle" x="54.127216" y="168.224219" transform="rotate(-0 54.127216 168.224219)">0</text>
     </g>
    </g>
    <g id="xtick_2">
     <g id="line2d_2">
      <g>
       <use xlink:href="#m5322cc1f83" x="94.811531" y="158.4" style="stroke: #000000; stroke-width: 0.7"/>
      </g>
     </g>
     <g id="text_2">
      <text style="font-size: 8px; font-family: 'Arial', 'DejaVu Sans', sans-serif; text-anchor: middle" x="94.811531" y="168.224219" transform="rotate(-0 94.811531 168.224219)">100</text>
     </g>
    </g>
    <g id="xtick_3">
     <g id="line2d_3">
      <g>
       <use xlink:href="#m5322cc1f83" x="135.495846" y="158.4" style="stroke: #000000; stroke-width: 0.7"/>
      </g>
     </g>
     <g id="text_3">
      <text style="font-size: 8px; font-family: 'Arial', 'DejaVu Sans', sans-serif; text-anchor: middle" x="135.495846" y="168.224219" transform="rotate(-0 135.495846 168.224219)">200</text>
     </g>
    </g>
    <g id="xtick_4">
     <g id="line2d_4">
      <g>
       <use xlink:href="#m5322cc1f83" x="176.180162" y="158.4" style="stroke: #000000; stroke-width: 0.7"/>
      </g>
     </g>
     <g id="text_4">
      <text style="font-size: 8px; font-family: 'Arial', 'DejaVu Sans', sans-serif; text-anchor: middle" x="176.180162" y="168.224219" transform="rotate(-0 176.180162 168.224219)">300</text>
     </g>
    </g>
    <g id="xtick_5">
     <g id="line2d_5">
      <g>
       <use xlink:href="#m5322cc1f83" x="216.864477" y="158.4" style="stroke: #000000; stroke-width: 0.7"/>
      </g>
     </g>
     <g id="text_5">
      <text style="font-size: 8px; font-family: 'Arial', 'DejaVu Sans', sans-serif; text-anchor: middle" x="216.864477" y="168.224219" transform="rotate(-0 216.864477 168.224219)">400</text>
     </g>
    </g>
    <g id="text_6">
     <text style="font-size: 8.5px; font-family: 'Arial', 'DejaVu Sans', sans-serif; text-anchor: middle" x="147.42" y="180.096045" transform="rotate(-0 147.42 180.096045)">Edges per node (graph density)</text>
    </g>
   </g>
   <g id="matplotlib.axis_2">
    <g id="ytick_1">
     <g id="line2d_6">
      <path d="M 47.88 154.806474
L 246.96 154.806474
" clip-path="url(#p12cd9d15b3)" style="fill: none; stroke-dasharray: 1.48,0.64; stroke-dashoffset: 0; stroke: #b8b8b8; stroke-opacity: 0.35; stroke-width: 0.4"/>
     </g>
     <g id="line2d_7">
      <defs>
       <path id="m4a3032c1a7" d="M 0 0
L -2.5 0
" style="stroke: #000000; stroke-width: 0.7"/>
      </defs>
      <g>
       <use xlink:href="#m4a3032c1a7" x="47.88" y="154.806474" style="stroke: #000000; stroke-width: 0.7"/>
      </g>
     </g>
     <g id="text_7">
      <text style="font-size: 8px; font-family: 'Arial', 'DejaVu Sans', sans-serif; text-anchor: end" x="43.88" y="157.718583" transform="rotate(-0 43.88 157.718583)">0</text>
     </g>
    </g>
    <g id="ytick_2">
     <g id="line2d_8">
      <path d="M 47.88 137.112917
L 246.96 137.112917
" clip-path="url(#p12cd9d15b3)" style="fill: none; stroke-dasharray: 1.48,0.64; stroke-dashoffset: 0; stroke: #b8b8b8; stroke-opacity: 0.35; stroke-width: 0.4"/>
     </g>
     <g id="line2d_9">
      <g>
       <use xlink:href="#m4a3032c1a7" x="47.88" y="137.112917" style="stroke: #000000; stroke-width: 0.7"/>
      </g>
     </g>
     <g id="text_8">
      <text style="font-size: 8px; font-family: 'Arial', 'DejaVu Sans', sans-serif; text-anchor: end" x="43.88" y="140.025027" transform="rotate(-0 43.88 140.025027)">10</text>
     </g>
    </g>
    <g id="ytick_3">
     <g id="line2d_10">
      <path d="M 47.88 119.41936
L 246.96 119.41936
" clip-path="url(#p12cd9d15b3)" style="fill: none; stroke-dasharray: 1.48,0.64; stroke-dashoffset: 0; stroke: #b8b8b8; stroke-opacity: 0.35; stroke-width: 0.4"/>
     </g>
     <g id="line2d_11">
      <g>
       <use xlink:href="#m4a3032c1a7" x="47.88" y="119.41936" style="stroke: #000000; stroke-width: 0.7"/>
      </g>
     </g>
     <g id="text_9">
      <text style="font-size: 8px; font-family: 'Arial', 'DejaVu Sans', sans-serif; text-anchor: end" x="43.88" y="122.33147" transform="rotate(-0 43.88 122.33147)">20</text>
     </g>
    </g>
    <g id="ytick_4">
     <g id="line2d_12">
      <path d="M 47.88 101.725804
L 246.96 101.725804
" clip-path="url(#p12cd9d15b3)" style="fill: none; stroke-dasharray: 1.48,0.64; stroke-dashoffset: 0; stroke: #b8b8b8; stroke-opacity: 0.35; stroke-width: 0.4"/>
     </g>
     <g id="line2d_13">
      <g>
       <use xlink:href="#m4a3032c1a7" x="47.88" y="101.725804" style="stroke: #000000; stroke-width: 0.7"/>
      </g>
     </g>
     <g id="text_10">
      <text style="font-size: 8px; font-family: 'Arial', 'DejaVu Sans', sans-serif; text-anchor: end" x="43.88" y="104.637913" transform="rotate(-0 43.88 104.637913)">30</text>
     </g>
    </g>
    <g id="ytick_5">
     <g id="line2d_14">
      <path d="M 47.88 84.032247
L 246.96 84.032247
" clip-path="url(#p12cd9d15b3)" style="fill: none; stroke-dasharray: 1.48,0.64; stroke-dashoffset: 0; stroke: #b8b8b8; stroke-opacity: 0.35; stroke-width: 0.4"/>
     </g>
     <g id="line2d_15">
      <g>
       <use xlink:href="#m4a3032c1a7" x="47.88" y="84.032247" style="stroke: #000000; stroke-width: 0.7"/>
      </g>
     </g>
     <g id="text_11">
      <text style="font-size: 8px; font-family: 'Arial', 'DejaVu Sans', sans-serif; text-anchor: end" x="43.88" y="86.944356" transform="rotate(-0 43.88 86.944356)">40</text>
     </g>
    </g>
    <g id="ytick_6">
     <g id="line2d_16">
      <path d="M 47.88 66.33869
L 246.96 66.33869
" clip-path="url(#p12cd9d15b3)" style="fill: none; stroke-dasharray: 1.48,0.64; stroke-dashoffset: 0; stroke: #b8b8b8; stroke-opacity: 0.35; stroke-width: 0.4"/>
     </g>
     <g id="line2d_17">
      <g>
       <use xlink:href="#m4a3032c1a7" x="47.88" y="66.33869" style="stroke: #000000; stroke-width: 0.7"/>
      </g>
     </g>
     <g id="text_12">
      <text style="font-size: 8px; font-family: 'Arial', 'DejaVu Sans', sans-serif; text-anchor: end" x="43.88" y="69.250799" transform="rotate(-0 43.88 69.250799)">50</text>
     </g>
    </g>
    <g id="ytick_7">
     <g id="line2d_18">
      <path d="M 47.88 48.645133
L 246.96 48.645133
" clip-path="url(#p12cd9d15b3)" style="fill: none; stroke-dasharray: 1.48,0.64; stroke-dashoffset: 0; stroke: #b8b8b8; stroke-opacity: 0.35; stroke-width: 0.4"/>
     </g>
     <g id="line2d_19">
      <g>
       <use xlink:href="#m4a3032c1a7" x="47.88" y="48.645133" style="stroke: #000000; stroke-width: 0.7"/>
      </g>
     </g>
     <g id="text_13">
      <text style="font-size: 8px; font-family: 'Arial', 'DejaVu Sans', sans-serif; text-anchor: end" x="43.88" y="51.557243" transform="rotate(-0 43.88 51.557243)">60</text>
     </g>
    </g>
    <g id="ytick_8">
     <g id="line2d_20">
      <path d="M 47.88 30.951576
L 246.96 30.951576
" clip-path="url(#p12cd9d15b3)" style="fill: none; stroke-dasharray: 1.48,0.64; stroke-dashoffset: 0; stroke: #b8b8b8; stroke-opacity: 0.35; stroke-width: 0.4"/>
     </g>
     <g id="line2d_21">
      <g>
       <use xlink:href="#m4a3032c1a7" x="47.88" y="30.951576" style="stroke: #000000; stroke-width: 0.7"/>
      </g>
     </g>
     <g id="text_14">
      <text style="font-size: 8px; font-family: 'Arial', 'DejaVu Sans', sans-serif; text-anchor: end" x="43.88" y="33.863686" transform="rotate(-0 43.88 33.863686)">70</text>
     </g>
    </g>
    <g id="ytick_9">
     <g id="line2d_22">
      <path d="M 47.88 13.25802
L 246.96 13.25802
" clip-path="url(#p12cd9d15b3)" style="fill: none; stroke-dasharray: 1.48,0.64; stroke-dashoffset: 0; stroke: #b8b8b8; stroke-opacity: 0.35; stroke-width: 0.4"/>
     </g>
     <g id="line2d_23">
      <g>
       <use xlink:href="#m4a3032c1a7" x="47.88" y="13.25802" style="stroke: #000000; stroke-width: 0.7"/>
      </g>
     </g>
     <g id="text_15">
      <text style="font-size: 8px; font-family: 'Arial', 'DejaVu Sans', sans-serif; text-anchor: end" x="43.88" y="16.170129" transform="rotate(-0 43.88 16.170129)">80</text>
     </g>
    </g>
    <g id="text_16">
     <text style="font-size: 8.5px; font-family: 'Arial', 'DejaVu Sans', sans-serif; text-anchor: middle" x="29.193516" y="82.17" transform="rotate(-90 29.193516 82.17)">NPU latency (ms)</text>
    </g>
   </g>
   <g id="PathCollection_1">
    <defs>
     <path id="mec700f4c9d" d="M 0 2.345208
C 0.621956 2.345208 1.218523 2.098102 1.658312 1.658312
C 2.098102 1.218523 2.345208 0.621956 2.345208 0
C 2.345208 -0.621956 2.098102 -1.218523 1.658312 -1.658312
C 1.218523 -2.098102 0.621956 -2.345208 0 -2.345208
C -0.621956 -2.345208 -1.218523 -2.098102 -1.658312 -1.658312
C -2.098102 -1.218523 -2.345208 -0.621956 -2.345208 0
C -2.345208 0.621956 -2.098102 1.218523 -1.658312 1.658312
C -1.218523 2.098102 -0.621956 2.345208 0 2.345208
z
"/>
    </defs>
    <g clip-path="url(#p12cd9d15b3)">
     <use xlink:href="#mec700f4c9d" x="56.929091" y="135.439107" style="fill: #0072b2; fill-opacity: 0.82"/>
     <use xlink:href="#mec700f4c9d" x="56.929091" y="137.108671" style="fill: #0072b2; fill-opacity: 0.82"/>
     <use xlink:href="#mec700f4c9d" x="56.929091" y="131.472565" style="fill: #0072b2; fill-opacity: 0.82"/>
     <use xlink:href="#mec700f4c9d" x="56.929091" y="141.262764" style="fill: #0072b2; fill-opacity: 0.82"/>
     <use xlink:href="#mec700f4c9d" x="56.929091" y="79.028509" style="fill: #0072b2; fill-opacity: 0.82"/>
     <use xlink:href="#mec700f4c9d" x="56.929091" y="73.169818" style="fill: #0072b2; fill-opacity: 0.82"/>
     <use xlink:href="#mec700f4c9d" x="56.929091" y="136.202938" style="fill: #0072b2; fill-opacity: 0.82"/>
     <use xlink:href="#mec700f4c9d" x="56.929091" y="12.87" style="fill: #0072b2; fill-opacity: 0.82"/>
     <use xlink:href="#mec700f4c9d" x="56.929091" y="145.201173" style="fill: #0072b2; fill-opacity: 0.82"/>
     <use xlink:href="#mec700f4c9d" x="56.929091" y="145.914046" style="fill: #0072b2; fill-opacity: 0.82"/>
     <use xlink:href="#mec700f4c9d" x="56.929091" y="151.450714" style="fill: #0072b2; fill-opacity: 0.82"/>
     <use xlink:href="#mec700f4c9d" x="56.929091" y="147.874492" style="fill: #0072b2; fill-opacity: 0.82"/>
     <use xlink:href="#mec700f4c9d" x="56.929091" y="138.714184" style="fill: #0072b2; fill-opacity: 0.82"/>
    </g>
   </g>
   <g id="PathCollection_2">
    <defs>
     <path id="med6f8c9fb0" d="M 0 2.345208
C 0.621956 2.345208 1.218523 2.098102 1.658312 1.658312
C 2.098102 1.218523 2.345208 0.621956 2.345208 0
C 2.345208 -0.621956 2.098102 -1.218523 1.658312 -1.658312
C 1.218523 -2.098102 0.621956 -2.345208 0 -2.345208
C -0.621956 -2.345208 -1.218523 -2.098102 -1.658312 -1.658312
C -2.098102 -1.218523 -2.345208 -0.621956 -2.345208 0
C -2.345208 0.621956 -2.098102 1.218523 -1.658312 1.658312
C -1.218523 2.098102 -0.621956 2.345208 0 2.345208
z
"/>
    </defs>
    <g clip-path="url(#p12cd9d15b3)">
     <use xlink:href="#med6f8c9fb0" x="64.40352" y="134.048393" style="fill: #e69f00; fill-opacity: 0.82"/>
     <use xlink:href="#med6f8c9fb0" x="64.40352" y="136.419153" style="fill: #e69f00; fill-opacity: 0.82"/>
     <use xlink:href="#med6f8c9fb0" x="64.40352" y="131.340748" style="fill: #e69f00; fill-opacity: 0.82"/>
     <use xlink:href="#med6f8c9fb0" x="64.40352" y="140.616595" style="fill: #e69f00; fill-opacity: 0.82"/>
     <use xlink:href="#med6f8c9fb0" x="64.40352" y="84.87446" style="fill: #e69f00; fill-opacity: 0.82"/>
     <use xlink:href="#med6f8c9fb0" x="64.40352" y="78.505134" style="fill: #e69f00; fill-opacity: 0.82"/>
     <use xlink:href="#med6f8c9fb0" x="64.40352" y="136.04688" style="fill: #e69f00; fill-opacity: 0.82"/>
     <use xlink:href="#med6f8c9fb0" x="64.40352" y="18.310592" style="fill: #e69f00; fill-opacity: 0.82"/>
     <use xlink:href="#med6f8c9fb0" x="64.40352" y="145.040338" style="fill: #e69f00; fill-opacity: 0.82"/>
     <use xlink:href="#med6f8c9fb0" x="64.40352" y="144.729463" style="fill: #e69f00; fill-opacity: 0.82"/>
     <use xlink:href="#med6f8c9fb0" x="64.40352" y="151.47" style="fill: #e69f00; fill-opacity: 0.82"/>
     <use xlink:href="#med6f8c9fb0" x="64.40352" y="147.784609" style="fill: #e69f00; fill-opacity: 0.82"/>
     <use xlink:href="#med6f8c9fb0" x="64.40352" y="138.698437" style="fill: #e69f00; fill-opacity: 0.82"/>
    </g>
   </g>
   <g id="PathCollection_3">
    <defs>
     <path id="mdaf5d35c72" d="M 0 2.345208
C 0.621956 2.345208 1.218523 2.098102 1.658312 1.658312
C 2.098102 1.218523 2.345208 0.621956 2.345208 0
C 2.345208 -0.621956 2.098102 -1.218523 1.658312 -1.658312
C 1.218523 -2.098102 0.621956 -2.345208 0 -2.345208
C -0.621956 -2.345208 -1.218523 -2.098102 -1.658312 -1.658312
C -2.098102 -1.218523 -2.345208 -0.621956 -2.345208 0
C -2.345208 0.621956 -2.098102 1.218523 -1.658312 1.658312
C -1.218523 2.098102 -0.621956 2.345208 0 2.345208
z
"/>
    </defs>
    <g clip-path="url(#p12cd9d15b3)">
     <use xlink:href="#mdaf5d35c72" x="237.910909" y="132.563373" style="fill: #009e73; fill-opacity: 0.82"/>
     <use xlink:href="#mdaf5d35c72" x="237.910909" y="136.135171" style="fill: #009e73; fill-opacity: 0.82"/>
     <use xlink:href="#mdaf5d35c72" x="237.910909" y="131.623845" style="fill: #009e73; fill-opacity: 0.82"/>
     <use xlink:href="#mdaf5d35c72" x="237.910909" y="140.546706" style="fill: #009e73; fill-opacity: 0.82"/>
     <use xlink:href="#mdaf5d35c72" x="237.910909" y="79.291081" style="fill: #009e73; fill-opacity: 0.82"/>
     <use xlink:href="#mdaf5d35c72" x="237.910909" y="72.760743" style="fill: #009e73; fill-opacity: 0.82"/>
     <use xlink:href="#mdaf5d35c72" x="237.910909" y="135.243062" style="fill: #009e73; fill-opacity: 0.82"/>
     <use xlink:href="#mdaf5d35c72" x="237.910909" y="16.07678" style="fill: #009e73; fill-opacity: 0.82"/>
     <use xlink:href="#mdaf5d35c72" x="237.910909" y="144.650726" style="fill: #009e73; fill-opacity: 0.82"/>
     <use xlink:href="#mdaf5d35c72" x="237.910909" y="147.755415" style="fill: #009e73; fill-opacity: 0.82"/>
     <use xlink:href="#mdaf5d35c72" x="237.910909" y="151.398341" style="fill: #009e73; fill-opacity: 0.82"/>
     <use xlink:href="#mdaf5d35c72" x="237.910909" y="147.859453" style="fill: #009e73; fill-opacity: 0.82"/>
     <use xlink:href="#mdaf5d35c72" x="237.910909" y="138.728516" style="fill: #009e73; fill-opacity: 0.82"/>
    </g>
   </g>
   <g id="FillBetweenPolyCollection_1">
    <defs>
     <path id="m9370c53668" d="M 56.929091 -91.780721
L 56.929091 -60.864163
L 57.838547 -60.94721
L 58.748004 -61.029497
L 59.65746 -61.111014
L 60.566916 -61.191748
L 61.476373 -61.271686
L 62.385829 -61.350817
L 63.295286 -61.429128
L 64.204742 -61.506607
L 65.114198 -61.58324
L 66.023655 -61.659016
L 66.933111 -61.733921
L 67.842567 -61.807943
L 68.752024 -61.881067
L 69.66148 -61.953282
L 70.570937 -62.024574
L 71.480393 -62.094929
L 72.389849 -62.164334
L 73.299306 -62.232776
L 74.208762 -62.300242
L 75.118218 -62.366717
L 76.027675 -62.432188
L 76.937131 -62.496641
L 77.846587 -62.560063
L 78.756044 -62.622441
L 79.6655 -62.68376
L 80.574957 -62.744006
L 81.484413 -62.803167
L 82.393869 -62.861229
L 83.303326 -62.918177
L 84.212782 -62.974
L 85.122238 -63.028682
L 86.031695 -63.082211
L 86.941151 -63.134574
L 87.850608 -63.185757
L 88.760064 -63.235747
L 89.66952 -63.284532
L 90.578977 -63.332099
L 91.488433 -63.378435
L 92.397889 -63.423527
L 93.307346 -63.467365
L 94.216802 -63.509934
L 95.126259 -63.551225
L 96.035715 -63.591225
L 96.945171 -63.629922
L 97.854628 -63.667307
L 98.764084 -63.703368
L 99.67354 -63.738095
L 100.582997 -63.771477
L 101.492453 -63.803506
L 102.40191 -63.83417
L 103.311366 -63.863462
L 104.220822 -63.891373
L 105.130279 -63.917894
L 106.039735 -63.943018
L 106.949191 -63.966736
L 107.858648 -63.989042
L 108.768104 -64.009928
L 109.677561 -64.02939
L 110.587017 -64.047421
L 111.496473 -64.064015
L 112.40593 -64.079169
L 113.315386 -64.092877
L 114.224842 -64.105135
L 115.134299 -64.115941
L 116.043755 -64.125291
L 116.953212 -64.133184
L 117.862668 -64.139616
L 118.772124 -64.144588
L 119.681581 -64.148097
L 120.591037 -64.150145
L 121.500493 -64.15073
L 122.40995 -64.149854
L 123.319406 -64.147518
L 124.228862 -64.143724
L 125.138319 -64.138474
L 126.047775 -64.131771
L 126.957232 -64.123618
L 127.866688 -64.114019
L 128.776144 -64.102978
L 129.685601 -64.0905
L 130.595057 -64.07659
L 131.504513 -64.061254
L 132.41397 -64.044499
L 133.323426 -64.02633
L 134.232883 -64.006755
L 135.142339 -63.985781
L 136.051795 -63.963416
L 136.961252 -63.939668
L 137.870708 -63.914547
L 138.780164 -63.888061
L 139.689621 -63.860219
L 140.599077 -63.831031
L 141.508534 -63.800508
L 142.41799 -63.768659
L 143.327446 -63.735496
L 144.236903 -63.701029
L 145.146359 -63.66527
L 146.055815 -63.62823
L 146.965272 -63.58992
L 147.874728 -63.550354
L 148.784185 -63.509542
L 149.693641 -63.467498
L 150.603097 -63.424233
L 151.512554 -63.379762
L 152.42201 -63.334095
L 153.331466 -63.287248
L 154.240923 -63.239231
L 155.150379 -63.19006
L 156.059836 -63.139747
L 156.969292 -63.088306
L 157.878748 -63.035749
L 158.788205 -62.982092
L 159.697661 -62.927346
L 160.607117 -62.871527
L 161.516574 -62.814646
L 162.42603 -62.75672
L 163.335487 -62.697759
L 164.244943 -62.63778
L 165.154399 -62.576794
L 166.063856 -62.514816
L 166.973312 -62.451859
L 167.882768 -62.387937
L 168.792225 -62.323064
L 169.701681 -62.257251
L 170.611138 -62.190514
L 171.520594 -62.122865
L 172.43005 -62.054317
L 173.339507 -61.984884
L 174.248963 -61.914578
L 175.158419 -61.843413
L 176.067876 -61.7714
L 176.977332 -61.698554
L 177.886788 -61.624885
L 178.796245 -61.550407
L 179.705701 -61.475133
L 180.615158 -61.399073
L 181.524614 -61.322241
L 182.43407 -61.244649
L 183.343527 -61.166307
L 184.252983 -61.087228
L 185.162439 -61.007423
L 186.071896 -60.926904
L 186.981352 -60.845681
L 187.890809 -60.763767
L 188.800265 -60.681171
L 189.709721 -60.597906
L 190.619178 -60.51398
L 191.528634 -60.429406
L 192.43809 -60.344192
L 193.347547 -60.258351
L 194.257003 -60.171891
L 195.16646 -60.084822
L 196.075916 -59.997155
L 196.985372 -59.908898
L 197.894829 -59.820063
L 198.804285 -59.730657
L 199.713741 -59.640689
L 200.623198 -59.550171
L 201.532654 -59.459109
L 202.442111 -59.367512
L 203.351567 -59.275391
L 204.261023 -59.182752
L 205.17048 -59.089605
L 206.079936 -58.995957
L 206.989392 -58.901817
L 207.898849 -58.807192
L 208.808305 -58.712091
L 209.717762 -58.616521
L 210.627218 -58.520489
L 211.536674 -58.424004
L 212.446131 -58.327072
L 213.355587 -58.229701
L 214.265043 -58.131898
L 215.1745 -58.033669
L 216.083956 -57.935022
L 216.993413 -57.835963
L 217.902869 -57.736499
L 218.812325 -57.636636
L 219.721782 -57.536381
L 220.631238 -57.43574
L 221.540694 -57.334718
L 222.450151 -57.233323
L 223.359607 -57.13156
L 224.269063 -57.029435
L 225.17852 -56.926953
L 226.087976 -56.82412
L 226.997433 -56.720943
L 227.906889 -56.617425
L 228.816345 -56.513573
L 229.725802 -56.409391
L 230.635258 -56.304886
L 231.544714 -56.200061
L 232.454171 -56.094922
L 233.363627 -55.989474
L 234.273084 -55.883721
L 235.18254 -55.777669
L 236.091996 -55.671322
L 237.001453 -55.564683
L 237.910909 -55.457759
L 237.910909 -98.250555
L 237.910909 -98.250555
L 237.001453 -98.138287
L 236.091996 -98.026305
L 235.18254 -97.914613
L 234.273084 -97.803217
L 233.363627 -97.69212
L 232.454171 -97.581328
L 231.544714 -97.470846
L 230.635258 -97.360677
L 229.725802 -97.250828
L 228.816345 -97.141302
L 227.906889 -97.032106
L 226.997433 -96.923245
L 226.087976 -96.814723
L 225.17852 -96.706547
L 224.269063 -96.598721
L 223.359607 -96.491252
L 222.450151 -96.384145
L 221.540694 -96.277406
L 220.631238 -96.171041
L 219.721782 -96.065056
L 218.812325 -95.959457
L 217.902869 -95.85425
L 216.993413 -95.749442
L 216.083956 -95.645039
L 215.1745 -95.541048
L 214.265043 -95.437475
L 213.355587 -95.334328
L 212.446131 -95.231613
L 211.536674 -95.129338
L 210.627218 -95.027508
L 209.717762 -94.926133
L 208.808305 -94.825219
L 207.898849 -94.724774
L 206.989392 -94.624806
L 206.079936 -94.525322
L 205.17048 -94.42633
L 204.261023 -94.327839
L 203.351567 -94.229856
L 202.442111 -94.13239
L 201.532654 -94.03545
L 200.623198 -93.939045
L 199.713741 -93.843182
L 198.804285 -93.747871
L 197.894829 -93.653121
L 196.985372 -93.558941
L 196.075916 -93.465341
L 195.16646 -93.37233
L 194.257003 -93.279917
L 193.347547 -93.188113
L 192.43809 -93.096928
L 191.528634 -93.006371
L 190.619178 -92.916452
L 189.709721 -92.827183
L 188.800265 -92.738574
L 187.890809 -92.650634
L 186.981352 -92.563376
L 186.071896 -92.47681
L 185.162439 -92.390946
L 184.252983 -92.305798
L 183.343527 -92.221375
L 182.43407 -92.137689
L 181.524614 -92.054753
L 180.615158 -91.972577
L 179.705701 -91.891173
L 178.796245 -91.810555
L 177.886788 -91.730733
L 176.977332 -91.651721
L 176.067876 -91.57353
L 175.158419 -91.496174
L 174.248963 -91.419665
L 173.339507 -91.344015
L 172.43005 -91.269238
L 171.520594 -91.195346
L 170.611138 -91.122353
L 169.701681 -91.050272
L 168.792225 -90.979116
L 167.882768 -90.908899
L 166.973312 -90.839633
L 166.063856 -90.771332
L 165.154399 -90.70401
L 164.244943 -90.637681
L 163.335487 -90.572357
L 162.42603 -90.508053
L 161.516574 -90.444782
L 160.607117 -90.382558
L 159.697661 -90.321395
L 158.788205 -90.261306
L 157.878748 -90.202304
L 156.969292 -90.144404
L 156.059836 -90.087618
L 155.150379 -90.031962
L 154.240923 -89.977446
L 153.331466 -89.924086
L 152.42201 -89.871895
L 151.512554 -89.820885
L 150.603097 -89.771069
L 149.693641 -89.722461
L 148.784185 -89.675073
L 147.874728 -89.628917
L 146.965272 -89.584007
L 146.055815 -89.540354
L 145.146359 -89.497969
L 144.236903 -89.456866
L 143.327446 -89.417055
L 142.41799 -89.378548
L 141.508534 -89.341356
L 140.599077 -89.305489
L 139.689621 -89.270957
L 138.780164 -89.237771
L 137.870708 -89.205941
L 136.961252 -89.175476
L 136.051795 -89.146385
L 135.142339 -89.118676
L 134.232883 -89.092358
L 133.323426 -89.067439
L 132.41397 -89.043926
L 131.504513 -89.021827
L 130.595057 -89.001147
L 129.685601 -88.981894
L 128.776144 -88.964072
L 127.866688 -88.947687
L 126.957232 -88.932744
L 126.047775 -88.919247
L 125.138319 -88.9072
L 124.228862 -88.896606
L 123.319406 -88.887468
L 122.40995 -88.879788
L 121.500493 -88.873569
L 120.591037 -88.86881
L 119.681581 -88.865514
L 118.772124 -88.863679
L 117.862668 -88.863307
L 116.953212 -88.864396
L 116.043755 -88.866944
L 115.134299 -88.870951
L 114.224842 -88.876413
L 113.315386 -88.883327
L 112.40593 -88.891691
L 111.496473 -88.901501
L 110.587017 -88.912751
L 109.677561 -88.925438
L 108.768104 -88.939556
L 107.858648 -88.955099
L 106.949191 -88.972061
L 106.039735 -88.990435
L 105.130279 -89.010215
L 104.220822 -89.031392
L 103.311366 -89.053959
L 102.40191 -89.077907
L 101.492453 -89.103228
L 100.582997 -89.129912
L 99.67354 -89.157951
L 98.764084 -89.187334
L 97.854628 -89.218051
L 96.945171 -89.250092
L 96.035715 -89.283446
L 95.126259 -89.318102
L 94.216802 -89.354048
L 93.307346 -89.391274
L 92.397889 -89.429767
L 91.488433 -89.469516
L 90.578977 -89.510508
L 89.66952 -89.552731
L 88.760064 -89.596172
L 87.850608 -89.640819
L 86.941151 -89.686658
L 86.031695 -89.733677
L 85.122238 -89.781862
L 84.212782 -89.8312
L 83.303326 -89.881679
L 82.393869 -89.933283
L 81.484413 -89.986001
L 80.574957 -90.039818
L 79.6655 -90.094721
L 78.756044 -90.150696
L 77.846587 -90.20773
L 76.937131 -90.265808
L 76.027675 -90.324917
L 75.118218 -90.385045
L 74.208762 -90.446176
L 73.299306 -90.508297
L 72.389849 -90.571395
L 71.480393 -90.635457
L 70.570937 -90.700468
L 69.66148 -90.766416
L 68.752024 -90.833287
L 67.842567 -90.901068
L 66.933111 -90.969745
L 66.023655 -91.039306
L 65.114198 -91.109738
L 64.204742 -91.181028
L 63.295286 -91.253163
L 62.385829 -91.32613
L 61.476373 -91.399917
L 60.566916 -91.474512
L 59.65746 -91.549902
L 58.748004 -91.626074
L 57.838547 -91.703018
L 56.929091 -91.780721
z
"/>
    </defs>
    <g clip-path="url(#p12cd9d15b3)">
     <use xlink:href="#m9370c53668" x="0" y="198" style="fill: #777777; fill-opacity: 0.2"/>
    </g>
   </g>
   <g id="line2d_24">
    <path d="M 56.929091 121.677558
L 237.910909 121.145843
L 237.910909 121.145843
" clip-path="url(#p12cd9d15b3)" style="fill: none; stroke: #222222; stroke-width: 1.1; stroke-linecap: square"/>
   </g>
   <g id="patch_3">
    <path d="M 47.88 158.4
L 47.88 5.94
" style="fill: none; stroke: #000000; stroke-width: 0.7; stroke-linejoin: miter; stroke-linecap: square"/>
   </g>
   <g id="patch_4">
    <path d="M 246.96 158.4
L 246.96 5.94
" style="fill: none; stroke: #000000; stroke-width: 0.7; stroke-linejoin: miter; stroke-linecap: square"/>
   </g>
   <g id="patch_5">
    <path d="M 47.88 158.4
L 246.96 158.4
" style="fill: none; stroke: #000000; stroke-width: 0.7; stroke-linejoin: miter; stroke-linecap: square"/>
   </g>
   <g id="patch_6">
    <path d="M 47.88 5.94
L 246.96 5.94
" style="fill: none; stroke: #000000; stroke-width: 0.7; stroke-linejoin: miter; stroke-linecap: square"/>
   </g>
   <g id="text_17">
    <text style="font-size: 8px; font-family: 'Arial', 'DejaVu Sans', sans-serif; text-anchor: middle" x="107.604" y="19.387219" transform="rotate(-0 107.604 19.387219)">r≈0</text>
   </g>
   <g id="legend_1">
    <g id="PathCollection_4">
     <g>
      <use xlink:href="#mec700f4c9d" x="63.116875" y="149.81625" style="fill: #0072b2; fill-opacity: 0.82"/>
     </g>
    </g>
    <g id="text_18">
     <text style="font-size: 8px; font-family: 'Arial', 'DejaVu Sans', sans-serif; text-anchor: start" x="68.716875" y="151.91625" transform="rotate(-0 68.716875 151.91625)">ogbn-arxiv</text>
    </g>
    <g id="PathCollection_5">
     <g>
      <use xlink:href="#med6f8c9fb0" x="114.865625" y="149.81625" style="fill: #e69f00; fill-opacity: 0.82"/>
     </g>
    </g>
    <g id="text_19">
     <text style="font-size: 8px; font-family: 'Arial', 'DejaVu Sans', sans-serif; text-anchor: start" x="120.465625" y="151.91625" transform="rotate(-0 120.465625 151.91625)">ogbn-products</text>
    </g>
    <g id="PathCollection_6">
     <g>
      <use xlink:href="#mdaf5d35c72" x="180.405625" y="149.81625" style="fill: #009e73; fill-opacity: 0.82"/>
     </g>
    </g>
    <g id="text_20">
     <text style="font-size: 8px; font-family: 'Arial', 'DejaVu Sans', sans-serif; text-anchor: start" x="186.005625" y="151.91625" transform="rotate(-0 186.005625 151.91625)">ogbn-proteins</text>
    </g>
   </g>
  </g>
 </g>
 <defs>
  <clipPath id="p12cd9d15b3">
   <rect x="47.88" y="5.94" width="199.08" height="152.46"/>
  </clipPath>
 </defs>
</svg>
