<?xml version="1.0" encoding="utf-8" standalone="no"?>
<!DOCTYPE svg PUBLIC "-//W3C//DTD SVG 1.1//EN"
  "http://www.w3.org/Graphics/SVG/1.1/DTD/svg11.dtd">
<svg xmlns:xlink="http://www.w3.org/1999/xlink" width="243.883467pt" height="145.162958pt" viewBox="0 0 243.883467 145.162958" xmlns="http://www.w3.org/2000/svg" version="1.1">
 <metadata>
  <rdf:RDF xmlns:dc="http://purl.org/dc/elements/1.1/" xmlns:cc="http://creativecommons.org/ns#" xmlns:rdf="http://www.w3.org/1999/02/22-rdf-syntax-ns#">
   <cc:Work>
    <dc:type rdf:resource="http://purl.org/dc/dcmitype/StillImage"/>
    <dc:format>image/svg+xml</dc:format>
    <dc:creator>
     <cc:Agent>
      <dc:title>generate_ieee_paper_figures.py</dc:title>
     </cc:Agent>
    </dc:creator>
   </cc:Work>
  </rdf:RDF>
 </metadata>
 <defs>
  <style type="text/css">*{stroke-linejoin: round; stroke-linecap: butt}</style>
 </defs>
 <g id="figure_1">
  <g id="patch_1">
   <path d="M 0 145.162958
L 243.883467 145.162958
L 243.883467 0
L 0 0
z
" style="fill: #ffffff"/>
  </g>
  <g id="axes_1">
   <g id="patch_2">
    <path d="M 30.763467 104.4
L 242.443467 104.4
L 242.443467 1.44
L 30.763467 1.44
z
" style="fill: #ffffff"/>
   </g>
   <g id="matplotlib.axis_1">
    <g id="xtick_1">
     <g id="line2d_1">
      <defs>
       <path id="m5322cc1f83" d="M 0 0
L 0 2.5
" style="stroke: #000000; stroke-width: 0.7"/>
      </defs>
      <g>
       <use xlink:href="#m5322cc1f83" x="45.831597" y="104.4" style="stroke: #000000; stroke-width: 0.7"/>
      </g>
     </g>
     <g id="text_1">
      <text style="font-size: 8px; font-family: 'Arial', 'DejaVu Sans', sans-serif; text-anchor: end" x="50.974077" y="111.134305" transform="rotate(-62 50.974077 111.134305)">APPNP</text>
     </g>
    </g>
    <g id="xtick_2">
     <g id="line2d_2">
      <g>
       <use xlink:href="#m5322cc1f83" x="60.960242" y="104.4" style="stroke: #000000; stroke-width: 0.7"/>
      </g>
     </g>
     <g id="text_2">
      <text style="font-size: 8px; font-family: 'Arial', 'DejaVu Sans', sans-serif; text-anchor: end" x="66.102722" y="111.134305" transform="rotate(-62 66.102722 111.134305)">GAT</text>
     </g>
    </g>
    <g id="xtick_3">
     <g id="line2d_3">
      <g>
       <use xlink:href="#m5322cc1f83" x="76.088887" y="104.4" style="stroke: #000000; stroke-width: 0.7"/>
      </g>
     </g>
     <g id="text_3">
      <text style="font-size: 8px; font-family: 'Arial', 'DejaVu Sans', sans-serif; text-anchor: end" x="81.231367" y="111.134305" transform="rotate(-62 81.231367 111.134305)">GATv2</text>
     </g>
    </g>
    <g id="xtick_4">
     <g id="line2d_4">
      <g>
       <use xlink:href="#m5322cc1f83" x="91.217532" y="104.4" style="stroke: #000000; stroke-width: 0.7"/>
      </g>
     </g>
     <g id="text_4">
      <text style="font-size: 8px; font-family: 'Arial', 'DejaVu Sans', sans-serif; text-anchor: end" x="96.360012" y="111.134305" transform="rotate(-62 96.360012 111.134305)">GCN</text>
     </g>
    </g>
    <g id="xtick_5">
     <g id="line2d_5">
      <g>
       <use xlink:href="#m5322cc1f83" x="106.346177" y="104.4" style="stroke: #000000; stroke-width: 0.7"/>
      </g>
     </g>
     <g id="text_5">
      <text style="font-size: 8px; font-family: 'Arial', 'DejaVu Sans', sans-serif; text-anchor: end" x="111.488657" y="111.134305" transform="rotate(-62 111.488657 111.134305)">GIN</text>
     </g>
    </g>
    <g id="xtick_6">
     <g id="line2d_6">
      <g>
       <use xlink:href="#m5322cc1f83" x="121.474822" y="104.4" style="stroke: #000000; stroke-width: 0.7"/>
      </g>
     </g>
     <g id="text_6">
      <text style="font-size: 8px; font-family: 'Arial', 'DejaVu Sans', sans-serif; text-anchor: end" x="126.617302" y="111.134305" transform="rotate(-62 126.617302 111.134305)">G-SAGE</text>
     </g>
    </g>
    <g id="xtick_7">
     <g id="line2d_7">
      <g>
       <use xlink:href="#m5322cc1f83" x="136.603467" y="104.4" style="stroke: #000000; stroke-width: 0.7"/>
      </g>
     </g>
     <g id="text_7">
      <text style="font-size: 8px; font-family: 'Arial', 'DejaVu Sans', sans-serif; text-anchor: end" x="141.745947" y="111.134305" transform="rotate(-62 141.745947 111.134305)">G-Trans</text>
     </g>
    </g>
    <g id="xtick_8">
     <g id="line2d_8">
      <g>
       <use xlink:href="#m5322cc1f83" x="151.732112" y="104.4" style="stroke: #000000; stroke-width: 0.7"/>
      </g>
     </g>
     <g id="text_8">
      <text style="font-size: 8px; font-family: 'Arial', 'DejaVu Sans', sans-serif; text-anchor: end" x="156.874592" y="111.134305" transform="rotate(-62 156.874592 111.134305)">SGC</text>
     </g>
    </g>
    <g id="xtick_9">
     <g id="line2d_9">
      <g>
       <use xlink:href="#m5322cc1f83" x="166.860757" y="104.4" style="stroke: #000000; stroke-width: 0.7"/>
      </g>
     </g>
     <g id="text_9">
      <text style="font-size: 8px; font-family: 'Arial', 'DejaVu Sans', sans-serif; text-anchor: end" x="172.003237" y="111.134305" transform="rotate(-62 172.003237 111.134305)">BERT-T</text>
     </g>
    </g>
    <g id="xtick_10">
     <g id="line2d_10">
      <g>
       <use xlink:href="#m5322cc1f83" x="181.989402" y="104.4" style="stroke: #000000; stroke-width: 0.7"/>
      </g>
     </g>
     <g id="text_10">
      <text style="font-size: 8px; font-family: 'Arial', 'DejaVu Sans', sans-serif; text-anchor: end" x="187.131882" y="111.134305" transform="rotate(-62 187.131882 111.134305)">EffNet</text>
     </g>
    </g>
    <g id="xtick_11">
     <g id="line2d_11">
      <g>
       <use xlink:href="#m5322cc1f83" x="197.118047" y="104.4" style="stroke: #000000; stroke-width: 0.7"/>
      </g>
     </g>
     <g id="text_11">
      <text style="font-size: 8px; font-family: 'Arial', 'DejaVu Sans', sans-serif; text-anchor: end" x="202.260526" y="111.134305" transform="rotate(-62 202.260526 111.134305)">MobileNet</text>
     </g>
    </g>
    <g id="xtick_12">
     <g id="line2d_12">
      <g>
       <use xlink:href="#m5322cc1f83" x="212.246691" y="104.4" style="stroke: #000000; stroke-width: 0.7"/>
      </g>
     </g>
     <g id="text_12">
      <text style="font-size: 8px; font-family: 'Arial', 'DejaVu Sans', sans-serif; text-anchor: end" x="217.389171" y="111.134305" transform="rotate(-62 217.389171 111.134305)">ResNet50</text>
     </g>
    </g>
    <g id="xtick_13">
     <g id="line2d_13">
      <g>
       <use xlink:href="#m5322cc1f83" x="227.375336" y="104.4" style="stroke: #000000; stroke-width: 0.7"/>
      </g>
     </g>
     <g id="text_13">
      <text style="font-size: 8px; font-family: 'Arial', 'DejaVu Sans', sans-serif; text-anchor: end" x="232.517816" y="111.134305" transform="rotate(-62 232.517816 111.134305)">ViT-T</text>
     </g>
    </g>
   </g>
   <g id="matplotlib.axis_2">
    <g id="ytick_1">
     <g id="line2d_14">
      <path d="M 30.763467 104.4
L 242.443467 104.4
" clip-path="url(#p06429f67d5)" style="fill: none; stroke-dasharray: 1.48,0.64; stroke-dashoffset: 0; stroke: #b8b8b8; stroke-opacity: 0.35; stroke-width: 0.4"/>
     </g>
     <g id="line2d_15">
      <defs>
       <path id="m4a3032c1a7" d="M 0 0
L -2.5 0
" style="stroke: #000000; stroke-width: 0.7"/>
      </defs>
      <g>
       <use xlink:href="#m4a3032c1a7" x="30.763467" y="104.4" style="stroke: #000000; stroke-width: 0.7"/>
      </g>
     </g>
     <g id="text_14">
      <text style="font-size: 8px; font-family: 'Arial', 'DejaVu Sans', sans-serif; text-anchor: end" x="26.763467" y="107.312109" transform="rotate(-0 26.763467 107.312109)">0</text>
     </g>
    </g>
    <g id="ytick_2">
     <g id="line2d_16">
      <path d="M 30.763467 83.019323
L 242.443467 83.019323
" clip-path="url(#p06429f67d5)" style="fill: none; stroke-dasharray: 1.48,0.64; stroke-dashoffset: 0; stroke: #b8b8b8; stroke-opacity: 0.35; stroke-width: 0.4"/>
     </g>
     <g id="line2d_17">
      <g>
       <use xlink:href="#m4a3032c1a7" x="30.763467" y="83.019323" style="stroke: #000000; stroke-width: 0.7"/>
      </g>
     </g>
     <g id="text_15">
      <text style="font-size: 8px; font-family: 'Arial', 'DejaVu Sans', sans-serif; text-anchor: end" x="26.763467" y="85.931433" transform="rotate(-0 26.763467 85.931433)">25</text>
     </g>
    </g>
    <g id="ytick_3">
     <g id="line2d_18">
      <path d="M 30.763467 61.638647
L 242.443467 61.638647
" clip-path="url(#p06429f67d5)" style="fill: none; stroke-dasharray: 1.48,0.64; stroke-dashoffset: 0; stroke: #b8b8b8; stroke-opacity: 0.35; stroke-width: 0.4"/>
     </g>
     <g id="line2d_19">
      <g>
       <use xlink:href="#m4a3032c1a7" x="30.763467" y="61.638647" style="stroke: #000000; stroke-width: 0.7"/>
      </g>
     </g>
     <g id="text_16">
      <text style="font-size: 8px; font-family: 'Arial', 'DejaVu Sans', sans-serif; text-anchor: end" x="26.763467" y="64.550756" transform="rotate(-0 26.763467 64.550756)">50</text>
     </g>
    </g>
    <g id="ytick_4">
     <g id="line2d_20">
      <path d="M 30.763467 40.25797
L 242.443467 40.25797
" clip-path="url(#p06429f67d5)" style="fill: none; stroke-dasharray: 1.48,0.64; stroke-dashoffset: 0; stroke: #b8b8b8; stroke-opacity: 0.35; stroke-width: 0.4"/>
     </g>
     <g id="line2d_21">
      <g>
       <use xlink:href="#m4a3032c1a7" x="30.763467" y="40.25797" style="stroke: #000000; stroke-width: 0.7"/>
      </g>
     </g>
     <g id="text_17">
      <text style="font-size: 8px; font-family: 'Arial', 'DejaVu Sans', sans-serif; text-anchor: end" x="26.763467" y="43.170079" transform="rotate(-0 26.763467 43.170079)">75</text>
     </g>
    </g>
    <g id="ytick_5">
     <g id="line2d_22">
      <path d="M 30.763467 18.877293
L 242.443467 18.877293
" clip-path="url(#p06429f67d5)" style="fill: none; stroke-dasharray: 1.48,0.64; stroke-dashoffset: 0; stroke: #b8b8b8; stroke-opacity: 0.35; stroke-width: 0.4"/>
     </g>
     <g id="line2d_23">
      <g>
       <use xlink:href="#m4a3032c1a7" x="30.763467" y="18.877293" style="stroke: #000000; stroke-width: 0.7"/>
      </g>
     </g>
     <g id="text_18">
      <text style="font-size: 8px; font-family: 'Arial', 'DejaVu Sans', sans-serif; text-anchor: end" x="26.763467" y="21.789402" transform="rotate(-0 26.763467 21.789402)">100</text>
     </g>
    </g>
    <g id="text_19">
     <text style="font-size: 8.5px; font-family: 'Arial', 'DejaVu Sans', sans-serif; text-anchor: middle" x="7.628232" y="52.92" transform="rotate(-90 7.628232 52.92)">Latency (ms)</text>
    </g>
   </g>
   <g id="patch_3">
    <path d="M 40.385285 104.4
L 44.01616 104.4
L 44.01616 94.351281
L 40.385285 94.351281
z
" clip-path="url(#p06429f67d5)" style="fill: #0072b2"/>
   </g>
   <g id="patch_4">
    <path d="M 55.51393 104.4
L 59.144805 104.4
L 59.144805 95.577734
L 55.51393 95.577734
z
" clip-path="url(#p06429f67d5)" style="fill: #0072b2"/>
   </g>
   <g id="patch_5">
    <path d="M 70.642575 104.4
L 74.27345 104.4
L 74.27345 93.124572
L 70.642575 93.124572
z
" clip-path="url(#p06429f67d5)" style="fill: #0072b2"/>
   </g>
   <g id="patch_6">
    <path d="M 85.77122 104.4
L 89.402095 104.4
L 89.402095 97.634099
L 85.77122 97.634099
z
" clip-path="url(#p06429f67d5)" style="fill: #0072b2"/>
   </g>
   <g id="patch_7">
    <path d="M 100.899865 104.4
L 104.53074 104.4
L 104.53074 68.75653
L 100.899865 68.75653
z
" clip-path="url(#p06429f67d5)" style="fill: #0072b2"/>
   </g>
   <g id="patch_8">
    <path d="M 116.02851 104.4
L 119.659384 104.4
L 119.659384 65.734215
L 116.02851 65.734215
z
" clip-path="url(#p06429f67d5)" style="fill: #0072b2"/>
   </g>
   <g id="patch_9">
    <path d="M 131.157155 104.4
L 134.788029 104.4
L 134.788029 95.228089
L 131.157155 95.228089
z
" clip-path="url(#p06429f67d5)" style="fill: #0072b2"/>
   </g>
   <g id="patch_10">
    <path d="M 146.2858 104.4
L 149.916674 104.4
L 149.916674 37.187534
L 146.2858 37.187534
z
" clip-path="url(#p06429f67d5)" style="fill: #0072b2"/>
   </g>
   <g id="patch_11">
    <path d="M 161.414444 104.4
L 165.045319 104.4
L 165.045319 99.642628
L 161.414444 99.642628
z
" clip-path="url(#p06429f67d5)" style="fill: #0072b2"/>
   </g>
   <g id="patch_12">
    <path d="M 176.543089 104.4
L 180.173964 104.4
L 180.173964 100.20762
L 176.543089 100.20762
z
" clip-path="url(#p06429f67d5)" style="fill: #0072b2"/>
   </g>
   <g id="patch_13">
    <path d="M 191.671734 104.4
L 195.302609 104.4
L 195.302609 102.772645
L 191.671734 102.772645
z
" clip-path="url(#p06429f67d5)" style="fill: #0072b2"/>
   </g>
   <g id="patch_14">
    <path d="M 206.800379 104.4
L 210.431254 104.4
L 210.431254 101.032486
L 206.800379 101.032486
z
" clip-path="url(#p06429f67d5)" style="fill: #0072b2"/>
   </g>
   <g id="patch_15">
    <path d="M 221.929024 104.4
L 225.559899 104.4
L 225.559899 96.621482
L 221.929024 96.621482
z
" clip-path="url(#p06429f67d5)" style="fill: #0072b2"/>
   </g>
   <g id="patch_16">
    <path d="M 44.01616 104.4
L 47.647035 104.4
L 47.647035 97.657561
L 44.01616 97.657561
z
" clip-path="url(#p06429f67d5)" style="fill: #e69f00"/>
   </g>
   <g id="patch_17">
    <path d="M 59.144805 104.4
L 62.775679 104.4
L 62.775679 97.083504
L 59.144805 97.083504
z
" clip-path="url(#p06429f67d5)" style="fill: #e69f00"/>
   </g>
   <g id="patch_18">
    <path d="M 74.27345 104.4
L 77.904324 104.4
L 77.904324 96.815276
L 74.27345 96.815276
z
" clip-path="url(#p06429f67d5)" style="fill: #e69f00"/>
   </g>
   <g id="patch_19">
    <path d="M 89.402095 104.4
L 93.032969 104.4
L 93.032969 97.970061
L 89.402095 97.970061
z
" clip-path="url(#p06429f67d5)" style="fill: #e69f00"/>
   </g>
   <g id="patch_20">
    <path d="M 104.53074 104.4
L 108.161614 104.4
L 108.161614 71.207611
L 104.53074 71.207611
z
" clip-path="url(#p06429f67d5)" style="fill: #e69f00"/>
   </g>
   <g id="patch_21">
    <path d="M 119.659384 104.4
L 123.290259 104.4
L 123.290259 59.985578
L 119.659384 59.985578
z
" clip-path="url(#p06429f67d5)" style="fill: #e69f00"/>
   </g>
   <g id="patch_22">
    <path d="M 134.788029 104.4
L 138.418904 104.4
L 138.418904 99.246288
L 134.788029 99.246288
z
" clip-path="url(#p06429f67d5)" style="fill: #e69f00"/>
   </g>
   <g id="patch_23">
    <path d="M 149.916674 104.4
L 153.547549 104.4
L 153.547549 7.747197
L 149.916674 7.747197
z
" clip-path="url(#p06429f67d5)" style="fill: #e69f00"/>
   </g>
   <g id="patch_24">
    <path d="M 165.045319 104.4
L 168.676194 104.4
L 168.676194 104.4
L 165.045319 104.4
z
" clip-path="url(#p06429f67d5)" style="fill: #e69f00"/>
   </g>
   <g id="patch_25">
    <path d="M 180.173964 104.4
L 183.804839 104.4
L 183.804839 101.737336
L 180.173964 101.737336
z
" clip-path="url(#p06429f67d5)" style="fill: #e69f00"/>
   </g>
   <g id="patch_26">
    <path d="M 195.302609 104.4
L 198.933484 104.4
L 198.933484 102.65012
L 195.302609 102.65012
z
" clip-path="url(#p06429f67d5)" style="fill: #e69f00"/>
   </g>
   <g id="patch_27">
    <path d="M 210.431254 104.4
L 214.062129 104.4
L 214.062129 95.115969
L 210.431254 95.115969
z
" clip-path="url(#p06429f67d5)" style="fill: #e69f00"/>
   </g>
   <g id="patch_28">
    <path d="M 225.559899 104.4
L 229.190774 104.4
L 229.190774 99.083167
L 225.559899 99.083167
z
" clip-path="url(#p06429f67d5)" style="fill: #e69f00"/>
   </g>
   <g id="patch_29">
    <path d="M 47.647035 104.4
L 51.277909 104.4
L 51.277909 94.290532
L 47.647035 94.290532
z
" clip-path="url(#p06429f67d5)" style="fill: #009e73"/>
   </g>
   <g id="patch_30">
    <path d="M 62.775679 104.4
L 66.406554 104.4
L 66.406554 95.296307
L 62.775679 95.296307
z
" clip-path="url(#p06429f67d5)" style="fill: #009e73"/>
   </g>
   <g id="patch_31">
    <path d="M 77.904324 104.4
L 81.535199 104.4
L 81.535199 92.799586
L 77.904324 92.799586
z
" clip-path="url(#p06429f67d5)" style="fill: #009e73"/>
   </g>
   <g id="patch_32">
    <path d="M 93.032969 104.4
L 96.663844 104.4
L 96.663844 104.4
L 93.032969 104.4
z
" clip-path="url(#p06429f67d5)" style="fill: #009e73"/>
   </g>
   <g id="patch_33">
    <path d="M 108.161614 104.4
L 111.792489 104.4
L 111.792489 67.329327
L 108.161614 67.329327
z
" clip-path="url(#p06429f67d5)" style="fill: #009e73"/>
   </g>
   <g id="patch_34">
    <path d="M 123.290259 104.4
L 126.921134 104.4
L 126.921134 68.116621
L 123.290259 68.116621
z
" clip-path="url(#p06429f67d5)" style="fill: #009e73"/>
   </g>
   <g id="patch_35">
    <path d="M 138.418904 104.4
L 142.049779 104.4
L 142.049779 95.257623
L 138.418904 95.257623
z
" clip-path="url(#p06429f67d5)" style="fill: #009e73"/>
   </g>
   <g id="patch_36">
    <path d="M 153.547549 104.4
L 157.178424 104.4
L 157.178424 36.615615
L 153.547549 36.615615
z
" clip-path="url(#p06429f67d5)" style="fill: #009e73"/>
   </g>
   <g id="patch_37">
    <path d="M 168.676194 104.4
L 172.307069 104.4
L 172.307069 99.138558
L 168.676194 99.138558
z
" clip-path="url(#p06429f67d5)" style="fill: #009e73"/>
   </g>
   <g id="patch_38">
    <path d="M 183.804839 104.4
L 187.435714 104.4
L 187.435714 91.874772
L 183.804839 91.874772
z
" clip-path="url(#p06429f67d5)" style="fill: #009e73"/>
   </g>
   <g id="patch_39">
    <path d="M 198.933484 104.4
L 202.564359 104.4
L 202.564359 97.046016
L 198.933484 97.046016
z
" clip-path="url(#p06429f67d5)" style="fill: #009e73"/>
   </g>
   <g id="patch_40">
    <path d="M 214.062129 104.4
L 217.693004 104.4
L 217.693004 77.48321
L 214.062129 77.48321
z
" clip-path="url(#p06429f67d5)" style="fill: #009e73"/>
   </g>
   <g id="patch_41">
    <path d="M 229.190774 104.4
L 232.821649 104.4
L 232.821649 15.348712
L 229.190774 15.348712
z
" clip-path="url(#p06429f67d5)" style="fill: #009e73"/>
   </g>
   <g id="LineCollection_1">
    <path d="M 42.200722 94.652806
L 42.200722 94.049757
" clip-path="url(#p06429f67d5)" style="fill: none; stroke: #000000; stroke-width: 1.5"/>
    <path d="M 57.329367 96.002041
L 57.329367 95.153427
" clip-path="url(#p06429f67d5)" style="fill: none; stroke: #000000; stroke-width: 1.5"/>
    <path d="M 72.458012 93.487018
L 72.458012 92.762127
" clip-path="url(#p06429f67d5)" style="fill: none; stroke: #000000; stroke-width: 1.5"/>
    <path d="M 87.586657 97.975107
L 87.586657 97.293092
" clip-path="url(#p06429f67d5)" style="fill: none; stroke: #000000; stroke-width: 1.5"/>
    <path d="M 102.715302 69.477145
L 102.715302 68.035916
" clip-path="url(#p06429f67d5)" style="fill: none; stroke: #000000; stroke-width: 1.5"/>
    <path d="M 117.843947 66.886291
L 117.843947 64.582139
" clip-path="url(#p06429f67d5)" style="fill: none; stroke: #000000; stroke-width: 1.5"/>
    <path d="M 132.972592 95.401614
L 132.972592 95.054563
" clip-path="url(#p06429f67d5)" style="fill: none; stroke: #000000; stroke-width: 1.5"/>
    <path d="M 148.101237 37.539003
L 148.101237 36.836064
" clip-path="url(#p06429f67d5)" style="fill: none; stroke: #000000; stroke-width: 1.5"/>
    <path d="M 163.229882 99.766323
L 163.229882 99.518934
" clip-path="url(#p06429f67d5)" style="fill: none; stroke: #000000; stroke-width: 1.5"/>
    <path d="M 178.358527 101.152817
L 178.358527 99.262423
" clip-path="url(#p06429f67d5)" style="fill: none; stroke: #000000; stroke-width: 1.5"/>
    <path d="M 193.487172 102.782481
L 193.487172 102.76281
" clip-path="url(#p06429f67d5)" style="fill: none; stroke: #000000; stroke-width: 1.5"/>
    <path d="M 208.615817 101.081976
L 208.615817 100.982997
" clip-path="url(#p06429f67d5)" style="fill: none; stroke: #000000; stroke-width: 1.5"/>
    <path d="M 223.744462 96.674791
L 223.744462 96.568173
" clip-path="url(#p06429f67d5)" style="fill: none; stroke: #000000; stroke-width: 1.5"/>
   </g>
   <g id="line2d_24">
    <defs>
     <path id="mfbc966e224" d="M 1.2 0
L -1.2 -0
" style="stroke: #000000"/>
    </defs>
    <g clip-path="url(#p06429f67d5)">
     <use xlink:href="#mfbc966e224" x="42.200722" y="94.652806" style="fill: #1f77b4; stroke: #000000"/>
     <use xlink:href="#mfbc966e224" x="57.329367" y="96.002041" style="fill: #1f77b4; stroke: #000000"/>
     <use xlink:href="#mfbc966e224" x="72.458012" y="93.487018" style="fill: #1f77b4; stroke: #000000"/>
     <use xlink:href="#mfbc966e224" x="87.586657" y="97.975107" style="fill: #1f77b4; stroke: #000000"/>
     <use xlink:href="#mfbc966e224" x="102.715302" y="69.477145" style="fill: #1f77b4; stroke: #000000"/>
     <use xlink:href="#mfbc966e224" x="117.843947" y="66.886291" style="fill: #1f77b4; stroke: #000000"/>
     <use xlink:href="#mfbc966e224" x="132.972592" y="95.401614" style="fill: #1f77b4; stroke: #000000"/>
     <use xlink:href="#mfbc966e224" x="148.101237" y="37.539003" style="fill: #1f77b4; stroke: #000000"/>
     <use xlink:href="#mfbc966e224" x="163.229882" y="99.766323" style="fill: #1f77b4; stroke: #000000"/>
     <use xlink:href="#mfbc966e224" x="178.358527" y="101.152817" style="fill: #1f77b4; stroke: #000000"/>
     <use xlink:href="#mfbc966e224" x="193.487172" y="102.782481" style="fill: #1f77b4; stroke: #000000"/>
     <use xlink:href="#mfbc966e224" x="208.615817" y="101.081976" style="fill: #1f77b4; stroke: #000000"/>
     <use xlink:href="#mfbc966e224" x="223.744462" y="96.674791" style="fill: #1f77b4; stroke: #000000"/>
    </g>
   </g>
   <g id="line2d_25">
    <g clip-path="url(#p06429f67d5)">
     <use xlink:href="#mfbc966e224" x="42.200722" y="94.049757" style="fill: #1f77b4; stroke: #000000"/>
     <use xlink:href="#mfbc966e224" x="57.329367" y="95.153427" style="fill: #1f77b4; stroke: #000000"/>
     <use xlink:href="#mfbc966e224" x="72.458012" y="92.762127" style="fill: #1f77b4; stroke: #000000"/>
     <use xlink:href="#mfbc966e224" x="87.586657" y="97.293092" style="fill: #1f77b4; stroke: #000000"/>
     <use xlink:href="#mfbc966e224" x="102.715302" y="68.035916" style="fill: #1f77b4; stroke: #000000"/>
     <use xlink:href="#mfbc966e224" x="117.843947" y="64.582139" style="fill: #1f77b4; stroke: #000000"/>
     <use xlink:href="#mfbc966e224" x="132.972592" y="95.054563" style="fill: #1f77b4; stroke: #000000"/>
     <use xlink:href="#mfbc966e224" x="148.101237" y="36.836064" style="fill: #1f77b4; stroke: #000000"/>
     <use xlink:href="#mfbc966e224" x="163.229882" y="99.518934" style="fill: #1f77b4; stroke: #000000"/>
     <use xlink:href="#mfbc966e224" x="178.358527" y="99.262423" style="fill: #1f77b4; stroke: #000000"/>
     <use xlink:href="#mfbc966e224" x="193.487172" y="102.76281" style="fill: #1f77b4; stroke: #000000"/>
     <use xlink:href="#mfbc966e224" x="208.615817" y="100.982997" style="fill: #1f77b4; stroke: #000000"/>
     <use xlink:href="#mfbc966e224" x="223.744462" y="96.568173" style="fill: #1f77b4; stroke: #000000"/>
    </g>
   </g>
   <g id="LineCollection_2">
    <path d="M 45.831597 97.937021
L 45.831597 97.378101
" clip-path="url(#p06429f67d5)" style="fill: none; stroke: #000000; stroke-width: 1.5"/>
    <path d="M 60.960242 97.203036
L 60.960242 96.963972
" clip-path="url(#p06429f67d5)" style="fill: none; stroke: #000000; stroke-width: 1.5"/>
    <path d="M 76.088887 96.904049
L 76.088887 96.726504
" clip-path="url(#p06429f67d5)" style="fill: none; stroke: #000000; stroke-width: 1.5"/>
    <path d="M 91.217532 98.075254
L 91.217532 97.864868
" clip-path="url(#p06429f67d5)" style="fill: none; stroke: #000000; stroke-width: 1.5"/>
    <path d="M 106.346177 71.794325
L 106.346177 70.620897
" clip-path="url(#p06429f67d5)" style="fill: none; stroke: #000000; stroke-width: 1.5"/>
    <path d="M 121.474822 60.488281
L 121.474822 59.482876
" clip-path="url(#p06429f67d5)" style="fill: none; stroke: #000000; stroke-width: 1.5"/>
    <path d="M 136.603467 99.402367
L 136.603467 99.090209
" clip-path="url(#p06429f67d5)" style="fill: none; stroke: #000000; stroke-width: 1.5"/>
    <path d="M 151.732112 9.151537
L 151.732112 6.342857
" clip-path="url(#p06429f67d5)" style="fill: none; stroke: #000000; stroke-width: 1.5"/>
    <path d="M 166.860757 104.4
L 166.860757 104.4
" clip-path="url(#p06429f67d5)" style="fill: none; stroke: #000000; stroke-width: 1.5"/>
    <path d="M 181.989402 101.808662
L 181.989402 101.66601
" clip-path="url(#p06429f67d5)" style="fill: none; stroke: #000000; stroke-width: 1.5"/>
    <path d="M 197.118047 102.689546
L 197.118047 102.610694
" clip-path="url(#p06429f67d5)" style="fill: none; stroke: #000000; stroke-width: 1.5"/>
    <path d="M 212.246691 95.200693
L 212.246691 95.031244
" clip-path="url(#p06429f67d5)" style="fill: none; stroke: #000000; stroke-width: 1.5"/>
    <path d="M 227.375336 99.171769
L 227.375336 98.994566
" clip-path="url(#p06429f67d5)" style="fill: none; stroke: #000000; stroke-width: 1.5"/>
   </g>
   <g id="line2d_26">
    <g clip-path="url(#p06429f67d5)">
     <use xlink:href="#mfbc966e224" x="45.831597" y="97.937021" style="fill: #1f77b4; stroke: #000000"/>
     <use xlink:href="#mfbc966e224" x="60.960242" y="97.203036" style="fill: #1f77b4; stroke: #000000"/>
     <use xlink:href="#mfbc966e224" x="76.088887" y="96.904049" style="fill: #1f77b4; stroke: #000000"/>
     <use xlink:href="#mfbc966e224" x="91.217532" y="98.075254" style="fill: #1f77b4; stroke: #000000"/>
     <use xlink:href="#mfbc966e224" x="106.346177" y="71.794325" style="fill: #1f77b4; stroke: #000000"/>
     <use xlink:href="#mfbc966e224" x="121.474822" y="60.488281" style="fill: #1f77b4; stroke: #000000"/>
     <use xlink:href="#mfbc966e224" x="136.603467" y="99.402367" style="fill: #1f77b4; stroke: #000000"/>
     <use xlink:href="#mfbc966e224" x="151.732112" y="9.151537" style="fill: #1f77b4; stroke: #000000"/>
     <use xlink:href="#mfbc966e224" x="166.860757" y="104.4" style="fill: #1f77b4; stroke: #000000"/>
     <use xlink:href="#mfbc966e224" x="181.989402" y="101.808662" style="fill: #1f77b4; stroke: #000000"/>
     <use xlink:href="#mfbc966e224" x="197.118047" y="102.689546" style="fill: #1f77b4; stroke: #000000"/>
     <use xlink:href="#mfbc966e224" x="212.246691" y="95.200693" style="fill: #1f77b4; stroke: #000000"/>
     <use xlink:href="#mfbc966e224" x="227.375336" y="99.171769" style="fill: #1f77b4; stroke: #000000"/>
    </g>
   </g>
   <g id="line2d_27">
    <g clip-path="url(#p06429f67d5)">
     <use xlink:href="#mfbc966e224" x="45.831597" y="97.378101" style="fill: #1f77b4; stroke: #000000"/>
     <use xlink:href="#mfbc966e224" x="60.960242" y="96.963972" style="fill: #1f77b4; stroke: #000000"/>
     <use xlink:href="#mfbc966e224" x="76.088887" y="96.726504" style="fill: #1f77b4; stroke: #000000"/>
     <use xlink:href="#mfbc966e224" x="91.217532" y="97.864868" style="fill: #1f77b4; stroke: #000000"/>
     <use xlink:href="#mfbc966e224" x="106.346177" y="70.620897" style="fill: #1f77b4; stroke: #000000"/>
     <use xlink:href="#mfbc966e224" x="121.474822" y="59.482876" style="fill: #1f77b4; stroke: #000000"/>
     <use xlink:href="#mfbc966e224" x="136.603467" y="99.090209" style="fill: #1f77b4; stroke: #000000"/>
     <use xlink:href="#mfbc966e224" x="151.732112" y="6.342857" style="fill: #1f77b4; stroke: #000000"/>
     <use xlink:href="#mfbc966e224" x="166.860757" y="104.4" style="fill: #1f77b4; stroke: #000000"/>
     <use xlink:href="#mfbc966e224" x="181.989402" y="101.66601" style="fill: #1f77b4; stroke: #000000"/>
     <use xlink:href="#mfbc966e224" x="197.118047" y="102.610694" style="fill: #1f77b4; stroke: #000000"/>
     <use xlink:href="#mfbc966e224" x="212.246691" y="95.031244" style="fill: #1f77b4; stroke: #000000"/>
     <use xlink:href="#mfbc966e224" x="227.375336" y="98.994566" style="fill: #1f77b4; stroke: #000000"/>
    </g>
   </g>
   <g id="LineCollection_3">
    <path d="M 49.462472 94.591657
L 49.462472 93.989406
" clip-path="url(#p06429f67d5)" style="fill: none; stroke: #000000; stroke-width: 1.5"/>
    <path d="M 64.591117 95.687146
L 64.591117 94.905469
" clip-path="url(#p06429f67d5)" style="fill: none; stroke: #000000; stroke-width: 1.5"/>
    <path d="M 79.719762 93.454376
L 79.719762 92.144796
" clip-path="url(#p06429f67d5)" style="fill: none; stroke: #000000; stroke-width: 1.5"/>
    <path d="M 94.848407 104.4
L 94.848407 104.4
" clip-path="url(#p06429f67d5)" style="fill: none; stroke: #000000; stroke-width: 1.5"/>
    <path d="M 109.977052 67.865441
L 109.977052 66.793214
" clip-path="url(#p06429f67d5)" style="fill: none; stroke: #000000; stroke-width: 1.5"/>
    <path d="M 125.105697 68.891257
L 125.105697 67.341985
" clip-path="url(#p06429f67d5)" style="fill: none; stroke: #000000; stroke-width: 1.5"/>
    <path d="M 140.234342 95.460939
L 140.234342 95.054307
" clip-path="url(#p06429f67d5)" style="fill: none; stroke: #000000; stroke-width: 1.5"/>
    <path d="M 155.362987 36.884926
L 155.362987 36.346304
" clip-path="url(#p06429f67d5)" style="fill: none; stroke: #000000; stroke-width: 1.5"/>
    <path d="M 170.491631 99.236453
L 170.491631 99.040663
" clip-path="url(#p06429f67d5)" style="fill: none; stroke: #000000; stroke-width: 1.5"/>
    <path d="M 185.620276 92.433292
L 185.620276 91.316252
" clip-path="url(#p06429f67d5)" style="fill: none; stroke: #000000; stroke-width: 1.5"/>
    <path d="M 200.748921 97.335112
L 200.748921 96.756921
" clip-path="url(#p06429f67d5)" style="fill: none; stroke: #000000; stroke-width: 1.5"/>
    <path d="M 215.877566 78.943055
L 215.877566 76.023366
" clip-path="url(#p06429f67d5)" style="fill: none; stroke: #000000; stroke-width: 1.5"/>
    <path d="M 231.006211 17.454537
L 231.006211 13.242886
" clip-path="url(#p06429f67d5)" style="fill: none; stroke: #000000; stroke-width: 1.5"/>
   </g>
   <g id="line2d_28">
    <g clip-path="url(#p06429f67d5)">
     <use xlink:href="#mfbc966e224" x="49.462472" y="94.591657" style="fill: #1f77b4; stroke: #000000"/>
     <use xlink:href="#mfbc966e224" x="64.591117" y="95.687146" style="fill: #1f77b4; stroke: #000000"/>
     <use xlink:href="#mfbc966e224" x="79.719762" y="93.454376" style="fill: #1f77b4; stroke: #000000"/>
     <use xlink:href="#mfbc966e224" x="94.848407" y="104.4" style="fill: #1f77b4; stroke: #000000"/>
     <use xlink:href="#mfbc966e224" x="109.977052" y="67.865441" style="fill: #1f77b4; stroke: #000000"/>
     <use xlink:href="#mfbc966e224" x="125.105697" y="68.891257" style="fill: #1f77b4; stroke: #000000"/>
     <use xlink:href="#mfbc966e224" x="140.234342" y="95.460939" style="fill: #1f77b4; stroke: #000000"/>
     <use xlink:href="#mfbc966e224" x="155.362987" y="36.884926" style="fill: #1f77b4; stroke: #000000"/>
     <use xlink:href="#mfbc966e224" x="170.491631" y="99.236453" style="fill: #1f77b4; stroke: #000000"/>
     <use xlink:href="#mfbc966e224" x="185.620276" y="92.433292" style="fill: #1f77b4; stroke: #000000"/>
     <use xlink:href="#mfbc966e224" x="200.748921" y="97.335112" style="fill: #1f77b4; stroke: #000000"/>
     <use xlink:href="#mfbc966e224" x="215.877566" y="78.943055" style="fill: #1f77b4; stroke: #000000"/>
     <use xlink:href="#mfbc966e224" x="231.006211" y="17.454537" style="fill: #1f77b4; stroke: #000000"/>
    </g>
   </g>
   <g id="line2d_29">
    <g clip-path="url(#p06429f67d5)">
     <use xlink:href="#mfbc966e224" x="49.462472" y="93.989406" style="fill: #1f77b4; stroke: #000000"/>
     <use xlink:href="#mfbc966e224" x="64.591117" y="94.905469" style="fill: #1f77b4; stroke: #000000"/>
     <use xlink:href="#mfbc966e224" x="79.719762" y="92.144796" style="fill: #1f77b4; stroke: #000000"/>
     <use xlink:href="#mfbc966e224" x="94.848407" y="104.4" style="fill: #1f77b4; stroke: #000000"/>
     <use xlink:href="#mfbc966e224" x="109.977052" y="66.793214" style="fill: #1f77b4; stroke: #000000"/>
     <use xlink:href="#mfbc966e224" x="125.105697" y="67.341985" style="fill: #1f77b4; stroke: #000000"/>
     <use xlink:href="#mfbc966e224" x="140.234342" y="95.054307" style="fill: #1f77b4; stroke: #000000"/>
     <use xlink:href="#mfbc966e224" x="155.362987" y="36.346304" style="fill: #1f77b4; stroke: #000000"/>
     <use xlink:href="#mfbc966e224" x="170.491631" y="99.040663" style="fill: #1f77b4; stroke: #000000"/>
     <use xlink:href="#mfbc966e224" x="185.620276" y="91.316252" style="fill: #1f77b4; stroke: #000000"/>
     <use xlink:href="#mfbc966e224" x="200.748921" y="96.756921" style="fill: #1f77b4; stroke: #000000"/>
     <use xlink:href="#mfbc966e224" x="215.877566" y="76.023366" style="fill: #1f77b4; stroke: #000000"/>
     <use xlink:href="#mfbc966e224" x="231.006211" y="13.242886" style="fill: #1f77b4; stroke: #000000"/>
    </g>
   </g>
   <g id="patch_42">
    <path d="M 30.763467 104.4
L 30.763467 1.44
" style="fill: none; stroke: #000000; stroke-width: 0.7; stroke-linejoin: miter; stroke-linecap: square"/>
   </g>
   <g id="patch_43">
    <path d="M 242.443467 104.4
L 242.443467 1.44
" style="fill: none; stroke: #000000; stroke-width: 0.7; stroke-linejoin: miter; stroke-linecap: square"/>
   </g>
   <g id="patch_44">
    <path d="M 30.763467 104.4
L 242.443467 104.4
" style="fill: none; stroke: #000000; stroke-width: 0.7; stroke-linejoin: miter; stroke-linecap: square"/>
   </g>
   <g id="patch_45">
    <path d="M 30.763467 1.44
L 242.443467 1.44
" style="fill: none; stroke: #000000; stroke-width: 0.7; stroke-linejoin: miter; stroke-linecap: square"/>
   </g>
   <g id="legend_1">
    <g id="patch_46">
     <path d="M 35.563467 12.064219
L 43.563467 12.064219
L 43.563467 6.464219
L 35.563467 6.464219
z
" style="fill: #0072b2"/>
    </g>
    <g id="text_20">
     <text style="font-size: 8px; font-family: 'Arial', 'DejaVu Sans', sans-serif; text-anchor: start" x="49.963467" y="12.064219" transform="rotate(-0 49.963467 12.064219)">NPU</text>
    </g>
    <g id="patch_47">
     <path d="M 73.254717 12.064219
L 81.254717 12.064219
L 81.254717 6.464219
L 73.254717 6.464219
z
" style="fill: #e69f00"/>
    </g>
    <g id="text_21">
     <text style="font-size: 8px; font-family: 'Arial', 'DejaVu Sans', sans-serif; text-anchor: start" x="87.654717" y="12.064219" transform="rotate(-0 87.654717 12.064219)">iGPU</text>
    </g>
    <g id="patch_48">
     <path d="M 113.168467 12.064219
L 121.168467 12.064219
L 121.168467 6.464219
L 113.168467 6.464219
z
" style="fill: #009e73"/>
    </g>
    <g id="text_22">
     <text style="font-size: 8px; font-family: 'Arial', 'DejaVu Sans', sans-serif; text-anchor: start" x="127.568467" y="12.064219" transform="rotate(-0 127.568467 12.064219)">CPU</text>
    </g>
   </g>
  </g>
 </g>
 <defs>
  <clipPath id="p06429f67d5">
   <rect x="30.763467" y="1.44" width="211.68" height="102.96"/>
  </clipPath>
 </defs>
</svg>
