<?xml version="1.0" encoding="utf-8" standalone="no"?>
<!DOCTYPE svg PUBLIC "-//W3C//DTD SVG 1.1//EN"
  "http://www.w3.org/Graphics/SVG/1.1/DTD/svg11.dtd">
<svg xmlns:xlink="http://www.w3.org/1999/xlink" width="252pt" height="219.6pt" viewBox="0 0 252 219.6" xmlns="http://www.w3.org/2000/svg" version="1.1">
 <metadata>
  <rdf:RDF xmlns:dc="http://purl.org/dc/elements/1.1/" xmlns:cc="http://creativecommons.org/ns#" xmlns:rdf="http://www.w3.org/1999/02/22-rdf-syntax-ns#">
   <cc:Work>
    <dc:type rdf:resource="http://purl.org/dc/dcmitype/StillImage"/>
    <dc:date>2026-08-30T17:19:11.619358</dc:date>
    <dc:format>image/svg+xml</dc:format>
    <dc:creator>
     <cc:Agent>
      <dc:title>generate_ieee_paper_figures.py</dc:title>
     </cc:Agent>
    </dc:creator>
   </cc:Work>
  </rdf:RDF>
 </metadata>
 <defs>
  <style type="text/css">*{stroke-linejoin: round; stroke-linecap: butt}</style>
 </defs>
 <g id="figure_1">
  <g id="patch_1">
   <path d="M 0 219.6
L 252 219.6
L 252 0
L 0 0
z
" style="fill: #ffffff"/>
  </g>
  <g id="axes_1">
   <g id="patch_2">
    <path d="M 37.8 144.936
L 249.48 144.936
L 249.48 46.116
L 37.8 46.116
z
" style="fill: #ffffff"/>
   </g>
   <g id="matplotlib.axis_1">
    <g id="xtick_1">
     <g id="line2d_1">
      <defs>
       <path id="m5322cc1f83" d="M 0 0
L 0 2.5
" style="stroke: #000000; stroke-width: 0.7"/>
      </defs>
      <g>
       <use xlink:href="#m5322cc1f83" x="52.86813" y="144.936" style="stroke: #000000; stroke-width: 0.7"/>
      </g>
     </g>
     <g id="text_1">
      <text style="font-size: 8px; font-family: 'Arial', 'DejaVu Sans', sans-serif; text-anchor: end" x="58.01061" y="151.670305" transform="rotate(-62 58.01061 151.670305)">APPNP</text>
     </g>
    </g>
    <g id="xtick_2">
     <g id="line2d_2">
      <g>
       <use xlink:href="#m5322cc1f83" x="66.833033" y="144.936" style="stroke: #000000; stroke-width: 0.7"/>
      </g>
     </g>
     <g id="text_2">
      <text style="font-size: 8px; font-family: 'Arial', 'DejaVu Sans', sans-serif; text-anchor: end" x="71.975513" y="151.670305" transform="rotate(-62 71.975513 151.670305)">GAT</text>
     </g>
    </g>
    <g id="xtick_3">
     <g id="line2d_3">
      <g>
       <use xlink:href="#m5322cc1f83" x="80.797936" y="144.936" style="stroke: #000000; stroke-width: 0.7"/>
      </g>
     </g>
     <g id="text_3">
      <text style="font-size: 8px; font-family: 'Arial', 'DejaVu Sans', sans-serif; text-anchor: end" x="85.940416" y="151.670305" transform="rotate(-62 85.940416 151.670305)">GATv2</text>
     </g>
    </g>
    <g id="xtick_4">
     <g id="line2d_4">
      <g>
       <use xlink:href="#m5322cc1f83" x="94.762839" y="144.936" style="stroke: #000000; stroke-width: 0.7"/>
      </g>
     </g>
     <g id="text_4">
      <text style="font-size: 8px; font-family: 'Arial', 'DejaVu Sans', sans-serif; text-anchor: end" x="99.905319" y="151.670305" transform="rotate(-62 99.905319 151.670305)">GCN</text>
     </g>
    </g>
    <g id="xtick_5">
     <g id="line2d_5">
      <g>
       <use xlink:href="#m5322cc1f83" x="108.727742" y="144.936" style="stroke: #000000; stroke-width: 0.7"/>
      </g>
     </g>
     <g id="text_5">
      <text style="font-size: 8px; font-family: 'Arial', 'DejaVu Sans', sans-serif; text-anchor: end" x="113.870222" y="151.670305" transform="rotate(-62 113.870222 151.670305)">GIN</text>
     </g>
    </g>
    <g id="xtick_6">
     <g id="line2d_6">
      <g>
       <use xlink:href="#m5322cc1f83" x="122.692645" y="144.936" style="stroke: #000000; stroke-width: 0.7"/>
      </g>
     </g>
     <g id="text_6">
      <text style="font-size: 8px; font-family: 'Arial', 'DejaVu Sans', sans-serif; text-anchor: end" x="127.835125" y="151.670305" transform="rotate(-62 127.835125 151.670305)">G-SAGE</text>
     </g>
    </g>
    <g id="xtick_7">
     <g id="line2d_7">
      <g>
       <use xlink:href="#m5322cc1f83" x="136.657548" y="144.936" style="stroke: #000000; stroke-width: 0.7"/>
      </g>
     </g>
     <g id="text_7">
      <text style="font-size: 8px; font-family: 'Arial', 'DejaVu Sans', sans-serif; text-anchor: end" x="141.800028" y="151.670305" transform="rotate(-62 141.800028 151.670305)">G-Trans</text>
     </g>
    </g>
    <g id="xtick_8">
     <g id="line2d_8">
      <g>
       <use xlink:href="#m5322cc1f83" x="150.622452" y="144.936" style="stroke: #000000; stroke-width: 0.7"/>
      </g>
     </g>
     <g id="text_8">
      <text style="font-size: 8px; font-family: 'Arial', 'DejaVu Sans', sans-serif; text-anchor: end" x="155.764931" y="151.670305" transform="rotate(-62 155.764931 151.670305)">MPNN</text>
     </g>
    </g>
    <g id="xtick_9">
     <g id="line2d_9">
      <g>
       <use xlink:href="#m5322cc1f83" x="164.587355" y="144.936" style="stroke: #000000; stroke-width: 0.7"/>
      </g>
     </g>
     <g id="text_9">
      <text style="font-size: 8px; font-family: 'Arial', 'DejaVu Sans', sans-serif; text-anchor: end" x="169.729834" y="151.670305" transform="rotate(-62 169.729834 151.670305)">SGC</text>
     </g>
    </g>
    <g id="xtick_10">
     <g id="line2d_10">
      <g>
       <use xlink:href="#m5322cc1f83" x="178.552258" y="144.936" style="stroke: #000000; stroke-width: 0.7"/>
      </g>
     </g>
     <g id="text_10">
      <text style="font-size: 8px; font-family: 'Arial', 'DejaVu Sans', sans-serif; text-anchor: end" x="183.694737" y="151.670305" transform="rotate(-62 183.694737 151.670305)">BERT-T</text>
     </g>
    </g>
    <g id="xtick_11">
     <g id="line2d_11">
      <g>
       <use xlink:href="#m5322cc1f83" x="192.517161" y="144.936" style="stroke: #000000; stroke-width: 0.7"/>
      </g>
     </g>
     <g id="text_11">
      <text style="font-size: 8px; font-family: 'Arial', 'DejaVu Sans', sans-serif; text-anchor: end" x="197.659641" y="151.670305" transform="rotate(-62 197.659641 151.670305)">EffNet</text>
     </g>
    </g>
    <g id="xtick_12">
     <g id="line2d_12">
      <g>
       <use xlink:href="#m5322cc1f83" x="206.482064" y="144.936" style="stroke: #000000; stroke-width: 0.7"/>
      </g>
     </g>
     <g id="text_12">
      <text style="font-size: 8px; font-family: 'Arial', 'DejaVu Sans', sans-serif; text-anchor: end" x="211.624544" y="151.670305" transform="rotate(-62 211.624544 151.670305)">MobileNet</text>
     </g>
    </g>
    <g id="xtick_13">
     <g id="line2d_13">
      <g>
       <use xlink:href="#m5322cc1f83" x="220.446967" y="144.936" style="stroke: #000000; stroke-width: 0.7"/>
      </g>
     </g>
     <g id="text_13">
      <text style="font-size: 8px; font-family: 'Arial', 'DejaVu Sans', sans-serif; text-anchor: end" x="225.589447" y="151.670305" transform="rotate(-62 225.589447 151.670305)">ResNet50</text>
     </g>
    </g>
    <g id="xtick_14">
     <g id="line2d_14">
      <g>
       <use xlink:href="#m5322cc1f83" x="234.41187" y="144.936" style="stroke: #000000; stroke-width: 0.7"/>
      </g>
     </g>
     <g id="text_14">
      <text style="font-size: 8px; font-family: 'Arial', 'DejaVu Sans', sans-serif; text-anchor: end" x="239.55435" y="151.670305" transform="rotate(-62 239.55435 151.670305)">ViT-T</text>
     </g>
    </g>
   </g>
   <g id="matplotlib.axis_2">
    <g id="ytick_1">
     <g id="line2d_15">
      <path d="M 37.8 144.936
L 249.48 144.936
" clip-path="url(#paa10f80d34)" style="fill: none; stroke-dasharray: 1.48,0.64; stroke-dashoffset: 0; stroke: #b8b8b8; stroke-opacity: 0.35; stroke-width: 0.4"/>
     </g>
     <g id="line2d_16">
      <defs>
       <path id="m4a3032c1a7" d="M 0 0
L -2.5 0
" style="stroke: #000000; stroke-width: 0.7"/>
      </defs>
      <g>
       <use xlink:href="#m4a3032c1a7" x="37.8" y="144.936" style="stroke: #000000; stroke-width: 0.7"/>
      </g>
     </g>
     <g id="text_15">
      <text style="font-size: 8px; font-family: 'Arial', 'DejaVu Sans', sans-serif; text-anchor: end" x="33.8" y="147.848109" transform="rotate(-0 33.8 147.848109)">0</text>
     </g>
    </g>
    <g id="ytick_2">
     <g id="line2d_17">
      <path d="M 37.8 125.172
L 249.48 125.172
" clip-path="url(#paa10f80d34)" style="fill: none; stroke-dasharray: 1.48,0.64; stroke-dashoffset: 0; stroke: #b8b8b8; stroke-opacity: 0.35; stroke-width: 0.4"/>
     </g>
     <g id="line2d_18">
      <g>
       <use xlink:href="#m4a3032c1a7" x="37.8" y="125.172" style="stroke: #000000; stroke-width: 0.7"/>
      </g>
     </g>
     <g id="text_16">
      <text style="font-size: 8px; font-family: 'Arial', 'DejaVu Sans', sans-serif; text-anchor: end" x="33.8" y="128.084109" transform="rotate(-0 33.8 128.084109)">20</text>
     </g>
    </g>
    <g id="ytick_3">
     <g id="line2d_19">
      <path d="M 37.8 105.408
L 249.48 105.408
" clip-path="url(#paa10f80d34)" style="fill: none; stroke-dasharray: 1.48,0.64; stroke-dashoffset: 0; stroke: #b8b8b8; stroke-opacity: 0.35; stroke-width: 0.4"/>
     </g>
     <g id="line2d_20">
      <g>
       <use xlink:href="#m4a3032c1a7" x="37.8" y="105.408" style="stroke: #000000; stroke-width: 0.7"/>
      </g>
     </g>
     <g id="text_17">
      <text style="font-size: 8px; font-family: 'Arial', 'DejaVu Sans', sans-serif; text-anchor: end" x="33.8" y="108.320109" transform="rotate(-0 33.8 108.320109)">40</text>
     </g>
    </g>
    <g id="ytick_4">
     <g id="line2d_21">
      <path d="M 37.8 85.644
L 249.48 85.644
" clip-path="url(#paa10f80d34)" style="fill: none; stroke-dasharray: 1.48,0.64; stroke-dashoffset: 0; stroke: #b8b8b8; stroke-opacity: 0.35; stroke-width: 0.4"/>
     </g>
     <g id="line2d_22">
      <g>
       <use xlink:href="#m4a3032c1a7" x="37.8" y="85.644" style="stroke: #000000; stroke-width: 0.7"/>
      </g>
     </g>
     <g id="text_18">
      <text style="font-size: 8px; font-family: 'Arial', 'DejaVu Sans', sans-serif; text-anchor: end" x="33.8" y="88.556109" transform="rotate(-0 33.8 88.556109)">60</text>
     </g>
    </g>
    <g id="ytick_5">
     <g id="line2d_23">
      <path d="M 37.8 65.88
L 249.48 65.88
" clip-path="url(#paa10f80d34)" style="fill: none; stroke-dasharray: 1.48,0.64; stroke-dashoffset: 0; stroke: #b8b8b8; stroke-opacity: 0.35; stroke-width: 0.4"/>
     </g>
     <g id="line2d_24">
      <g>
       <use xlink:href="#m4a3032c1a7" x="37.8" y="65.88" style="stroke: #000000; stroke-width: 0.7"/>
      </g>
     </g>
     <g id="text_19">
      <text style="font-size: 8px; font-family: 'Arial', 'DejaVu Sans', sans-serif; text-anchor: end" x="33.8" y="68.792109" transform="rotate(-0 33.8 68.792109)">80</text>
     </g>
    </g>
    <g id="ytick_6">
     <g id="line2d_25">
      <path d="M 37.8 46.116
L 249.48 46.116
" clip-path="url(#paa10f80d34)" style="fill: none; stroke-dasharray: 1.48,0.64; stroke-dashoffset: 0; stroke: #b8b8b8; stroke-opacity: 0.35; stroke-width: 0.4"/>
     </g>
     <g id="line2d_26">
      <g>
       <use xlink:href="#m4a3032c1a7" x="37.8" y="46.116" style="stroke: #000000; stroke-width: 0.7"/>
      </g>
     </g>
     <g id="text_20">
      <text style="font-size: 8px; font-family: 'Arial', 'DejaVu Sans', sans-serif; text-anchor: end" x="33.8" y="49.028109" transform="rotate(-0 33.8 49.028109)">100</text>
     </g>
    </g>
    <g id="text_21">
     <text style="font-size: 8.5px; font-family: 'Arial', 'DejaVu Sans', sans-serif; text-anchor: middle" x="14.664766" y="95.526" transform="rotate(-90 14.664766 95.526)">Share of ONNX nodes (%)</text>
    </g>
   </g>
   <g id="patch_3">
    <path d="M 47.421818 144.936
L 58.314443 144.936
L 58.314443 142.855579
L 47.421818 142.855579
z
" clip-path="url(#paa10f80d34)" style="fill: #0072b2; stroke: #ffffff; stroke-width: 0.25; stroke-linejoin: miter"/>
   </g>
   <g id="patch_4">
    <path d="M 61.386721 144.936
L 72.279346 144.936
L 72.279346 142.898474
L 61.386721 142.898474
z
" clip-path="url(#paa10f80d34)" style="fill: #0072b2; stroke: #ffffff; stroke-width: 0.25; stroke-linejoin: miter"/>
   </g>
   <g id="patch_5">
    <path d="M 75.351624 144.936
L 86.244249 144.936
L 86.244249 140.775158
L 75.351624 140.775158
z
" clip-path="url(#paa10f80d34)" style="fill: #0072b2; stroke: #ffffff; stroke-width: 0.25; stroke-linejoin: miter"/>
   </g>
   <g id="patch_6">
    <path d="M 89.316527 144.936
L 100.209152 144.936
L 100.209152 142.228603
L 89.316527 142.228603
z
" clip-path="url(#paa10f80d34)" style="fill: #0072b2; stroke: #ffffff; stroke-width: 0.25; stroke-linejoin: miter"/>
   </g>
   <g id="patch_7">
    <path d="M 103.28143 144.936
L 114.174055 144.936
L 114.174055 127.749913
L 103.28143 127.749913
z
" clip-path="url(#paa10f80d34)" style="fill: #0072b2; stroke: #ffffff; stroke-width: 0.25; stroke-linejoin: miter"/>
   </g>
   <g id="patch_8">
    <path d="M 117.246333 144.936
L 128.138958 144.936
L 128.138958 131.76
L 117.246333 131.76
z
" clip-path="url(#paa10f80d34)" style="fill: #0072b2; stroke: #ffffff; stroke-width: 0.25; stroke-linejoin: miter"/>
   </g>
   <g id="patch_9">
    <path d="M 131.211236 144.936
L 142.103861 144.936
L 142.103861 132.5835
L 131.211236 132.5835
z
" clip-path="url(#paa10f80d34)" style="fill: #0072b2; stroke: #ffffff; stroke-width: 0.25; stroke-linejoin: miter"/>
   </g>
   <g id="patch_10">
    <path d="M 145.176139 144.936
L 156.068764 144.936
L 156.068764 133.310118
L 145.176139 133.310118
z
" clip-path="url(#paa10f80d34)" style="fill: #0072b2; stroke: #ffffff; stroke-width: 0.25; stroke-linejoin: miter"/>
   </g>
   <g id="patch_11">
    <path d="M 159.141042 144.936
L 170.033667 144.936
L 170.033667 142.87725
L 159.141042 142.87725
z
" clip-path="url(#paa10f80d34)" style="fill: #0072b2; stroke: #ffffff; stroke-width: 0.25; stroke-linejoin: miter"/>
   </g>
   <g id="patch_12">
    <path d="M 173.105945 144.936
L 183.99857 144.936
L 183.99857 126.872129
L 173.105945 126.872129
z
" clip-path="url(#paa10f80d34)" style="fill: #0072b2; stroke: #ffffff; stroke-width: 0.25; stroke-linejoin: miter"/>
   </g>
   <g id="patch_13">
    <path d="M 187.070848 144.936
L 197.963473 144.936
L 197.963473 144.522527
L 187.070848 144.522527
z
" clip-path="url(#paa10f80d34)" style="fill: #0072b2; stroke: #ffffff; stroke-width: 0.25; stroke-linejoin: miter"/>
   </g>
   <g id="patch_14">
    <path d="M 201.035751 144.936
L 211.928376 144.936
L 211.928376 144.936
L 201.035751 144.936
z
" clip-path="url(#paa10f80d34)" style="fill: #0072b2; stroke: #ffffff; stroke-width: 0.25; stroke-linejoin: miter"/>
   </g>
   <g id="patch_15">
    <path d="M 215.000654 144.936
L 225.893279 144.936
L 225.893279 144.371314
L 215.000654 144.371314
z
" clip-path="url(#paa10f80d34)" style="fill: #0072b2; stroke: #ffffff; stroke-width: 0.25; stroke-linejoin: miter"/>
   </g>
   <g id="patch_16">
    <path d="M 228.965557 144.936
L 239.858182 144.936
L 239.858182 123.775868
L 228.965557 123.775868
z
" clip-path="url(#paa10f80d34)" style="fill: #0072b2; stroke: #ffffff; stroke-width: 0.25; stroke-linejoin: miter"/>
   </g>
   <g id="patch_17">
    <path d="M 47.421818 142.855579
L 58.314443 142.855579
L 58.314443 142.855579
L 47.421818 142.855579
z
" clip-path="url(#paa10f80d34)" style="fill: #e69f00; stroke: #ffffff; stroke-width: 0.25; stroke-linejoin: miter"/>
   </g>
   <g id="patch_18">
    <path d="M 61.386721 142.898474
L 72.279346 142.898474
L 72.279346 142.898474
L 61.386721 142.898474
z
" clip-path="url(#paa10f80d34)" style="fill: #e69f00; stroke: #ffffff; stroke-width: 0.25; stroke-linejoin: miter"/>
   </g>
   <g id="patch_19">
    <path d="M 75.351624 140.775158
L 86.244249 140.775158
L 86.244249 140.775158
L 75.351624 140.775158
z
" clip-path="url(#paa10f80d34)" style="fill: #e69f00; stroke: #ffffff; stroke-width: 0.25; stroke-linejoin: miter"/>
   </g>
   <g id="patch_20">
    <path d="M 89.316527 142.228603
L 100.209152 142.228603
L 100.209152 142.228603
L 89.316527 142.228603
z
" clip-path="url(#paa10f80d34)" style="fill: #e69f00; stroke: #ffffff; stroke-width: 0.25; stroke-linejoin: miter"/>
   </g>
   <g id="patch_21">
    <path d="M 103.28143 127.749913
L 114.174055 127.749913
L 114.174055 127.749913
L 103.28143 127.749913
z
" clip-path="url(#paa10f80d34)" style="fill: #e69f00; stroke: #ffffff; stroke-width: 0.25; stroke-linejoin: miter"/>
   </g>
   <g id="patch_22">
    <path d="M 117.246333 131.76
L 128.138958 131.76
L 128.138958 131.76
L 117.246333 131.76
z
" clip-path="url(#paa10f80d34)" style="fill: #e69f00; stroke: #ffffff; stroke-width: 0.25; stroke-linejoin: miter"/>
   </g>
   <g id="patch_23">
    <path d="M 131.211236 132.5835
L 142.103861 132.5835
L 142.103861 132.5835
L 131.211236 132.5835
z
" clip-path="url(#paa10f80d34)" style="fill: #e69f00; stroke: #ffffff; stroke-width: 0.25; stroke-linejoin: miter"/>
   </g>
   <g id="patch_24">
    <path d="M 145.176139 133.310118
L 156.068764 133.310118
L 156.068764 133.310118
L 145.176139 133.310118
z
" clip-path="url(#paa10f80d34)" style="fill: #e69f00; stroke: #ffffff; stroke-width: 0.25; stroke-linejoin: miter"/>
   </g>
   <g id="patch_25">
    <path d="M 159.141042 142.87725
L 170.033667 142.87725
L 170.033667 142.87725
L 159.141042 142.87725
z
" clip-path="url(#paa10f80d34)" style="fill: #e69f00; stroke: #ffffff; stroke-width: 0.25; stroke-linejoin: miter"/>
   </g>
   <g id="patch_26">
    <path d="M 173.105945 126.872129
L 183.99857 126.872129
L 183.99857 126.872129
L 173.105945 126.872129
z
" clip-path="url(#paa10f80d34)" style="fill: #e69f00; stroke: #ffffff; stroke-width: 0.25; stroke-linejoin: miter"/>
   </g>
   <g id="patch_27">
    <path d="M 187.070848 144.522527
L 197.963473 144.522527
L 197.963473 111.03123
L 187.070848 111.03123
z
" clip-path="url(#paa10f80d34)" style="fill: #e69f00; stroke: #ffffff; stroke-width: 0.25; stroke-linejoin: miter"/>
   </g>
   <g id="patch_28">
    <path d="M 201.035751 144.936
L 211.928376 144.936
L 211.928376 110.508387
L 201.035751 110.508387
z
" clip-path="url(#paa10f80d34)" style="fill: #e69f00; stroke: #ffffff; stroke-width: 0.25; stroke-linejoin: miter"/>
   </g>
   <g id="patch_29">
    <path d="M 215.000654 144.371314
L 225.893279 144.371314
L 225.893279 114.442971
L 215.000654 114.442971
z
" clip-path="url(#paa10f80d34)" style="fill: #e69f00; stroke: #ffffff; stroke-width: 0.25; stroke-linejoin: miter"/>
   </g>
   <g id="patch_30">
    <path d="M 228.965557 123.775868
L 239.858182 123.775868
L 239.858182 123.557722
L 228.965557 123.557722
z
" clip-path="url(#paa10f80d34)" style="fill: #e69f00; stroke: #ffffff; stroke-width: 0.25; stroke-linejoin: miter"/>
   </g>
   <g id="patch_31">
    <path d="M 47.421818 142.855579
L 58.314443 142.855579
L 58.314443 141.815368
L 47.421818 141.815368
z
" clip-path="url(#paa10f80d34)" style="fill: #009e73; stroke: #ffffff; stroke-width: 0.25; stroke-linejoin: miter"/>
   </g>
   <g id="patch_32">
    <path d="M 61.386721 142.898474
L 72.279346 142.898474
L 72.279346 141.879711
L 61.386721 141.879711
z
" clip-path="url(#paa10f80d34)" style="fill: #009e73; stroke: #ffffff; stroke-width: 0.25; stroke-linejoin: miter"/>
   </g>
   <g id="patch_33">
    <path d="M 75.351624 140.775158
L 86.244249 140.775158
L 86.244249 139.734947
L 75.351624 139.734947
z
" clip-path="url(#paa10f80d34)" style="fill: #009e73; stroke: #ffffff; stroke-width: 0.25; stroke-linejoin: miter"/>
   </g>
   <g id="patch_34">
    <path d="M 89.316527 142.228603
L 100.209152 142.228603
L 100.209152 140.874904
L 89.316527 140.874904
z
" clip-path="url(#paa10f80d34)" style="fill: #009e73; stroke: #ffffff; stroke-width: 0.25; stroke-linejoin: miter"/>
   </g>
   <g id="patch_35">
    <path d="M 103.28143 127.749913
L 114.174055 127.749913
L 114.174055 114.860348
L 103.28143 114.860348
z
" clip-path="url(#paa10f80d34)" style="fill: #009e73; stroke: #ffffff; stroke-width: 0.25; stroke-linejoin: miter"/>
   </g>
   <g id="patch_36">
    <path d="M 117.246333 131.76
L 128.138958 131.76
L 128.138958 128.466
L 117.246333 128.466
z
" clip-path="url(#paa10f80d34)" style="fill: #009e73; stroke: #ffffff; stroke-width: 0.25; stroke-linejoin: miter"/>
   </g>
   <g id="patch_37">
    <path d="M 131.211236 132.5835
L 142.103861 132.5835
L 142.103861 131.039437
L 131.211236 131.039437
z
" clip-path="url(#paa10f80d34)" style="fill: #009e73; stroke: #ffffff; stroke-width: 0.25; stroke-linejoin: miter"/>
   </g>
   <g id="patch_38">
    <path d="M 145.176139 133.310118
L 156.068764 133.310118
L 156.068764 127.497176
L 145.176139 127.497176
z
" clip-path="url(#paa10f80d34)" style="fill: #009e73; stroke: #ffffff; stroke-width: 0.25; stroke-linejoin: miter"/>
   </g>
   <g id="patch_39">
    <path d="M 159.141042 142.87725
L 170.033667 142.87725
L 170.033667 142.87725
L 159.141042 142.87725
z
" clip-path="url(#paa10f80d34)" style="fill: #009e73; stroke: #ffffff; stroke-width: 0.25; stroke-linejoin: miter"/>
   </g>
   <g id="patch_40">
    <path d="M 173.105945 126.872129
L 183.99857 126.872129
L 183.99857 125.809548
L 173.105945 125.809548
z
" clip-path="url(#paa10f80d34)" style="fill: #009e73; stroke: #ffffff; stroke-width: 0.25; stroke-linejoin: miter"/>
   </g>
   <g id="patch_41">
    <path d="M 187.070848 111.03123
L 197.963473 111.03123
L 197.963473 84.155498
L 187.070848 84.155498
z
" clip-path="url(#paa10f80d34)" style="fill: #009e73; stroke: #ffffff; stroke-width: 0.25; stroke-linejoin: miter"/>
   </g>
   <g id="patch_42">
    <path d="M 201.035751 110.508387
L 211.928376 110.508387
L 211.928376 87.556645
L 201.035751 87.556645
z
" clip-path="url(#paa10f80d34)" style="fill: #009e73; stroke: #ffffff; stroke-width: 0.25; stroke-linejoin: miter"/>
   </g>
   <g id="patch_43">
    <path d="M 215.000654 114.442971
L 225.893279 114.442971
L 225.893279 86.773371
L 215.000654 86.773371
z
" clip-path="url(#paa10f80d34)" style="fill: #009e73; stroke: #ffffff; stroke-width: 0.25; stroke-linejoin: miter"/>
   </g>
   <g id="patch_44">
    <path d="M 228.965557 123.557722
L 239.858182 123.557722
L 239.858182 123.339576
L 228.965557 123.339576
z
" clip-path="url(#paa10f80d34)" style="fill: #009e73; stroke: #ffffff; stroke-width: 0.25; stroke-linejoin: miter"/>
   </g>
   <g id="patch_45">
    <path d="M 47.421818 141.815368
L 58.314443 141.815368
L 58.314443 141.815368
L 47.421818 141.815368
z
" clip-path="url(#paa10f80d34)" style="fill: #cc79a7; stroke: #ffffff; stroke-width: 0.25; stroke-linejoin: miter"/>
   </g>
   <g id="patch_46">
    <path d="M 61.386721 141.879711
L 72.279346 141.879711
L 72.279346 141.879711
L 61.386721 141.879711
z
" clip-path="url(#paa10f80d34)" style="fill: #cc79a7; stroke: #ffffff; stroke-width: 0.25; stroke-linejoin: miter"/>
   </g>
   <g id="patch_47">
    <path d="M 75.351624 139.734947
L 86.244249 139.734947
L 86.244249 139.734947
L 75.351624 139.734947
z
" clip-path="url(#paa10f80d34)" style="fill: #cc79a7; stroke: #ffffff; stroke-width: 0.25; stroke-linejoin: miter"/>
   </g>
   <g id="patch_48">
    <path d="M 89.316527 140.874904
L 100.209152 140.874904
L 100.209152 140.874904
L 89.316527 140.874904
z
" clip-path="url(#paa10f80d34)" style="fill: #cc79a7; stroke: #ffffff; stroke-width: 0.25; stroke-linejoin: miter"/>
   </g>
   <g id="patch_49">
    <path d="M 103.28143 114.860348
L 114.174055 114.860348
L 114.174055 114.860348
L 103.28143 114.860348
z
" clip-path="url(#paa10f80d34)" style="fill: #cc79a7; stroke: #ffffff; stroke-width: 0.25; stroke-linejoin: miter"/>
   </g>
   <g id="patch_50">
    <path d="M 117.246333 128.466
L 128.138958 128.466
L 128.138958 128.466
L 117.246333 128.466
z
" clip-path="url(#paa10f80d34)" style="fill: #cc79a7; stroke: #ffffff; stroke-width: 0.25; stroke-linejoin: miter"/>
   </g>
   <g id="patch_51">
    <path d="M 131.211236 131.039437
L 142.103861 131.039437
L 142.103861 131.039437
L 131.211236 131.039437
z
" clip-path="url(#paa10f80d34)" style="fill: #cc79a7; stroke: #ffffff; stroke-width: 0.25; stroke-linejoin: miter"/>
   </g>
   <g id="patch_52">
    <path d="M 145.176139 127.497176
L 156.068764 127.497176
L 156.068764 127.497176
L 145.176139 127.497176
z
" clip-path="url(#paa10f80d34)" style="fill: #cc79a7; stroke: #ffffff; stroke-width: 0.25; stroke-linejoin: miter"/>
   </g>
   <g id="patch_53">
    <path d="M 159.141042 142.87725
L 170.033667 142.87725
L 170.033667 142.87725
L 159.141042 142.87725
z
" clip-path="url(#paa10f80d34)" style="fill: #cc79a7; stroke: #ffffff; stroke-width: 0.25; stroke-linejoin: miter"/>
   </g>
   <g id="patch_54">
    <path d="M 173.105945 125.809548
L 183.99857 125.809548
L 183.99857 118.371484
L 173.105945 118.371484
z
" clip-path="url(#paa10f80d34)" style="fill: #cc79a7; stroke: #ffffff; stroke-width: 0.25; stroke-linejoin: miter"/>
   </g>
   <g id="patch_55">
    <path d="M 187.070848 84.155498
L 197.963473 84.155498
L 197.963473 84.155498
L 187.070848 84.155498
z
" clip-path="url(#paa10f80d34)" style="fill: #cc79a7; stroke: #ffffff; stroke-width: 0.25; stroke-linejoin: miter"/>
   </g>
   <g id="patch_56">
    <path d="M 201.035751 87.556645
L 211.928376 87.556645
L 211.928376 87.556645
L 201.035751 87.556645
z
" clip-path="url(#paa10f80d34)" style="fill: #cc79a7; stroke: #ffffff; stroke-width: 0.25; stroke-linejoin: miter"/>
   </g>
   <g id="patch_57">
    <path d="M 215.000654 86.773371
L 225.893279 86.773371
L 225.893279 86.773371
L 215.000654 86.773371
z
" clip-path="url(#paa10f80d34)" style="fill: #cc79a7; stroke: #ffffff; stroke-width: 0.25; stroke-linejoin: miter"/>
   </g>
   <g id="patch_58">
    <path d="M 228.965557 123.339576
L 239.858182 123.339576
L 239.858182 115.268185
L 228.965557 115.268185
z
" clip-path="url(#paa10f80d34)" style="fill: #cc79a7; stroke: #ffffff; stroke-width: 0.25; stroke-linejoin: miter"/>
   </g>
   <g id="patch_59">
    <path d="M 47.421818 141.815368
L 58.314443 141.815368
L 58.314443 116.850316
L 47.421818 116.850316
z
" clip-path="url(#paa10f80d34)" style="fill: #56b4e9; stroke: #ffffff; stroke-width: 0.25; stroke-linejoin: miter"/>
   </g>
   <g id="patch_60">
    <path d="M 61.386721 141.879711
L 72.279346 141.879711
L 72.279346 103.166722
L 61.386721 103.166722
z
" clip-path="url(#paa10f80d34)" style="fill: #56b4e9; stroke: #ffffff; stroke-width: 0.25; stroke-linejoin: miter"/>
   </g>
   <g id="patch_61">
    <path d="M 75.351624 139.734947
L 86.244249 139.734947
L 86.244249 100.206947
L 75.351624 100.206947
z
" clip-path="url(#paa10f80d34)" style="fill: #56b4e9; stroke: #ffffff; stroke-width: 0.25; stroke-linejoin: miter"/>
   </g>
   <g id="patch_62">
    <path d="M 89.316527 140.874904
L 100.209152 140.874904
L 100.209152 108.386137
L 89.316527 108.386137
z
" clip-path="url(#paa10f80d34)" style="fill: #56b4e9; stroke: #ffffff; stroke-width: 0.25; stroke-linejoin: miter"/>
   </g>
   <g id="patch_63">
    <path d="M 103.28143 114.860348
L 114.174055 114.860348
L 114.174055 89.081217
L 103.28143 89.081217
z
" clip-path="url(#paa10f80d34)" style="fill: #56b4e9; stroke: #ffffff; stroke-width: 0.25; stroke-linejoin: miter"/>
   </g>
   <g id="patch_64">
    <path d="M 117.246333 128.466
L 128.138958 128.466
L 128.138958 102.114
L 117.246333 102.114
z
" clip-path="url(#paa10f80d34)" style="fill: #56b4e9; stroke: #ffffff; stroke-width: 0.25; stroke-linejoin: miter"/>
   </g>
   <g id="patch_65">
    <path d="M 131.211236 131.039437
L 142.103861 131.039437
L 142.103861 90.893812
L 131.211236 90.893812
z
" clip-path="url(#paa10f80d34)" style="fill: #56b4e9; stroke: #ffffff; stroke-width: 0.25; stroke-linejoin: miter"/>
   </g>
   <g id="patch_66">
    <path d="M 145.176139 127.497176
L 156.068764 127.497176
L 156.068764 110.058353
L 145.176139 110.058353
z
" clip-path="url(#paa10f80d34)" style="fill: #56b4e9; stroke: #ffffff; stroke-width: 0.25; stroke-linejoin: miter"/>
   </g>
   <g id="patch_67">
    <path d="M 159.141042 142.87725
L 170.033667 142.87725
L 170.033667 109.93725
L 159.141042 109.93725
z
" clip-path="url(#paa10f80d34)" style="fill: #56b4e9; stroke: #ffffff; stroke-width: 0.25; stroke-linejoin: miter"/>
   </g>
   <g id="patch_68">
    <path d="M 173.105945 118.371484
L 183.99857 118.371484
L 183.99857 90.744387
L 173.105945 90.744387
z
" clip-path="url(#paa10f80d34)" style="fill: #56b4e9; stroke: #ffffff; stroke-width: 0.25; stroke-linejoin: miter"/>
   </g>
   <g id="patch_69">
    <path d="M 187.070848 84.155498
L 197.963473 84.155498
L 197.963473 83.742025
L 187.070848 83.742025
z
" clip-path="url(#paa10f80d34)" style="fill: #56b4e9; stroke: #ffffff; stroke-width: 0.25; stroke-linejoin: miter"/>
   </g>
   <g id="patch_70">
    <path d="M 201.035751 87.556645
L 211.928376 87.556645
L 211.928376 86.919097
L 201.035751 86.919097
z
" clip-path="url(#paa10f80d34)" style="fill: #56b4e9; stroke: #ffffff; stroke-width: 0.25; stroke-linejoin: miter"/>
   </g>
   <g id="patch_71">
    <path d="M 215.000654 86.773371
L 225.893279 86.773371
L 225.893279 86.773371
L 215.000654 86.773371
z
" clip-path="url(#paa10f80d34)" style="fill: #56b4e9; stroke: #ffffff; stroke-width: 0.25; stroke-linejoin: miter"/>
   </g>
   <g id="patch_72">
    <path d="M 228.965557 115.268185
L 239.858182 115.268185
L 239.858182 85.600371
L 228.965557 85.600371
z
" clip-path="url(#paa10f80d34)" style="fill: #56b4e9; stroke: #ffffff; stroke-width: 0.25; stroke-linejoin: miter"/>
   </g>
   <g id="patch_73">
    <path d="M 47.421818 116.850316
L 58.314443 116.850316
L 58.314443 46.116
L 47.421818 46.116
z
" clip-path="url(#paa10f80d34)" style="fill: #d55e00; stroke: #ffffff; stroke-width: 0.25; stroke-linejoin: miter"/>
   </g>
   <g id="patch_74">
    <path d="M 61.386721 103.166722
L 72.279346 103.166722
L 72.279346 46.116
L 61.386721 46.116
z
" clip-path="url(#paa10f80d34)" style="fill: #d55e00; stroke: #ffffff; stroke-width: 0.25; stroke-linejoin: miter"/>
   </g>
   <g id="patch_75">
    <path d="M 75.351624 100.206947
L 86.244249 100.206947
L 86.244249 46.116
L 75.351624 46.116
z
" clip-path="url(#paa10f80d34)" style="fill: #d55e00; stroke: #ffffff; stroke-width: 0.25; stroke-linejoin: miter"/>
   </g>
   <g id="patch_76">
    <path d="M 89.316527 108.386137
L 100.209152 108.386137
L 100.209152 46.116
L 89.316527 46.116
z
" clip-path="url(#paa10f80d34)" style="fill: #d55e00; stroke: #ffffff; stroke-width: 0.25; stroke-linejoin: miter"/>
   </g>
   <g id="patch_77">
    <path d="M 103.28143 89.081217
L 114.174055 89.081217
L 114.174055 46.116
L 103.28143 46.116
z
" clip-path="url(#paa10f80d34)" style="fill: #d55e00; stroke: #ffffff; stroke-width: 0.25; stroke-linejoin: miter"/>
   </g>
   <g id="patch_78">
    <path d="M 117.246333 102.114
L 128.138958 102.114
L 128.138958 46.116
L 117.246333 46.116
z
" clip-path="url(#paa10f80d34)" style="fill: #d55e00; stroke: #ffffff; stroke-width: 0.25; stroke-linejoin: miter"/>
   </g>
   <g id="patch_79">
    <path d="M 131.211236 90.893812
L 142.103861 90.893812
L 142.103861 46.116
L 131.211236 46.116
z
" clip-path="url(#paa10f80d34)" style="fill: #d55e00; stroke: #ffffff; stroke-width: 0.25; stroke-linejoin: miter"/>
   </g>
   <g id="patch_80">
    <path d="M 145.176139 110.058353
L 156.068764 110.058353
L 156.068764 46.116
L 145.176139 46.116
z
" clip-path="url(#paa10f80d34)" style="fill: #d55e00; stroke: #ffffff; stroke-width: 0.25; stroke-linejoin: miter"/>
   </g>
   <g id="patch_81">
    <path d="M 159.141042 109.93725
L 170.033667 109.93725
L 170.033667 46.116
L 159.141042 46.116
z
" clip-path="url(#paa10f80d34)" style="fill: #d55e00; stroke: #ffffff; stroke-width: 0.25; stroke-linejoin: miter"/>
   </g>
   <g id="patch_82">
    <path d="M 173.105945 90.744387
L 183.99857 90.744387
L 183.99857 46.116
L 173.105945 46.116
z
" clip-path="url(#paa10f80d34)" style="fill: #d55e00; stroke: #ffffff; stroke-width: 0.25; stroke-linejoin: miter"/>
   </g>
   <g id="patch_83">
    <path d="M 187.070848 83.742025
L 197.963473 83.742025
L 197.963473 46.116
L 187.070848 46.116
z
" clip-path="url(#paa10f80d34)" style="fill: #d55e00; stroke: #ffffff; stroke-width: 0.25; stroke-linejoin: miter"/>
   </g>
   <g id="patch_84">
    <path d="M 201.035751 86.919097
L 211.928376 86.919097
L 211.928376 46.116
L 201.035751 46.116
z
" clip-path="url(#paa10f80d34)" style="fill: #d55e00; stroke: #ffffff; stroke-width: 0.25; stroke-linejoin: miter"/>
   </g>
   <g id="patch_85">
    <path d="M 215.000654 86.773371
L 225.893279 86.773371
L 225.893279 46.116
L 215.000654 46.116
z
" clip-path="url(#paa10f80d34)" style="fill: #d55e00; stroke: #ffffff; stroke-width: 0.25; stroke-linejoin: miter"/>
   </g>
   <g id="patch_86">
    <path d="M 228.965557 85.600371
L 239.858182 85.600371
L 239.858182 46.116
L 228.965557 46.116
z
" clip-path="url(#paa10f80d34)" style="fill: #d55e00; stroke: #ffffff; stroke-width: 0.25; stroke-linejoin: miter"/>
   </g>
   <g id="patch_87">
    <path d="M 37.8 144.936
L 37.8 46.116
" style="fill: none; stroke: #000000; stroke-width: 0.7; stroke-linejoin: miter; stroke-linecap: square"/>
   </g>
   <g id="patch_88">
    <path d="M 249.48 144.936
L 249.48 46.116
" style="fill: none; stroke: #000000; stroke-width: 0.7; stroke-linejoin: miter; stroke-linecap: square"/>
   </g>
   <g id="patch_89">
    <path d="M 37.8 144.936
L 249.48 144.936
" style="fill: none; stroke: #000000; stroke-width: 0.7; stroke-linejoin: miter; stroke-linecap: square"/>
   </g>
   <g id="patch_90">
    <path d="M 37.8 46.116
L 249.48 46.116
" style="fill: none; stroke: #000000; stroke-width: 0.7; stroke-linejoin: miter; stroke-linecap: square"/>
   </g>
   <g id="legend_1">
    <g id="patch_91">
     <path d="M 53.1975 28.731706
L 60.3975 28.731706
L 60.3975 23.131706
L 53.1975 23.131706
z
" style="fill: #0072b2; stroke: #ffffff; stroke-width: 0.25; stroke-linejoin: miter"/>
    </g>
    <g id="text_22">
     <text style="font-size: 8px; font-family: 'Arial', 'DejaVu Sans', sans-serif; text-anchor: start" x="63.1975" y="28.731706" transform="rotate(-0 63.1975 28.731706)">SpMM/MatMul</text>
    </g>
    <g id="patch_92">
     <path d="M 53.1975 40.239519
L 60.3975 40.239519
L 60.3975 34.639519
L 53.1975 34.639519
z
" style="fill: #e69f00; stroke: #ffffff; stroke-width: 0.25; stroke-linejoin: miter"/>
    </g>
    <g id="text_23">
     <text style="font-size: 8px; font-family: 'Arial', 'DejaVu Sans', sans-serif; text-anchor: start" x="63.1975" y="40.239519" transform="rotate(-0 63.1975 40.239519)">MLP</text>
    </g>
    <g id="patch_93">
     <path d="M 119.9575 28.731706
L 127.1575 28.731706
L 127.1575 23.131706
L 119.9575 23.131706
z
" style="fill: #009e73; stroke: #ffffff; stroke-width: 0.25; stroke-linejoin: miter"/>
    </g>
    <g id="text_24">
     <text style="font-size: 8px; font-family: 'Arial', 'DejaVu Sans', sans-serif; text-anchor: start" x="129.9575" y="28.731706" transform="rotate(-0 129.9575 28.731706)">Activation</text>
    </g>
    <g id="patch_94">
     <path d="M 119.9575 40.239519
L 127.1575 40.239519
L 127.1575 34.639519
L 119.9575 34.639519
z
" style="fill: #cc79a7; stroke: #ffffff; stroke-width: 0.25; stroke-linejoin: miter"/>
    </g>
    <g id="text_25">
     <text style="font-size: 8px; font-family: 'Arial', 'DejaVu Sans', sans-serif; text-anchor: start" x="129.9575" y="40.239519" transform="rotate(-0 129.9575 40.239519)">Attention</text>
    </g>
    <g id="patch_95">
     <path d="M 169.84 28.731706
L 177.04 28.731706
L 177.04 23.131706
L 169.84 23.131706
z
" style="fill: #56b4e9; stroke: #ffffff; stroke-width: 0.25; stroke-linejoin: miter"/>
    </g>
    <g id="text_26">
     <text style="font-size: 8px; font-family: 'Arial', 'DejaVu Sans', sans-serif; text-anchor: start" x="179.84" y="28.731706" transform="rotate(-0 179.84 28.731706)">Memory/Shape</text>
    </g>
    <g id="patch_96">
     <path d="M 169.84 40.244206
L 177.04 40.244206
L 177.04 34.644206
L 169.84 34.644206
z
" style="fill: #d55e00; stroke: #ffffff; stroke-width: 0.25; stroke-linejoin: miter"/>
    </g>
    <g id="text_27">
     <text style="font-size: 8px; font-family: 'Arial', 'DejaVu Sans', sans-serif; text-anchor: start" x="179.84" y="40.244206" transform="rotate(-0 179.84 40.244206)">Other</text>
    </g>
   </g>
  </g>
 </g>
 <defs>
  <clipPath id="paa10f80d34">
   <rect x="37.8" y="46.116" width="211.68" height="98.82"/>
  </clipPath>
 </defs>
</svg>
