<?xml version="1.0" encoding="utf-8" standalone="no"?>
<!DOCTYPE svg PUBLIC "-//W3C//DTD SVG 1.1//EN"
  "http://www.w3.org/Graphics/SVG/1.1/DTD/svg11.dtd">
<svg xmlns:xlink="http://www.w3.org/1999/xlink" width="241.662031pt" height="145.162958pt" viewBox="0 0 241.662031 145.162958" xmlns="http://www.w3.org/2000/svg" version="1.1">
 <metadata>
  <rdf:RDF xmlns:dc="http://purl.org/dc/elements/1.1/" xmlns:cc="http://creativecommons.org/ns#" xmlns:rdf="http://www.w3.org/1999/02/22-rdf-syntax-ns#">
   <cc:Work>
    <dc:type rdf:resource="http://purl.org/dc/dcmitype/StillImage"/>
    <dc:format>image/svg+xml</dc:format>
    <dc:creator>
     <cc:Agent>
      <dc:title>generate_ieee_paper_figures.py</dc:title>
     </cc:Agent>
    </dc:creator>
   </cc:Work>
  </rdf:RDF>
 </metadata>
 <defs>
  <style type="text/css">*{stroke-linejoin: round; stroke-linecap: butt}</style>
 </defs>
 <g id="figure_1">
  <g id="patch_1">
   <path d="M 0 145.162958
L 241.662031 145.162958
L 241.662031 0
L 0 0
z
" style="fill: #ffffff"/>
  </g>
  <g id="axes_1">
   <g id="patch_2">
    <path d="M 28.542031 104.4
L 240.222031 104.4
L 240.222031 1.44
L 28.542031 1.44
z
" style="fill: #ffffff"/>
   </g>
   <g id="matplotlib.axis_1">
    <g id="xtick_1">
     <g id="line2d_1">
      <defs>
       <path id="m5322cc1f83" d="M 0 0
L 0 2.5
" style="stroke: #000000; stroke-width: 0.7"/>
      </defs>
      <g>
       <use xlink:href="#m5322cc1f83" x="43.2132" y="104.4" style="stroke: #000000; stroke-width: 0.7"/>
      </g>
     </g>
     <g id="text_1">
      <text style="font-size: 8px; font-family: 'Arial', 'DejaVu Sans', sans-serif; text-anchor: end" x="48.35568" y="111.134305" transform="rotate(-62 48.35568 111.134305)">APPNP</text>
     </g>
    </g>
    <g id="xtick_2">
     <g id="line2d_2">
      <g>
       <use xlink:href="#m5322cc1f83" x="57.239174" y="104.4" style="stroke: #000000; stroke-width: 0.7"/>
      </g>
     </g>
     <g id="text_2">
      <text style="font-size: 8px; font-family: 'Arial', 'DejaVu Sans', sans-serif; text-anchor: end" x="62.381654" y="111.134305" transform="rotate(-62 62.381654 111.134305)">GAT</text>
     </g>
    </g>
    <g id="xtick_3">
     <g id="line2d_3">
      <g>
       <use xlink:href="#m5322cc1f83" x="71.265148" y="104.4" style="stroke: #000000; stroke-width: 0.7"/>
      </g>
     </g>
     <g id="text_3">
      <text style="font-size: 8px; font-family: 'Arial', 'DejaVu Sans', sans-serif; text-anchor: end" x="76.407628" y="111.134305" transform="rotate(-62 76.407628 111.134305)">GATv2</text>
     </g>
    </g>
    <g id="xtick_4">
     <g id="line2d_4">
      <g>
       <use xlink:href="#m5322cc1f83" x="85.291122" y="104.4" style="stroke: #000000; stroke-width: 0.7"/>
      </g>
     </g>
     <g id="text_4">
      <text style="font-size: 8px; font-family: 'Arial', 'DejaVu Sans', sans-serif; text-anchor: end" x="90.433602" y="111.134305" transform="rotate(-62 90.433602 111.134305)">GCN</text>
     </g>
    </g>
    <g id="xtick_5">
     <g id="line2d_5">
      <g>
       <use xlink:href="#m5322cc1f83" x="99.317096" y="104.4" style="stroke: #000000; stroke-width: 0.7"/>
      </g>
     </g>
     <g id="text_5">
      <text style="font-size: 8px; font-family: 'Arial', 'DejaVu Sans', sans-serif; text-anchor: end" x="104.459576" y="111.134305" transform="rotate(-62 104.459576 111.134305)">GIN</text>
     </g>
    </g>
    <g id="xtick_6">
     <g id="line2d_6">
      <g>
       <use xlink:href="#m5322cc1f83" x="113.34307" y="104.4" style="stroke: #000000; stroke-width: 0.7"/>
      </g>
     </g>
     <g id="text_6">
      <text style="font-size: 8px; font-family: 'Arial', 'DejaVu Sans', sans-serif; text-anchor: end" x="118.48555" y="111.134305" transform="rotate(-62 118.48555 111.134305)">G-SAGE</text>
     </g>
    </g>
    <g id="xtick_7">
     <g id="line2d_7">
      <g>
       <use xlink:href="#m5322cc1f83" x="127.369044" y="104.4" style="stroke: #000000; stroke-width: 0.7"/>
      </g>
     </g>
     <g id="text_7">
      <text style="font-size: 8px; font-family: 'Arial', 'DejaVu Sans', sans-serif; text-anchor: end" x="132.511524" y="111.134305" transform="rotate(-62 132.511524 111.134305)">G-Trans</text>
     </g>
    </g>
    <g id="xtick_8">
     <g id="line2d_8">
      <g>
       <use xlink:href="#m5322cc1f83" x="141.395018" y="104.4" style="stroke: #000000; stroke-width: 0.7"/>
      </g>
     </g>
     <g id="text_8">
      <text style="font-size: 8px; font-family: 'Arial', 'DejaVu Sans', sans-serif; text-anchor: end" x="146.537498" y="111.134305" transform="rotate(-62 146.537498 111.134305)">MPNN</text>
     </g>
    </g>
    <g id="xtick_9">
     <g id="line2d_9">
      <g>
       <use xlink:href="#m5322cc1f83" x="155.420992" y="104.4" style="stroke: #000000; stroke-width: 0.7"/>
      </g>
     </g>
     <g id="text_9">
      <text style="font-size: 8px; font-family: 'Arial', 'DejaVu Sans', sans-serif; text-anchor: end" x="160.563472" y="111.134305" transform="rotate(-62 160.563472 111.134305)">SGC</text>
     </g>
    </g>
    <g id="xtick_10">
     <g id="line2d_10">
      <g>
       <use xlink:href="#m5322cc1f83" x="169.446966" y="104.4" style="stroke: #000000; stroke-width: 0.7"/>
      </g>
     </g>
     <g id="text_10">
      <text style="font-size: 8px; font-family: 'Arial', 'DejaVu Sans', sans-serif; text-anchor: end" x="174.589446" y="111.134305" transform="rotate(-62 174.589446 111.134305)">BERT-T</text>
     </g>
    </g>
    <g id="xtick_11">
     <g id="line2d_11">
      <g>
       <use xlink:href="#m5322cc1f83" x="183.47294" y="104.4" style="stroke: #000000; stroke-width: 0.7"/>
      </g>
     </g>
     <g id="text_11">
      <text style="font-size: 8px; font-family: 'Arial', 'DejaVu Sans', sans-serif; text-anchor: end" x="188.61542" y="111.134305" transform="rotate(-62 188.61542 111.134305)">EffNet</text>
     </g>
    </g>
    <g id="xtick_12">
     <g id="line2d_12">
      <g>
       <use xlink:href="#m5322cc1f83" x="197.498914" y="104.4" style="stroke: #000000; stroke-width: 0.7"/>
      </g>
     </g>
     <g id="text_12">
      <text style="font-size: 8px; font-family: 'Arial', 'DejaVu Sans', sans-serif; text-anchor: end" x="202.641394" y="111.134305" transform="rotate(-62 202.641394 111.134305)">MobileNet</text>
     </g>
    </g>
    <g id="xtick_13">
     <g id="line2d_13">
      <g>
       <use xlink:href="#m5322cc1f83" x="211.524888" y="104.4" style="stroke: #000000; stroke-width: 0.7"/>
      </g>
     </g>
     <g id="text_13">
      <text style="font-size: 8px; font-family: 'Arial', 'DejaVu Sans', sans-serif; text-anchor: end" x="216.667368" y="111.134305" transform="rotate(-62 216.667368 111.134305)">ResNet50</text>
     </g>
    </g>
    <g id="xtick_14">
     <g id="line2d_14">
      <g>
       <use xlink:href="#m5322cc1f83" x="225.550862" y="104.4" style="stroke: #000000; stroke-width: 0.7"/>
      </g>
     </g>
     <g id="text_14">
      <text style="font-size: 8px; font-family: 'Arial', 'DejaVu Sans', sans-serif; text-anchor: end" x="230.693342" y="111.134305" transform="rotate(-62 230.693342 111.134305)">ViT-T</text>
     </g>
    </g>
   </g>
   <g id="matplotlib.axis_2">
    <g id="ytick_1">
     <g id="line2d_15">
      <path d="M 28.542031 104.4
L 240.222031 104.4
" clip-path="url(#p9bbfea1d90)" style="fill: none; stroke-dasharray: 1.48,0.64; stroke-dashoffset: 0; stroke: #b8b8b8; stroke-opacity: 0.35; stroke-width: 0.4"/>
     </g>
     <g id="line2d_16">
      <defs>
       <path id="m4a3032c1a7" d="M 0 0
L -2.5 0
" style="stroke: #000000; stroke-width: 0.7"/>
      </defs>
      <g>
       <use xlink:href="#m4a3032c1a7" x="28.542031" y="104.4" style="stroke: #000000; stroke-width: 0.7"/>
      </g>
     </g>
     <g id="text_15">
      <text style="font-size: 8px; font-family: 'Arial', 'DejaVu Sans', sans-serif; text-anchor: end" x="24.542031" y="107.312109" transform="rotate(-0 24.542031 107.312109)">0.0</text>
     </g>
    </g>
    <g id="ytick_2">
     <g id="line2d_17">
      <path d="M 28.542031 86.756683
L 240.222031 86.756683
" clip-path="url(#p9bbfea1d90)" style="fill: none; stroke-dasharray: 1.48,0.64; stroke-dashoffset: 0; stroke: #b8b8b8; stroke-opacity: 0.35; stroke-width: 0.4"/>
     </g>
     <g id="line2d_18">
      <g>
       <use xlink:href="#m4a3032c1a7" x="28.542031" y="86.756683" style="stroke: #000000; stroke-width: 0.7"/>
      </g>
     </g>
     <g id="text_16">
      <text style="font-size: 8px; font-family: 'Arial', 'DejaVu Sans', sans-serif; text-anchor: end" x="24.542031" y="89.668793" transform="rotate(-0 24.542031 89.668793)">0.2</text>
     </g>
    </g>
    <g id="ytick_3">
     <g id="line2d_19">
      <path d="M 28.542031 69.113367
L 240.222031 69.113367
" clip-path="url(#p9bbfea1d90)" style="fill: none; stroke-dasharray: 1.48,0.64; stroke-dashoffset: 0; stroke: #b8b8b8; stroke-opacity: 0.35; stroke-width: 0.4"/>
     </g>
     <g id="line2d_20">
      <g>
       <use xlink:href="#m4a3032c1a7" x="28.542031" y="69.113367" style="stroke: #000000; stroke-width: 0.7"/>
      </g>
     </g>
     <g id="text_17">
      <text style="font-size: 8px; font-family: 'Arial', 'DejaVu Sans', sans-serif; text-anchor: end" x="24.542031" y="72.025476" transform="rotate(-0 24.542031 72.025476)">0.4</text>
     </g>
    </g>
    <g id="ytick_4">
     <g id="line2d_21">
      <path d="M 28.542031 51.47005
L 240.222031 51.47005
" clip-path="url(#p9bbfea1d90)" style="fill: none; stroke-dasharray: 1.48,0.64; stroke-dashoffset: 0; stroke: #b8b8b8; stroke-opacity: 0.35; stroke-width: 0.4"/>
     </g>
     <g id="line2d_22">
      <g>
       <use xlink:href="#m4a3032c1a7" x="28.542031" y="51.47005" style="stroke: #000000; stroke-width: 0.7"/>
      </g>
     </g>
     <g id="text_18">
      <text style="font-size: 8px; font-family: 'Arial', 'DejaVu Sans', sans-serif; text-anchor: end" x="24.542031" y="54.38216" transform="rotate(-0 24.542031 54.38216)">0.6</text>
     </g>
    </g>
    <g id="ytick_5">
     <g id="line2d_23">
      <path d="M 28.542031 33.826734
L 240.222031 33.826734
" clip-path="url(#p9bbfea1d90)" style="fill: none; stroke-dasharray: 1.48,0.64; stroke-dashoffset: 0; stroke: #b8b8b8; stroke-opacity: 0.35; stroke-width: 0.4"/>
     </g>
     <g id="line2d_24">
      <g>
       <use xlink:href="#m4a3032c1a7" x="28.542031" y="33.826734" style="stroke: #000000; stroke-width: 0.7"/>
      </g>
     </g>
     <g id="text_19">
      <text style="font-size: 8px; font-family: 'Arial', 'DejaVu Sans', sans-serif; text-anchor: end" x="24.542031" y="36.738843" transform="rotate(-0 24.542031 36.738843)">0.8</text>
     </g>
    </g>
    <g id="ytick_6">
     <g id="line2d_25">
      <path d="M 28.542031 16.183417
L 240.222031 16.183417
" clip-path="url(#p9bbfea1d90)" style="fill: none; stroke-dasharray: 1.48,0.64; stroke-dashoffset: 0; stroke: #b8b8b8; stroke-opacity: 0.35; stroke-width: 0.4"/>
     </g>
     <g id="line2d_26">
      <g>
       <use xlink:href="#m4a3032c1a7" x="28.542031" y="16.183417" style="stroke: #000000; stroke-width: 0.7"/>
      </g>
     </g>
     <g id="text_20">
      <text style="font-size: 8px; font-family: 'Arial', 'DejaVu Sans', sans-serif; text-anchor: end" x="24.542031" y="19.095526" transform="rotate(-0 24.542031 19.095526)">1.0</text>
     </g>
    </g>
    <g id="text_21">
     <text style="font-size: 8.5px; font-family: 'Arial', 'DejaVu Sans', sans-serif; text-anchor: middle" x="7.633047" y="52.92" transform="rotate(-90 7.633047 52.92)">Optimization speedup (x)</text>
    </g>
   </g>
   <g id="patch_3">
    <path d="M 38.163849 104.4
L 41.530083 104.4
L 41.530083 16.593624
L 38.163849 16.593624
z
" clip-path="url(#p9bbfea1d90)" style="fill: #0072b2"/>
   </g>
   <g id="patch_4">
    <path d="M 52.189823 104.4
L 55.556057 104.4
L 55.556057 15.121877
L 52.189823 15.121877
z
" clip-path="url(#p9bbfea1d90)" style="fill: #0072b2"/>
   </g>
   <g id="patch_5">
    <path d="M 66.215797 104.4
L 69.582031 104.4
L 69.582031 14.557291
L 66.215797 14.557291
z
" clip-path="url(#p9bbfea1d90)" style="fill: #0072b2"/>
   </g>
   <g id="patch_6">
    <path d="M 80.241772 104.4
L 83.608005 104.4
L 83.608005 16.395137
L 80.241772 16.395137
z
" clip-path="url(#p9bbfea1d90)" style="fill: #0072b2"/>
   </g>
   <g id="patch_7">
    <path d="M 94.267746 104.4
L 97.633979 104.4
L 97.633979 15.71881
L 94.267746 15.71881
z
" clip-path="url(#p9bbfea1d90)" style="fill: #0072b2"/>
   </g>
   <g id="patch_8">
    <path d="M 108.29372 104.4
L 111.659953 104.4
L 111.659953 16.080498
L 108.29372 16.080498
z
" clip-path="url(#p9bbfea1d90)" style="fill: #0072b2"/>
   </g>
   <g id="patch_9">
    <path d="M 122.319694 104.4
L 125.685927 104.4
L 125.685927 17.935986
L 122.319694 17.935986
z
" clip-path="url(#p9bbfea1d90)" style="fill: #0072b2"/>
   </g>
   <g id="patch_10">
    <path d="M 0 0
z
" clip-path="url(#p9bbfea1d90)" style="fill: #0072b2"/>
   </g>
   <g id="patch_11">
    <path d="M 150.371642 104.4
L 153.737875 104.4
L 153.737875 16.03933
L 150.371642 16.03933
z
" clip-path="url(#p9bbfea1d90)" style="fill: #0072b2"/>
   </g>
   <g id="patch_12">
    <path d="M 164.397616 104.4
L 167.763849 104.4
L 167.763849 16.887679
L 164.397616 16.887679
z
" clip-path="url(#p9bbfea1d90)" style="fill: #0072b2"/>
   </g>
   <g id="patch_13">
    <path d="M 178.42359 104.4
L 181.789823 104.4
L 181.789823 14.06916
L 178.42359 14.06916
z
" clip-path="url(#p9bbfea1d90)" style="fill: #0072b2"/>
   </g>
   <g id="patch_14">
    <path d="M 192.449564 104.4
L 195.815797 104.4
L 195.815797 13.681007
L 192.449564 13.681007
z
" clip-path="url(#p9bbfea1d90)" style="fill: #0072b2"/>
   </g>
   <g id="patch_15">
    <path d="M 206.475538 104.4
L 209.841772 104.4
L 209.841772 16.756825
L 206.475538 16.756825
z
" clip-path="url(#p9bbfea1d90)" style="fill: #0072b2"/>
   </g>
   <g id="patch_16">
    <path d="M 220.501512 104.4
L 223.867746 104.4
L 223.867746 8.617375
L 220.501512 8.617375
z
" clip-path="url(#p9bbfea1d90)" style="fill: #0072b2"/>
   </g>
   <g id="patch_17">
    <path d="M 41.530083 104.4
L 44.896317 104.4
L 44.896317 15.421814
L 41.530083 15.421814
z
" clip-path="url(#p9bbfea1d90)" style="fill: #e69f00"/>
   </g>
   <g id="patch_18">
    <path d="M 55.556057 104.4
L 58.922291 104.4
L 58.922291 15.436517
L 55.556057 15.436517
z
" clip-path="url(#p9bbfea1d90)" style="fill: #e69f00"/>
   </g>
   <g id="patch_19">
    <path d="M 69.582031 104.4
L 72.948265 104.4
L 72.948265 15.283608
L 69.582031 15.283608
z
" clip-path="url(#p9bbfea1d90)" style="fill: #e69f00"/>
   </g>
   <g id="patch_20">
    <path d="M 83.608005 104.4
L 86.974239 104.4
L 86.974239 15.671761
L 83.608005 15.671761
z
" clip-path="url(#p9bbfea1d90)" style="fill: #e69f00"/>
   </g>
   <g id="patch_21">
    <path d="M 97.633979 104.4
L 101.000213 104.4
L 101.000213 15.61295
L 97.633979 15.61295
z
" clip-path="url(#p9bbfea1d90)" style="fill: #e69f00"/>
   </g>
   <g id="patch_22">
    <path d="M 111.659953 104.4
L 115.026187 104.4
L 115.026187 15.927589
L 111.659953 15.927589
z
" clip-path="url(#p9bbfea1d90)" style="fill: #e69f00"/>
   </g>
   <g id="patch_23">
    <path d="M 125.685927 104.4
L 129.052161 104.4
L 129.052161 13.942716
L 125.685927 13.942716
z
" clip-path="url(#p9bbfea1d90)" style="fill: #e69f00"/>
   </g>
   <g id="patch_24">
    <path d="M 139.711901 104.4
L 143.078135 104.4
L 143.078135 10.541966
L 139.711901 10.541966
z
" clip-path="url(#p9bbfea1d90)" style="fill: #e69f00"/>
   </g>
   <g id="patch_25">
    <path d="M 153.737875 104.4
L 157.104109 104.4
L 157.104109 16.603916
L 153.737875 16.603916
z
" clip-path="url(#p9bbfea1d90)" style="fill: #e69f00"/>
   </g>
   <g id="patch_26">
    <path d="M 0 0
z
" clip-path="url(#p9bbfea1d90)" style="fill: #e69f00"/>
   </g>
   <g id="patch_27">
    <path d="M 181.789823 104.4
L 185.156057 104.4
L 185.156057 15.548258
L 181.789823 15.548258
z
" clip-path="url(#p9bbfea1d90)" style="fill: #e69f00"/>
   </g>
   <g id="patch_28">
    <path d="M 195.815797 104.4
L 199.182031 104.4
L 199.182031 16.327504
L 195.815797 16.327504
z
" clip-path="url(#p9bbfea1d90)" style="fill: #e69f00"/>
   </g>
   <g id="patch_29">
    <path d="M 209.841772 104.4
L 213.208005 104.4
L 213.208005 16.259871
L 209.841772 16.259871
z
" clip-path="url(#p9bbfea1d90)" style="fill: #e69f00"/>
   </g>
   <g id="patch_30">
    <path d="M 223.867746 104.4
L 227.233979 104.4
L 227.233979 20.717749
L 223.867746 20.717749
z
" clip-path="url(#p9bbfea1d90)" style="fill: #e69f00"/>
   </g>
   <g id="patch_31">
    <path d="M 44.896317 104.4
L 48.262551 104.4
L 48.262551 15.777621
L 44.896317 15.777621
z
" clip-path="url(#p9bbfea1d90)" style="fill: #009e73"/>
   </g>
   <g id="patch_32">
    <path d="M 58.922291 104.4
L 62.288525 104.4
L 62.288525 18.003619
L 58.922291 18.003619
z
" clip-path="url(#p9bbfea1d90)" style="fill: #009e73"/>
   </g>
   <g id="patch_33">
    <path d="M 72.948265 104.4
L 76.314499 104.4
L 76.314499 18.238863
L 72.948265 18.238863
z
" clip-path="url(#p9bbfea1d90)" style="fill: #009e73"/>
   </g>
   <g id="patch_34">
    <path d="M 86.974239 104.4
L 90.340473 104.4
L 90.340473 14.92045
L 86.974239 14.92045
z
" clip-path="url(#p9bbfea1d90)" style="fill: #009e73"/>
   </g>
   <g id="patch_35">
    <path d="M 101.000213 104.4
L 104.366447 104.4
L 104.366447 15.523263
L 101.000213 15.523263
z
" clip-path="url(#p9bbfea1d90)" style="fill: #009e73"/>
   </g>
   <g id="patch_36">
    <path d="M 115.026187 104.4
L 118.392421 104.4
L 118.392421 16.684781
L 115.026187 16.684781
z
" clip-path="url(#p9bbfea1d90)" style="fill: #009e73"/>
   </g>
   <g id="patch_37">
    <path d="M 129.052161 104.4
L 132.418395 104.4
L 132.418395 16.830339
L 129.052161 16.830339
z
" clip-path="url(#p9bbfea1d90)" style="fill: #009e73"/>
   </g>
   <g id="patch_38">
    <path d="M 143.078135 104.4
L 146.444369 104.4
L 146.444369 6.342857
L 143.078135 6.342857
z
" clip-path="url(#p9bbfea1d90)" style="fill: #009e73"/>
   </g>
   <g id="patch_39">
    <path d="M 157.104109 104.4
L 160.470343 104.4
L 160.470343 16.239287
L 157.104109 16.239287
z
" clip-path="url(#p9bbfea1d90)" style="fill: #009e73"/>
   </g>
   <g id="patch_40">
    <path d="M 171.130083 104.4
L 174.496317 104.4
L 174.496317 16.772998
L 171.130083 16.772998
z
" clip-path="url(#p9bbfea1d90)" style="fill: #009e73"/>
   </g>
   <g id="patch_41">
    <path d="M 185.156057 104.4
L 188.522291 104.4
L 188.522291 17.888938
L 185.156057 17.888938
z
" clip-path="url(#p9bbfea1d90)" style="fill: #009e73"/>
   </g>
   <g id="patch_42">
    <path d="M 199.182031 104.4
L 202.548265 104.4
L 202.548265 15.801145
L 199.182031 15.801145
z
" clip-path="url(#p9bbfea1d90)" style="fill: #009e73"/>
   </g>
   <g id="patch_43">
    <path d="M 213.208005 104.4
L 216.574239 104.4
L 216.574239 14.223539
L 213.208005 14.223539
z
" clip-path="url(#p9bbfea1d90)" style="fill: #009e73"/>
   </g>
   <g id="patch_44">
    <path d="M 227.233979 104.4
L 230.600213 104.4
L 230.600213 15.842313
L 227.233979 15.842313
z
" clip-path="url(#p9bbfea1d90)" style="fill: #009e73"/>
   </g>
   <g id="line2d_27">
    <path d="M 28.542031 16.183417
L 240.222031 16.183417
" clip-path="url(#p9bbfea1d90)" style="fill: none; stroke-dasharray: 2.96,1.28; stroke-dashoffset: 0; stroke: #555555; stroke-width: 0.8"/>
   </g>
   <g id="patch_45">
    <path d="M 28.542031 104.4
L 28.542031 1.44
" style="fill: none; stroke: #000000; stroke-width: 0.7; stroke-linejoin: miter; stroke-linecap: square"/>
   </g>
   <g id="patch_46">
    <path d="M 240.222031 104.4
L 240.222031 1.44
" style="fill: none; stroke: #000000; stroke-width: 0.7; stroke-linejoin: miter; stroke-linecap: square"/>
   </g>
   <g id="patch_47">
    <path d="M 28.542031 104.4
L 240.222031 104.4
" style="fill: none; stroke: #000000; stroke-width: 0.7; stroke-linejoin: miter; stroke-linecap: square"/>
   </g>
   <g id="patch_48">
    <path d="M 28.542031 1.44
L 240.222031 1.44
" style="fill: none; stroke: #000000; stroke-width: 0.7; stroke-linejoin: miter; stroke-linecap: square"/>
   </g>
   <g id="legend_1">
    <g id="patch_49">
     <path d="M 33.342031 12.064219
L 41.342031 12.064219
L 41.342031 6.464219
L 33.342031 6.464219
z
" style="fill: #0072b2"/>
    </g>
    <g id="text_22">
     <text style="font-size: 8px; font-family: 'Arial', 'DejaVu Sans', sans-serif; text-anchor: start" x="47.742031" y="12.064219" transform="rotate(-0 47.742031 12.064219)">NPU</text>
    </g>
    <g id="patch_50">
     <path d="M 71.033281 12.064219
L 79.033281 12.064219
L 79.033281 6.464219
L 71.033281 6.464219
z
" style="fill: #e69f00"/>
    </g>
    <g id="text_23">
     <text style="font-size: 8px; font-family: 'Arial', 'DejaVu Sans', sans-serif; text-anchor: start" x="85.433281" y="12.064219" transform="rotate(-0 85.433281 12.064219)">iGPU</text>
    </g>
    <g id="patch_51">
     <path d="M 110.947031 12.064219
L 118.947031 12.064219
L 118.947031 6.464219
L 110.947031 6.464219
z
" style="fill: #009e73"/>
    </g>
    <g id="text_24">
     <text style="font-size: 8px; font-family: 'Arial', 'DejaVu Sans', sans-serif; text-anchor: start" x="125.347031" y="12.064219" transform="rotate(-0 125.347031 12.064219)">CPU</text>
    </g>
   </g>
  </g>
 </g>
 <defs>
  <clipPath id="p9bbfea1d90">
   <rect x="28.542031" y="1.44" width="211.68" height="102.96"/>
  </clipPath>
 </defs>
</svg>
